<svg width="469" height="523" viewBox="0 0 469 523" fill="none" xmlns="http://www.w3.org/2000/svg">
<path d="M423.077 108.137L423.078 108.139C463.664 170.11 476.019 243.258 459.056 306.295L459.056 306.296C442.104 369.409 395.771 422.652 330.579 464.306C297.921 485.135 260.705 502.982 223.447 512.512C186.178 522.045 149.044 523.213 116.394 510.927L116.392 510.926C83.6624 498.631 55.1159 472.806 34.7647 441.197C14.4151 409.59 2.38664 372.392 2.50081 337.571L2.50082 337.567C2.55782 302.849 14.7259 270.233 33.1346 238.169C50.1481 208.535 72.3849 179.546 95.1275 149.899C97.0149 147.438 98.9058 144.973 100.797 142.503L100.799 142.501C102.879 139.778 104.958 137.051 107.036 134.326C129.563 104.778 152.007 75.3375 175.462 51.7777C201.095 26.0285 227.603 7.65557 256.299 3.70838C285.056 -0.181204 316.542 10.2629 346.065 29.6478C375.556 49.0121 402.834 77.1406 423.077 108.137Z" stroke="#FEB447" stroke-width="5"/>
</svg>
