<svg width="483" height="379" viewBox="0 0 483 379" fill="none" xmlns="http://www.w3.org/2000/svg">
<g filter="url(#filter0_d)">
<mask id="mask0" mask-type="alpha" maskUnits="userSpaceOnUse" x="15" y="7" width="453" height="349">
<rect x="15" y="7.40247" width="453" height="348" rx="20" fill="#FE840E"/>
</mask>
<g mask="url(#mask0)">
<rect x="15" y="7.40247" width="453" height="348" fill="white"/>
<circle cx="110.5" cy="9.90247" r="1.5" fill="#E3E3E3"/>
<circle cx="128.5" cy="9.90247" r="1.5" fill="#E3E3E3"/>
<circle cx="146.5" cy="9.90247" r="1.5" fill="#E3E3E3"/>
<circle cx="164.5" cy="9.90247" r="1.5" fill="#E3E3E3"/>
<circle cx="182.5" cy="9.90247" r="1.5" fill="#E3E3E3"/>
<circle cx="200.5" cy="9.90247" r="1.5" fill="#E3E3E3"/>
<circle cx="218.5" cy="9.90247" r="1.5" fill="#E3E3E3"/>
<circle cx="236.5" cy="9.90247" r="1.5" fill="#E3E3E3"/>
<circle cx="254.5" cy="9.90247" r="1.5" fill="#E3E3E3"/>
<circle cx="272.5" cy="9.90247" r="1.5" fill="#E3E3E3"/>
<circle cx="290.5" cy="9.90247" r="1.5" fill="#E3E3E3"/>
<circle cx="308.5" cy="9.90247" r="1.5" fill="#E3E3E3"/>
<circle cx="326.5" cy="9.90247" r="1.5" fill="#E3E3E3"/>
<circle cx="344.5" cy="9.90247" r="1.5" fill="#E3E3E3"/>
<circle cx="362.5" cy="9.90247" r="1.5" fill="#E3E3E3"/>
<circle cx="380.5" cy="9.90247" r="1.5" fill="#E3E3E3"/>
<circle cx="398.5" cy="9.90247" r="1.5" fill="#E3E3E3"/>
<circle cx="416.5" cy="9.90247" r="1.5" fill="#E3E3E3"/>
<circle cx="434.5" cy="9.90247" r="1.5" fill="#E3E3E3"/>
<circle cx="452.5" cy="9.90247" r="1.5" fill="#E3E3E3"/>
<circle cx="110.5" cy="27.9025" r="1.5" fill="#E3E3E3"/>
<circle cx="128.5" cy="27.9025" r="1.5" fill="#E3E3E3"/>
<circle cx="146.5" cy="27.9025" r="1.5" fill="#E3E3E3"/>
<circle cx="164.5" cy="27.9025" r="1.5" fill="#E3E3E3"/>
<circle cx="182.5" cy="27.9025" r="1.5" fill="#E3E3E3"/>
<circle cx="200.5" cy="27.9025" r="1.5" fill="#E3E3E3"/>
<circle cx="218.5" cy="27.9025" r="1.5" fill="#E3E3E3"/>
<circle cx="236.5" cy="27.9025" r="1.5" fill="#E3E3E3"/>
<circle cx="254.5" cy="27.9025" r="1.5" fill="#E3E3E3"/>
<circle cx="272.5" cy="27.9025" r="1.5" fill="#E3E3E3"/>
<circle cx="290.5" cy="27.9025" r="1.5" fill="#E3E3E3"/>
<circle cx="308.5" cy="27.9025" r="1.5" fill="#E3E3E3"/>
<circle cx="326.5" cy="27.9025" r="1.5" fill="#E3E3E3"/>
<circle cx="344.5" cy="27.9025" r="1.5" fill="#E3E3E3"/>
<circle cx="362.5" cy="27.9025" r="1.5" fill="#E3E3E3"/>
<circle cx="380.5" cy="27.9025" r="1.5" fill="#E3E3E3"/>
<circle cx="398.5" cy="27.9025" r="1.5" fill="#E3E3E3"/>
<circle cx="416.5" cy="27.9025" r="1.5" fill="#E3E3E3"/>
<circle cx="434.5" cy="27.9025" r="1.5" fill="#E3E3E3"/>
<circle cx="452.5" cy="27.9025" r="1.5" fill="#E3E3E3"/>
<circle cx="110.5" cy="45.9025" r="1.5" fill="#E3E3E3"/>
<circle cx="128.5" cy="45.9025" r="1.5" fill="#E3E3E3"/>
<circle cx="146.5" cy="45.9025" r="1.5" fill="#E3E3E3"/>
<circle cx="164.5" cy="45.9025" r="1.5" fill="#E3E3E3"/>
<circle cx="182.5" cy="45.9025" r="1.5" fill="#E3E3E3"/>
<circle cx="200.5" cy="45.9025" r="1.5" fill="#E3E3E3"/>
<circle cx="218.5" cy="45.9025" r="1.5" fill="#E3E3E3"/>
<circle cx="236.5" cy="45.9025" r="1.5" fill="#E3E3E3"/>
<circle cx="254.5" cy="45.9025" r="1.5" fill="#E3E3E3"/>
<circle cx="272.5" cy="45.9025" r="1.5" fill="#E3E3E3"/>
<circle cx="290.5" cy="45.9025" r="1.5" fill="#E3E3E3"/>
<circle cx="308.5" cy="45.9025" r="1.5" fill="#E3E3E3"/>
<circle cx="326.5" cy="45.9025" r="1.5" fill="#E3E3E3"/>
<circle cx="344.5" cy="45.9025" r="1.5" fill="#E3E3E3"/>
<circle cx="362.5" cy="45.9025" r="1.5" fill="#E3E3E3"/>
<circle cx="380.5" cy="45.9025" r="1.5" fill="#E3E3E3"/>
<circle cx="398.5" cy="45.9025" r="1.5" fill="#E3E3E3"/>
<circle cx="416.5" cy="45.9025" r="1.5" fill="#E3E3E3"/>
<circle cx="434.5" cy="45.9025" r="1.5" fill="#E3E3E3"/>
<circle cx="452.5" cy="45.9025" r="1.5" fill="#E3E3E3"/>
<circle cx="110.5" cy="63.9025" r="1.5" fill="#E3E3E3"/>
<circle cx="128.5" cy="63.9025" r="1.5" fill="#E3E3E3"/>
<circle cx="146.5" cy="63.9025" r="1.5" fill="#E3E3E3"/>
<circle cx="164.5" cy="63.9025" r="1.5" fill="#E3E3E3"/>
<circle cx="182.5" cy="63.9025" r="1.5" fill="#E3E3E3"/>
<circle cx="200.5" cy="63.9025" r="1.5" fill="#E3E3E3"/>
<circle cx="218.5" cy="63.9025" r="1.5" fill="#E3E3E3"/>
<circle cx="236.5" cy="63.9025" r="1.5" fill="#E3E3E3"/>
<circle cx="254.5" cy="63.9025" r="1.5" fill="#E3E3E3"/>
<circle cx="272.5" cy="63.9025" r="1.5" fill="#E3E3E3"/>
<circle cx="290.5" cy="63.9025" r="1.5" fill="#E3E3E3"/>
<circle cx="308.5" cy="63.9025" r="1.5" fill="#E3E3E3"/>
<circle cx="326.5" cy="63.9025" r="1.5" fill="#E3E3E3"/>
<circle cx="344.5" cy="63.9025" r="1.5" fill="#E3E3E3"/>
<circle cx="362.5" cy="63.9025" r="1.5" fill="#E3E3E3"/>
<circle cx="380.5" cy="63.9025" r="1.5" fill="#E3E3E3"/>
<circle cx="398.5" cy="63.9025" r="1.5" fill="#E3E3E3"/>
<circle cx="416.5" cy="63.9025" r="1.5" fill="#E3E3E3"/>
<circle cx="434.5" cy="63.9025" r="1.5" fill="#E3E3E3"/>
<circle cx="452.5" cy="63.9025" r="1.5" fill="#E3E3E3"/>
<circle cx="110.5" cy="81.9025" r="1.5" fill="#E3E3E3"/>
<circle cx="128.5" cy="81.9025" r="1.5" fill="#E3E3E3"/>
<circle cx="146.5" cy="81.9025" r="1.5" fill="#E3E3E3"/>
<circle cx="164.5" cy="81.9025" r="1.5" fill="#E3E3E3"/>
<circle cx="182.5" cy="81.9025" r="1.5" fill="#E3E3E3"/>
<circle cx="200.5" cy="81.9025" r="1.5" fill="#E3E3E3"/>
<circle cx="218.5" cy="81.9025" r="1.5" fill="#E3E3E3"/>
<circle cx="236.5" cy="81.9025" r="1.5" fill="#E3E3E3"/>
<circle cx="254.5" cy="81.9025" r="1.5" fill="#E3E3E3"/>
<circle cx="272.5" cy="81.9025" r="1.5" fill="#E3E3E3"/>
<circle cx="290.5" cy="81.9025" r="1.5" fill="#E3E3E3"/>
<circle cx="308.5" cy="81.9025" r="1.5" fill="#E3E3E3"/>
<circle cx="326.5" cy="81.9025" r="1.5" fill="#E3E3E3"/>
<circle cx="344.5" cy="81.9025" r="1.5" fill="#E3E3E3"/>
<circle cx="362.5" cy="81.9025" r="1.5" fill="#E3E3E3"/>
<circle cx="380.5" cy="81.9025" r="1.5" fill="#E3E3E3"/>
<circle cx="398.5" cy="81.9025" r="1.5" fill="#E3E3E3"/>
<circle cx="416.5" cy="81.9025" r="1.5" fill="#E3E3E3"/>
<circle cx="434.5" cy="81.9025" r="1.5" fill="#E3E3E3"/>
<circle cx="452.5" cy="81.9025" r="1.5" fill="#E3E3E3"/>
<circle cx="110.5" cy="99.9025" r="1.5" fill="#E3E3E3"/>
<circle cx="128.5" cy="99.9025" r="1.5" fill="#E3E3E3"/>
<circle cx="146.5" cy="99.9025" r="1.5" fill="#E3E3E3"/>
<circle cx="164.5" cy="99.9025" r="1.5" fill="#E3E3E3"/>
<circle cx="182.5" cy="99.9025" r="1.5" fill="#E3E3E3"/>
<circle cx="200.5" cy="99.9025" r="1.5" fill="#E3E3E3"/>
<circle cx="218.5" cy="99.9025" r="1.5" fill="#E3E3E3"/>
<circle cx="236.5" cy="99.9025" r="1.5" fill="#E3E3E3"/>
<circle cx="254.5" cy="99.9025" r="1.5" fill="#E3E3E3"/>
<circle cx="272.5" cy="99.9025" r="1.5" fill="#E3E3E3"/>
<circle cx="290.5" cy="99.9025" r="1.5" fill="#E3E3E3"/>
<circle cx="308.5" cy="99.9025" r="1.5" fill="#E3E3E3"/>
<circle cx="326.5" cy="99.9025" r="1.5" fill="#E3E3E3"/>
<circle cx="344.5" cy="99.9025" r="1.5" fill="#E3E3E3"/>
<circle cx="362.5" cy="99.9025" r="1.5" fill="#E3E3E3"/>
<circle cx="380.5" cy="99.9025" r="1.5" fill="#E3E3E3"/>
<circle cx="398.5" cy="99.9025" r="1.5" fill="#E3E3E3"/>
<circle cx="416.5" cy="99.9025" r="1.5" fill="#E3E3E3"/>
<circle cx="434.5" cy="99.9025" r="1.5" fill="#E3E3E3"/>
<circle cx="452.5" cy="99.9025" r="1.5" fill="#E3E3E3"/>
<circle cx="110.5" cy="117.902" r="1.5" fill="#E3E3E3"/>
<circle cx="128.5" cy="117.902" r="1.5" fill="#E3E3E3"/>
<circle cx="146.5" cy="117.902" r="1.5" fill="#E3E3E3"/>
<circle cx="164.5" cy="117.902" r="1.5" fill="#E3E3E3"/>
<circle cx="182.5" cy="117.902" r="1.5" fill="#E3E3E3"/>
<circle cx="200.5" cy="117.902" r="1.5" fill="#E3E3E3"/>
<circle cx="218.5" cy="117.902" r="1.5" fill="#E3E3E3"/>
<circle cx="236.5" cy="117.902" r="1.5" fill="#E3E3E3"/>
<circle cx="254.5" cy="117.902" r="1.5" fill="#E3E3E3"/>
<circle cx="272.5" cy="117.902" r="1.5" fill="#E3E3E3"/>
<circle cx="290.5" cy="117.902" r="1.5" fill="#E3E3E3"/>
<circle cx="308.5" cy="117.902" r="1.5" fill="#E3E3E3"/>
<circle cx="326.5" cy="117.902" r="1.5" fill="#E3E3E3"/>
<circle cx="344.5" cy="117.902" r="1.5" fill="#E3E3E3"/>
<circle cx="362.5" cy="117.902" r="1.5" fill="#E3E3E3"/>
<circle cx="380.5" cy="117.902" r="1.5" fill="#E3E3E3"/>
<circle cx="398.5" cy="117.902" r="1.5" fill="#E3E3E3"/>
<circle cx="416.5" cy="117.902" r="1.5" fill="#E3E3E3"/>
<circle cx="434.5" cy="117.902" r="1.5" fill="#E3E3E3"/>
<circle cx="452.5" cy="117.902" r="1.5" fill="#E3E3E3"/>
<circle cx="110.5" cy="135.902" r="1.5" fill="#E3E3E3"/>
<circle cx="128.5" cy="135.902" r="1.5" fill="#E3E3E3"/>
<circle cx="146.5" cy="135.902" r="1.5" fill="#E3E3E3"/>
<circle cx="164.5" cy="135.902" r="1.5" fill="#E3E3E3"/>
<circle cx="182.5" cy="135.902" r="1.5" fill="#E3E3E3"/>
<circle cx="200.5" cy="135.902" r="1.5" fill="#E3E3E3"/>
<circle cx="218.5" cy="135.902" r="1.5" fill="#E3E3E3"/>
<circle cx="236.5" cy="135.902" r="1.5" fill="#E3E3E3"/>
<circle cx="254.5" cy="135.902" r="1.5" fill="#E3E3E3"/>
<circle cx="272.5" cy="135.902" r="1.5" fill="#E3E3E3"/>
<circle cx="290.5" cy="135.902" r="1.5" fill="#E3E3E3"/>
<circle cx="308.5" cy="135.902" r="1.5" fill="#E3E3E3"/>
<circle cx="326.5" cy="135.902" r="1.5" fill="#E3E3E3"/>
<circle cx="344.5" cy="135.902" r="1.5" fill="#E3E3E3"/>
<circle cx="362.5" cy="135.902" r="1.5" fill="#E3E3E3"/>
<circle cx="380.5" cy="135.902" r="1.5" fill="#E3E3E3"/>
<circle cx="398.5" cy="135.902" r="1.5" fill="#E3E3E3"/>
<circle cx="416.5" cy="135.902" r="1.5" fill="#E3E3E3"/>
<circle cx="434.5" cy="135.902" r="1.5" fill="#E3E3E3"/>
<circle cx="452.5" cy="135.902" r="1.5" fill="#E3E3E3"/>
<circle cx="110.5" cy="153.902" r="1.5" fill="#E3E3E3"/>
<circle cx="128.5" cy="153.902" r="1.5" fill="#E3E3E3"/>
<circle cx="146.5" cy="153.902" r="1.5" fill="#E3E3E3"/>
<circle cx="164.5" cy="153.902" r="1.5" fill="#E3E3E3"/>
<circle cx="182.5" cy="153.902" r="1.5" fill="#E3E3E3"/>
<circle cx="200.5" cy="153.902" r="1.5" fill="#E3E3E3"/>
<circle cx="218.5" cy="153.902" r="1.5" fill="#E3E3E3"/>
<circle cx="236.5" cy="153.902" r="1.5" fill="#E3E3E3"/>
<circle cx="254.5" cy="153.902" r="1.5" fill="#E3E3E3"/>
<circle cx="272.5" cy="153.902" r="1.5" fill="#E3E3E3"/>
<circle cx="290.5" cy="153.902" r="1.5" fill="#E3E3E3"/>
<circle cx="308.5" cy="153.902" r="1.5" fill="#E3E3E3"/>
<circle cx="326.5" cy="153.902" r="1.5" fill="#E3E3E3"/>
<circle cx="344.5" cy="153.902" r="1.5" fill="#E3E3E3"/>
<circle cx="362.5" cy="153.902" r="1.5" fill="#E3E3E3"/>
<circle cx="380.5" cy="153.902" r="1.5" fill="#E3E3E3"/>
<circle cx="398.5" cy="153.902" r="1.5" fill="#E3E3E3"/>
<circle cx="416.5" cy="153.902" r="1.5" fill="#E3E3E3"/>
<circle cx="434.5" cy="153.902" r="1.5" fill="#E3E3E3"/>
<circle cx="452.5" cy="153.902" r="1.5" fill="#E3E3E3"/>
<circle cx="110.5" cy="171.902" r="1.5" fill="#E3E3E3"/>
<circle cx="128.5" cy="171.902" r="1.5" fill="#E3E3E3"/>
<circle cx="146.5" cy="171.902" r="1.5" fill="#E3E3E3"/>
<circle cx="164.5" cy="171.902" r="1.5" fill="#E3E3E3"/>
<circle cx="182.5" cy="171.902" r="1.5" fill="#E3E3E3"/>
<circle cx="200.5" cy="171.902" r="1.5" fill="#E3E3E3"/>
<circle cx="218.5" cy="171.902" r="1.5" fill="#E3E3E3"/>
<circle cx="236.5" cy="171.902" r="1.5" fill="#E3E3E3"/>
<circle cx="254.5" cy="171.902" r="1.5" fill="#E3E3E3"/>
<circle cx="272.5" cy="171.902" r="1.5" fill="#E3E3E3"/>
<circle cx="290.5" cy="171.902" r="1.5" fill="#E3E3E3"/>
<circle cx="308.5" cy="171.902" r="1.5" fill="#E3E3E3"/>
<circle cx="326.5" cy="171.902" r="1.5" fill="#E3E3E3"/>
<circle cx="344.5" cy="171.902" r="1.5" fill="#E3E3E3"/>
<circle cx="362.5" cy="171.902" r="1.5" fill="#E3E3E3"/>
<circle cx="380.5" cy="171.902" r="1.5" fill="#E3E3E3"/>
<circle cx="398.5" cy="171.902" r="1.5" fill="#E3E3E3"/>
<circle cx="416.5" cy="171.902" r="1.5" fill="#E3E3E3"/>
<circle cx="434.5" cy="171.902" r="1.5" fill="#E3E3E3"/>
<circle cx="452.5" cy="171.902" r="1.5" fill="#E3E3E3"/>
<circle cx="110.5" cy="189.902" r="1.5" fill="#E3E3E3"/>
<circle cx="128.5" cy="189.902" r="1.5" fill="#E3E3E3"/>
<circle cx="146.5" cy="189.902" r="1.5" fill="#E3E3E3"/>
<circle cx="164.5" cy="189.902" r="1.5" fill="#E3E3E3"/>
<circle cx="182.5" cy="189.902" r="1.5" fill="#E3E3E3"/>
<circle cx="200.5" cy="189.902" r="1.5" fill="#E3E3E3"/>
<circle cx="218.5" cy="189.902" r="1.5" fill="#E3E3E3"/>
<circle cx="236.5" cy="189.902" r="1.5" fill="#E3E3E3"/>
<circle cx="254.5" cy="189.902" r="1.5" fill="#E3E3E3"/>
<circle cx="272.5" cy="189.902" r="1.5" fill="#E3E3E3"/>
<circle cx="290.5" cy="189.902" r="1.5" fill="#E3E3E3"/>
<circle cx="308.5" cy="189.902" r="1.5" fill="#E3E3E3"/>
<circle cx="326.5" cy="189.902" r="1.5" fill="#E3E3E3"/>
<circle cx="344.5" cy="189.902" r="1.5" fill="#E3E3E3"/>
<circle cx="362.5" cy="189.902" r="1.5" fill="#E3E3E3"/>
<circle cx="380.5" cy="189.902" r="1.5" fill="#E3E3E3"/>
<circle cx="398.5" cy="189.902" r="1.5" fill="#E3E3E3"/>
<circle cx="416.5" cy="189.902" r="1.5" fill="#E3E3E3"/>
<circle cx="434.5" cy="189.902" r="1.5" fill="#E3E3E3"/>
<circle cx="452.5" cy="189.902" r="1.5" fill="#E3E3E3"/>
<circle cx="110.5" cy="207.902" r="1.5" fill="#E3E3E3"/>
<circle cx="128.5" cy="207.902" r="1.5" fill="#E3E3E3"/>
<circle cx="146.5" cy="207.902" r="1.5" fill="#E3E3E3"/>
<circle cx="164.5" cy="207.902" r="1.5" fill="#E3E3E3"/>
<circle cx="182.5" cy="207.902" r="1.5" fill="#E3E3E3"/>
<circle cx="200.5" cy="207.902" r="1.5" fill="#E3E3E3"/>
<circle cx="218.5" cy="207.902" r="1.5" fill="#E3E3E3"/>
<circle cx="236.5" cy="207.902" r="1.5" fill="#E3E3E3"/>
<circle cx="254.5" cy="207.902" r="1.5" fill="#E3E3E3"/>
<circle cx="272.5" cy="207.902" r="1.5" fill="#E3E3E3"/>
<circle cx="290.5" cy="207.902" r="1.5" fill="#E3E3E3"/>
<circle cx="308.5" cy="207.902" r="1.5" fill="#E3E3E3"/>
<circle cx="326.5" cy="207.902" r="1.5" fill="#E3E3E3"/>
<circle cx="344.5" cy="207.902" r="1.5" fill="#E3E3E3"/>
<circle cx="362.5" cy="207.902" r="1.5" fill="#E3E3E3"/>
<circle cx="380.5" cy="207.902" r="1.5" fill="#E3E3E3"/>
<circle cx="398.5" cy="207.902" r="1.5" fill="#E3E3E3"/>
<circle cx="416.5" cy="207.902" r="1.5" fill="#E3E3E3"/>
<circle cx="434.5" cy="207.902" r="1.5" fill="#E3E3E3"/>
<circle cx="452.5" cy="207.902" r="1.5" fill="#E3E3E3"/>
<circle cx="110.5" cy="225.902" r="1.5" fill="#E3E3E3"/>
<circle cx="128.5" cy="225.902" r="1.5" fill="#E3E3E3"/>
<circle cx="146.5" cy="225.902" r="1.5" fill="#E3E3E3"/>
<circle cx="164.5" cy="225.902" r="1.5" fill="#E3E3E3"/>
<circle cx="182.5" cy="225.902" r="1.5" fill="#E3E3E3"/>
<circle cx="200.5" cy="225.902" r="1.5" fill="#E3E3E3"/>
<circle cx="218.5" cy="225.902" r="1.5" fill="#E3E3E3"/>
<circle cx="236.5" cy="225.902" r="1.5" fill="#E3E3E3"/>
<circle cx="254.5" cy="225.902" r="1.5" fill="#E3E3E3"/>
<circle cx="272.5" cy="225.902" r="1.5" fill="#E3E3E3"/>
<circle cx="290.5" cy="225.902" r="1.5" fill="#E3E3E3"/>
<circle cx="308.5" cy="225.902" r="1.5" fill="#E3E3E3"/>
<circle cx="326.5" cy="225.902" r="1.5" fill="#E3E3E3"/>
<circle cx="344.5" cy="225.902" r="1.5" fill="#E3E3E3"/>
<circle cx="362.5" cy="225.902" r="1.5" fill="#E3E3E3"/>
<circle cx="380.5" cy="225.902" r="1.5" fill="#E3E3E3"/>
<circle cx="398.5" cy="225.902" r="1.5" fill="#E3E3E3"/>
<circle cx="416.5" cy="225.902" r="1.5" fill="#E3E3E3"/>
<circle cx="434.5" cy="225.902" r="1.5" fill="#E3E3E3"/>
<circle cx="452.5" cy="225.902" r="1.5" fill="#E3E3E3"/>
<circle cx="110.5" cy="243.902" r="1.5" fill="#E3E3E3"/>
<circle cx="128.5" cy="243.902" r="1.5" fill="#E3E3E3"/>
<circle cx="146.5" cy="243.902" r="1.5" fill="#E3E3E3"/>
<circle cx="164.5" cy="243.902" r="1.5" fill="#E3E3E3"/>
<circle cx="182.5" cy="243.902" r="1.5" fill="#E3E3E3"/>
<circle cx="200.5" cy="243.902" r="1.5" fill="#E3E3E3"/>
<circle cx="218.5" cy="243.902" r="1.5" fill="#E3E3E3"/>
<circle cx="236.5" cy="243.902" r="1.5" fill="#E3E3E3"/>
<circle cx="254.5" cy="243.902" r="1.5" fill="#E3E3E3"/>
<circle cx="272.5" cy="243.902" r="1.5" fill="#E3E3E3"/>
<circle cx="290.5" cy="243.902" r="1.5" fill="#E3E3E3"/>
<circle cx="308.5" cy="243.902" r="1.5" fill="#E3E3E3"/>
<circle cx="326.5" cy="243.902" r="1.5" fill="#E3E3E3"/>
<circle cx="344.5" cy="243.902" r="1.5" fill="#E3E3E3"/>
<circle cx="362.5" cy="243.902" r="1.5" fill="#E3E3E3"/>
<circle cx="380.5" cy="243.902" r="1.5" fill="#E3E3E3"/>
<circle cx="398.5" cy="243.902" r="1.5" fill="#E3E3E3"/>
<circle cx="416.5" cy="243.902" r="1.5" fill="#E3E3E3"/>
<circle cx="434.5" cy="243.902" r="1.5" fill="#E3E3E3"/>
<circle cx="452.5" cy="243.902" r="1.5" fill="#E3E3E3"/>
<circle cx="110.5" cy="261.902" r="1.5" fill="#E3E3E3"/>
<circle cx="128.5" cy="261.902" r="1.5" fill="#E3E3E3"/>
<circle cx="146.5" cy="261.902" r="1.5" fill="#E3E3E3"/>
<circle cx="164.5" cy="261.902" r="1.5" fill="#E3E3E3"/>
<circle cx="182.5" cy="261.902" r="1.5" fill="#E3E3E3"/>
<circle cx="200.5" cy="261.902" r="1.5" fill="#E3E3E3"/>
<circle cx="218.5" cy="261.902" r="1.5" fill="#E3E3E3"/>
<circle cx="236.5" cy="261.902" r="1.5" fill="#E3E3E3"/>
<circle cx="254.5" cy="261.902" r="1.5" fill="#E3E3E3"/>
<circle cx="272.5" cy="261.902" r="1.5" fill="#E3E3E3"/>
<circle cx="290.5" cy="261.902" r="1.5" fill="#E3E3E3"/>
<circle cx="308.5" cy="261.902" r="1.5" fill="#E3E3E3"/>
<circle cx="326.5" cy="261.902" r="1.5" fill="#E3E3E3"/>
<circle cx="344.5" cy="261.902" r="1.5" fill="#E3E3E3"/>
<circle cx="362.5" cy="261.902" r="1.5" fill="#E3E3E3"/>
<circle cx="380.5" cy="261.902" r="1.5" fill="#E3E3E3"/>
<circle cx="398.5" cy="261.902" r="1.5" fill="#E3E3E3"/>
<circle cx="416.5" cy="261.902" r="1.5" fill="#E3E3E3"/>
<circle cx="434.5" cy="261.902" r="1.5" fill="#E3E3E3"/>
<circle cx="452.5" cy="261.902" r="1.5" fill="#E3E3E3"/>
<circle cx="110.5" cy="279.902" r="1.5" fill="#E3E3E3"/>
<circle cx="128.5" cy="279.902" r="1.5" fill="#E3E3E3"/>
<circle cx="146.5" cy="279.902" r="1.5" fill="#E3E3E3"/>
<circle cx="164.5" cy="279.902" r="1.5" fill="#E3E3E3"/>
<circle cx="182.5" cy="279.902" r="1.5" fill="#E3E3E3"/>
<circle cx="200.5" cy="279.902" r="1.5" fill="#E3E3E3"/>
<circle cx="218.5" cy="279.902" r="1.5" fill="#E3E3E3"/>
<circle cx="236.5" cy="279.902" r="1.5" fill="#E3E3E3"/>
<circle cx="254.5" cy="279.902" r="1.5" fill="#E3E3E3"/>
<circle cx="272.5" cy="279.902" r="1.5" fill="#E3E3E3"/>
<circle cx="290.5" cy="279.902" r="1.5" fill="#E3E3E3"/>
<circle cx="308.5" cy="279.902" r="1.5" fill="#E3E3E3"/>
<circle cx="326.5" cy="279.902" r="1.5" fill="#E3E3E3"/>
<circle cx="344.5" cy="279.902" r="1.5" fill="#E3E3E3"/>
<circle cx="362.5" cy="279.902" r="1.5" fill="#E3E3E3"/>
<circle cx="380.5" cy="279.902" r="1.5" fill="#E3E3E3"/>
<circle cx="398.5" cy="279.902" r="1.5" fill="#E3E3E3"/>
<circle cx="416.5" cy="279.902" r="1.5" fill="#E3E3E3"/>
<circle cx="434.5" cy="279.902" r="1.5" fill="#E3E3E3"/>
<circle cx="452.5" cy="279.902" r="1.5" fill="#E3E3E3"/>
<circle cx="110.5" cy="297.902" r="1.5" fill="#E3E3E3"/>
<circle cx="128.5" cy="297.902" r="1.5" fill="#E3E3E3"/>
<circle cx="146.5" cy="297.902" r="1.5" fill="#E3E3E3"/>
<circle cx="164.5" cy="297.902" r="1.5" fill="#E3E3E3"/>
<circle cx="182.5" cy="297.902" r="1.5" fill="#E3E3E3"/>
<circle cx="200.5" cy="297.902" r="1.5" fill="#E3E3E3"/>
<circle cx="218.5" cy="297.902" r="1.5" fill="#E3E3E3"/>
<circle cx="236.5" cy="297.902" r="1.5" fill="#E3E3E3"/>
<circle cx="254.5" cy="297.902" r="1.5" fill="#E3E3E3"/>
<circle cx="272.5" cy="297.902" r="1.5" fill="#E3E3E3"/>
<circle cx="290.5" cy="297.902" r="1.5" fill="#E3E3E3"/>
<circle cx="308.5" cy="297.902" r="1.5" fill="#E3E3E3"/>
<circle cx="326.5" cy="297.902" r="1.5" fill="#E3E3E3"/>
<circle cx="344.5" cy="297.902" r="1.5" fill="#E3E3E3"/>
<circle cx="362.5" cy="297.902" r="1.5" fill="#E3E3E3"/>
<circle cx="380.5" cy="297.902" r="1.5" fill="#E3E3E3"/>
<circle cx="398.5" cy="297.902" r="1.5" fill="#E3E3E3"/>
<circle cx="416.5" cy="297.902" r="1.5" fill="#E3E3E3"/>
<circle cx="434.5" cy="297.902" r="1.5" fill="#E3E3E3"/>
<circle cx="452.5" cy="297.902" r="1.5" fill="#E3E3E3"/>
<circle cx="110.5" cy="315.902" r="1.5" fill="#E3E3E3"/>
<circle cx="128.5" cy="315.902" r="1.5" fill="#E3E3E3"/>
<circle cx="146.5" cy="315.902" r="1.5" fill="#E3E3E3"/>
<circle cx="164.5" cy="315.902" r="1.5" fill="#E3E3E3"/>
<circle cx="182.5" cy="315.902" r="1.5" fill="#E3E3E3"/>
<circle cx="200.5" cy="315.902" r="1.5" fill="#E3E3E3"/>
<circle cx="218.5" cy="315.902" r="1.5" fill="#E3E3E3"/>
<circle cx="236.5" cy="315.902" r="1.5" fill="#E3E3E3"/>
<circle cx="254.5" cy="315.902" r="1.5" fill="#E3E3E3"/>
<circle cx="272.5" cy="315.902" r="1.5" fill="#E3E3E3"/>
<circle cx="290.5" cy="315.902" r="1.5" fill="#E3E3E3"/>
<circle cx="308.5" cy="315.902" r="1.5" fill="#E3E3E3"/>
<circle cx="326.5" cy="315.902" r="1.5" fill="#E3E3E3"/>
<circle cx="344.5" cy="315.902" r="1.5" fill="#E3E3E3"/>
<circle cx="362.5" cy="315.902" r="1.5" fill="#E3E3E3"/>
<circle cx="380.5" cy="315.902" r="1.5" fill="#E3E3E3"/>
<circle cx="398.5" cy="315.902" r="1.5" fill="#E3E3E3"/>
<circle cx="416.5" cy="315.902" r="1.5" fill="#E3E3E3"/>
<circle cx="434.5" cy="315.902" r="1.5" fill="#E3E3E3"/>
<circle cx="452.5" cy="315.902" r="1.5" fill="#E3E3E3"/>
<circle cx="110.5" cy="333.902" r="1.5" fill="#E3E3E3"/>
<circle cx="128.5" cy="333.902" r="1.5" fill="#E3E3E3"/>
<circle cx="146.5" cy="333.902" r="1.5" fill="#E3E3E3"/>
<circle cx="164.5" cy="333.902" r="1.5" fill="#E3E3E3"/>
<circle cx="182.5" cy="333.902" r="1.5" fill="#E3E3E3"/>
<circle cx="200.5" cy="333.902" r="1.5" fill="#E3E3E3"/>
<circle cx="218.5" cy="333.902" r="1.5" fill="#E3E3E3"/>
<circle cx="236.5" cy="333.902" r="1.5" fill="#E3E3E3"/>
<circle cx="254.5" cy="333.902" r="1.5" fill="#E3E3E3"/>
<circle cx="272.5" cy="333.902" r="1.5" fill="#E3E3E3"/>
<circle cx="290.5" cy="333.902" r="1.5" fill="#E3E3E3"/>
<circle cx="308.5" cy="333.902" r="1.5" fill="#E3E3E3"/>
<circle cx="326.5" cy="333.902" r="1.5" fill="#E3E3E3"/>
<circle cx="344.5" cy="333.902" r="1.5" fill="#E3E3E3"/>
<circle cx="362.5" cy="333.902" r="1.5" fill="#E3E3E3"/>
<circle cx="380.5" cy="333.902" r="1.5" fill="#E3E3E3"/>
<circle cx="398.5" cy="333.902" r="1.5" fill="#E3E3E3"/>
<circle cx="416.5" cy="333.902" r="1.5" fill="#E3E3E3"/>
<circle cx="434.5" cy="333.902" r="1.5" fill="#E3E3E3"/>
<circle cx="452.5" cy="333.902" r="1.5" fill="#E3E3E3"/>
<circle cx="110.5" cy="351.902" r="1.5" fill="#E3E3E3"/>
<circle cx="128.5" cy="351.902" r="1.5" fill="#E3E3E3"/>
<circle cx="146.5" cy="351.902" r="1.5" fill="#E3E3E3"/>
<circle cx="164.5" cy="351.902" r="1.5" fill="#E3E3E3"/>
<circle cx="182.5" cy="351.902" r="1.5" fill="#E3E3E3"/>
<circle cx="200.5" cy="351.902" r="1.5" fill="#E3E3E3"/>
<circle cx="218.5" cy="351.902" r="1.5" fill="#E3E3E3"/>
<circle cx="236.5" cy="351.902" r="1.5" fill="#E3E3E3"/>
<circle cx="254.5" cy="351.902" r="1.5" fill="#E3E3E3"/>
<circle cx="272.5" cy="351.902" r="1.5" fill="#E3E3E3"/>
<circle cx="290.5" cy="351.902" r="1.5" fill="#E3E3E3"/>
<circle cx="308.5" cy="351.902" r="1.5" fill="#E3E3E3"/>
<circle cx="326.5" cy="351.902" r="1.5" fill="#E3E3E3"/>
<circle cx="344.5" cy="351.902" r="1.5" fill="#E3E3E3"/>
<circle cx="362.5" cy="351.902" r="1.5" fill="#E3E3E3"/>
<circle cx="380.5" cy="351.902" r="1.5" fill="#E3E3E3"/>
<circle cx="398.5" cy="351.902" r="1.5" fill="#E3E3E3"/>
<circle cx="416.5" cy="351.902" r="1.5" fill="#E3E3E3"/>
<circle cx="434.5" cy="351.902" r="1.5" fill="#E3E3E3"/>
<circle cx="452.5" cy="351.902" r="1.5" fill="#E3E3E3"/>
<rect x="15" y="7.40247" width="453" height="348" fill="url(#paint0_radial)"/>
<path d="M3.43037 299.32C-11.6742 296.609 -24.6847 283.351 -35.2744 268.541C-45.8466 253.756 -53.9739 237.401 -52.1171 222.079C-50.2603 206.757 -38.4063 192.385 -24.1707 183.693C-9.91745 175.024 6.70639 171.969 22.6948 174.217C38.7009 176.49 54.0298 184.06 64.9116 196.588C75.7934 209.115 82.2039 226.617 79.4633 242.401C76.7161 258.227 64.7761 272.33 50.2484 283.305C35.679 294.274 18.5285 302.073 3.43037 299.32Z" fill="#FEB447"/>
<path d="M41.52 125.322C34.08 125.322 27.48 123.602 21.72 120.162C16.04 116.642 11.56 111.602 8.28 105.042C5.08 98.4025 3.48 90.5225 3.48 81.4025C3.48 72.2825 5.08 64.4425 8.28 57.8825C11.56 51.2425 16.04 46.2025 21.72 42.7625C27.48 39.2425 34.08 37.4825 41.52 37.4825C48.96 37.4825 55.52 39.2425 61.2 42.7625C66.96 46.2025 71.44 51.2425 74.64 57.8825C77.92 64.4425 79.56 72.2825 79.56 81.4025C79.56 90.5225 77.92 98.4025 74.64 105.042C71.44 111.602 66.96 116.642 61.2 120.162C55.52 123.602 48.96 125.322 41.52 125.322ZM41.52 102.642C47.92 102.642 51.12 95.5625 51.12 81.4025C51.12 67.2425 47.92 60.1625 41.52 60.1625C35.12 60.1625 31.92 67.2425 31.92 81.4025C31.92 95.5625 35.12 102.642 41.52 102.642ZM122.834 39.4025L122.834 123.402H94.5141V60.7625H80.1141L80.1141 39.4025L122.834 39.4025Z" fill="#E3E3E3"/>
</g>
<path d="M81.65 237.602V261.402H76.176V242.09H65.432V261.402H59.958V237.602H81.65ZM104.584 252.324C104.584 252.392 104.55 252.868 104.482 253.752H90.6438C90.8931 254.886 91.4825 255.781 92.4118 256.438C93.3411 257.096 94.4971 257.424 95.8798 257.424C96.8318 257.424 97.6705 257.288 98.3958 257.016C99.1438 256.722 99.8351 256.268 100.47 255.656L103.292 258.716C101.569 260.688 99.0531 261.674 95.7438 261.674C93.6811 261.674 91.8565 261.278 90.2698 260.484C88.6831 259.668 87.4591 258.546 86.5978 257.118C85.7365 255.69 85.3058 254.07 85.3058 252.256C85.3058 250.466 85.7251 248.856 86.5638 247.428C87.4251 245.978 88.5925 244.856 90.0658 244.062C91.5618 243.246 93.2278 242.838 95.0638 242.838C96.8545 242.838 98.4751 243.224 99.9258 243.994C101.376 244.765 102.51 245.876 103.326 247.326C104.164 248.754 104.584 250.42 104.584 252.324ZM95.0978 246.85C93.8965 246.85 92.8878 247.19 92.0718 247.87C91.2558 248.55 90.7571 249.48 90.5758 250.658H99.5858C99.4045 249.502 98.9058 248.584 98.0898 247.904C97.2738 247.202 96.2765 246.85 95.0978 246.85ZM119.087 242.838C120.787 242.838 122.329 243.235 123.711 244.028C125.117 244.799 126.216 245.898 127.009 247.326C127.803 248.732 128.199 250.375 128.199 252.256C128.199 254.138 127.803 255.792 127.009 257.22C126.216 258.626 125.117 259.725 123.711 260.518C122.329 261.289 120.787 261.674 119.087 261.674C116.753 261.674 114.917 260.938 113.579 259.464V267.998H108.275V243.11H113.341V245.218C114.656 243.632 116.571 242.838 119.087 242.838ZM118.169 257.322C119.529 257.322 120.64 256.869 121.501 255.962C122.385 255.033 122.827 253.798 122.827 252.256C122.827 250.715 122.385 249.491 121.501 248.584C120.64 247.655 119.529 247.19 118.169 247.19C116.809 247.19 115.687 247.655 114.803 248.584C113.942 249.491 113.511 250.715 113.511 252.256C113.511 253.798 113.942 255.033 114.803 255.962C115.687 256.869 116.809 257.322 118.169 257.322ZM145.551 251.848C147.704 252.574 148.781 254.024 148.781 256.2C148.781 257.855 148.158 259.136 146.911 260.042C145.664 260.949 143.806 261.402 141.335 261.402H131.577V243.11H140.927C143.216 243.11 145.007 243.53 146.299 244.368C147.591 245.184 148.237 246.34 148.237 247.836C148.237 248.743 147.999 249.548 147.523 250.25C147.07 250.93 146.412 251.463 145.551 251.848ZM136.439 250.624H140.451C142.31 250.624 143.239 249.967 143.239 248.652C143.239 247.36 142.31 246.714 140.451 246.714H136.439V250.624ZM140.893 257.798C142.842 257.798 143.817 257.13 143.817 255.792C143.817 255.09 143.59 254.58 143.137 254.262C142.684 253.922 141.97 253.752 140.995 253.752H136.439V257.798H140.893ZM152.387 243.11H157.657V253.99L166.565 243.11H171.427V261.402H166.157V250.522L157.283 261.402H152.387V243.11ZM192.642 243.11V261.402H187.338V254.602C185.797 255.373 184.097 255.758 182.238 255.758C179.767 255.758 177.897 255.203 176.628 254.092C175.381 252.959 174.758 251.214 174.758 248.856V243.11H180.062V248.516C180.062 249.627 180.345 250.432 180.912 250.93C181.501 251.429 182.34 251.678 183.428 251.678C184.811 251.678 186.114 251.384 187.338 250.794V243.11H192.642ZM197.395 243.11H202.665V250.25H210.621V243.11H215.925V261.402H210.621V254.568H202.665V261.402H197.395V243.11ZM230.284 248.958C232.664 248.981 234.466 249.514 235.69 250.556C236.914 251.599 237.526 253.095 237.526 255.044C237.526 257.084 236.835 258.66 235.452 259.77C234.07 260.881 232.109 261.436 229.57 261.436L220.662 261.402V243.11H225.932V248.958H230.284ZM239.498 243.11H244.768V261.402H239.498V243.11ZM229.094 257.662C230.114 257.685 230.896 257.47 231.44 257.016C231.984 256.563 232.256 255.883 232.256 254.976C232.256 254.092 231.984 253.446 231.44 253.038C230.919 252.63 230.137 252.415 229.094 252.392L225.932 252.358V257.662H229.094ZM249.541 243.11H254.811V253.99L263.719 243.11H268.581V261.402H263.311V250.522L254.437 261.402H249.541V243.11ZM258.721 241.138C254.732 241.138 252.726 239.382 252.703 235.868H256.171C256.194 236.662 256.409 237.285 256.817 237.738C257.248 238.169 257.871 238.384 258.687 238.384C259.503 238.384 260.126 238.169 260.557 237.738C261.01 237.285 261.237 236.662 261.237 235.868H264.773C264.75 239.382 262.733 241.138 258.721 241.138ZM289.735 242.838C292.568 242.838 294.744 243.518 296.263 244.878C297.781 246.216 298.541 248.244 298.541 250.964V261.402H293.577V259.124C292.579 260.824 290.721 261.674 288.001 261.674C286.595 261.674 285.371 261.436 284.329 260.96C283.309 260.484 282.527 259.827 281.983 258.988C281.439 258.15 281.167 257.198 281.167 256.132C281.167 254.432 281.801 253.095 283.071 252.12C284.363 251.146 286.346 250.658 289.021 250.658H293.237C293.237 249.502 292.885 248.618 292.183 248.006C291.48 247.372 290.426 247.054 289.021 247.054C288.046 247.054 287.083 247.213 286.131 247.53C285.201 247.825 284.408 248.233 283.751 248.754L281.847 245.048C282.844 244.346 284.034 243.802 285.417 243.416C286.822 243.031 288.261 242.838 289.735 242.838ZM289.327 258.104C290.233 258.104 291.038 257.9 291.741 257.492C292.443 257.062 292.942 256.438 293.237 255.622V253.752H289.599C287.423 253.752 286.335 254.466 286.335 255.894C286.335 256.574 286.595 257.118 287.117 257.526C287.661 257.912 288.397 258.104 289.327 258.104ZM302.808 243.11H308.078V250.25H316.034V243.11H321.338V261.402H316.034V254.568H308.078V261.402H302.808V243.11ZM333.181 242.838C336.015 242.838 338.191 243.518 339.709 244.878C341.228 246.216 341.987 248.244 341.987 250.964V261.402H337.023V259.124C336.026 260.824 334.167 261.674 331.447 261.674C330.042 261.674 328.818 261.436 327.775 260.96C326.755 260.484 325.973 259.827 325.429 258.988C324.885 258.15 324.613 257.198 324.613 256.132C324.613 254.432 325.248 253.095 326.517 252.12C327.809 251.146 329.793 250.658 332.467 250.658H336.683C336.683 249.502 336.332 248.618 335.629 248.006C334.927 247.372 333.873 247.054 332.467 247.054C331.493 247.054 330.529 247.213 329.577 247.53C328.648 247.825 327.855 248.233 327.197 248.754L325.293 245.048C326.291 244.346 327.481 243.802 328.863 243.416C330.269 243.031 331.708 242.838 333.181 242.838ZM332.773 258.104C333.68 258.104 334.485 257.9 335.187 257.492C335.89 257.062 336.389 256.438 336.683 255.622V253.752H333.045C330.869 253.752 329.781 254.466 329.781 255.894C329.781 256.574 330.042 257.118 330.563 257.526C331.107 257.912 331.844 258.104 332.773 258.104ZM363.799 243.11V261.402H358.495V247.462H352.715L352.545 250.692C352.454 253.095 352.228 255.09 351.865 256.676C351.502 258.263 350.913 259.51 350.097 260.416C349.281 261.323 348.148 261.776 346.697 261.776C345.926 261.776 345.008 261.64 343.943 261.368L344.215 257.016C344.578 257.062 344.838 257.084 344.997 257.084C345.79 257.084 346.38 256.801 346.765 256.234C347.173 255.645 347.445 254.908 347.581 254.024C347.717 253.118 347.819 251.928 347.887 250.454L348.159 243.11H363.799ZM368.56 243.11H373.83V253.99L382.738 243.11H387.6V261.402H382.33V250.522L373.456 261.402H368.56V243.11ZM404.058 251.882C405.146 252.222 405.985 252.744 406.574 253.446C407.186 254.149 407.492 254.988 407.492 255.962C407.492 257.118 407.096 258.138 406.302 259.022C405.509 259.884 404.421 260.552 403.038 261.028C401.656 261.504 400.092 261.742 398.346 261.742C396.918 261.742 395.513 261.595 394.13 261.3C392.748 261.006 391.467 260.564 390.288 259.974L391.716 256.268C393.643 257.198 395.774 257.662 398.108 257.662C399.355 257.662 400.33 257.481 401.032 257.118C401.758 256.733 402.12 256.2 402.12 255.52C402.12 254.931 401.871 254.489 401.372 254.194C400.874 253.877 400.148 253.718 399.196 253.718H395.456V250.42H398.72C399.65 250.42 400.364 250.273 400.862 249.978C401.361 249.684 401.61 249.253 401.61 248.686C401.61 248.097 401.293 247.644 400.658 247.326C400.046 247.009 399.162 246.85 398.006 246.85C396.238 246.85 394.312 247.27 392.226 248.108L390.934 244.436C393.473 243.326 395.944 242.77 398.346 242.77C400.001 242.77 401.474 242.974 402.766 243.382C404.081 243.79 405.112 244.391 405.86 245.184C406.608 245.955 406.982 246.862 406.982 247.904C406.982 248.766 406.722 249.548 406.2 250.25C405.679 250.93 404.965 251.474 404.058 251.882ZM80.052 306.05V314.346H75.122V310.402H62.27V314.346H57.34V306.05H58.088C59.2213 306.028 60.0033 305.359 60.434 304.044C60.8647 302.73 61.1367 300.86 61.25 298.434L61.488 292.11H77.434V306.05H80.052ZM66.044 298.808C65.976 300.667 65.8287 302.186 65.602 303.364C65.398 304.543 65.0013 305.438 64.412 306.05H72.13V296.462H66.146L66.044 298.808ZM90.1558 291.838C92.9892 291.838 95.1652 292.518 96.6838 293.878C98.2025 295.216 98.9618 297.244 98.9618 299.964V310.402H93.9978V308.124C93.0005 309.824 91.1418 310.674 88.4218 310.674C87.0165 310.674 85.7925 310.436 84.7498 309.96C83.7298 309.484 82.9478 308.827 82.4038 307.988C81.8598 307.15 81.5878 306.198 81.5878 305.132C81.5878 303.432 82.2225 302.095 83.4918 301.12C84.7838 300.146 86.7672 299.658 89.4418 299.658H93.6578C93.6578 298.502 93.3065 297.618 92.6038 297.006C91.9012 296.372 90.8472 296.054 89.4418 296.054C88.4672 296.054 87.5038 296.213 86.5518 296.53C85.6225 296.825 84.8292 297.233 84.1718 297.754L82.2678 294.048C83.2652 293.346 84.4552 292.802 85.8378 292.416C87.2432 292.031 88.6825 291.838 90.1558 291.838ZM89.7478 307.104C90.6545 307.104 91.4592 306.9 92.1618 306.492C92.8645 306.062 93.3632 305.438 93.6578 304.622V302.752H90.0198C87.8438 302.752 86.7558 303.466 86.7558 304.894C86.7558 305.574 87.0165 306.118 87.5378 306.526C88.0818 306.912 88.8185 307.104 89.7478 307.104ZM103.229 292.11H108.499V299.25H116.455V292.11H121.759V310.402H116.455V303.568H108.499V310.402H103.229V292.11ZM126.497 292.11H131.767V299.25H139.723V292.11H145.027V310.402H139.723V303.568H131.767V310.402H126.497V292.11ZM159.386 297.958C161.766 297.981 163.568 298.514 164.792 299.556C166.016 300.599 166.628 302.095 166.628 304.044C166.628 306.084 165.937 307.66 164.554 308.77C163.172 309.881 161.211 310.436 158.672 310.436L149.764 310.402V292.11H155.034V297.958H159.386ZM168.6 292.11H173.87V310.402H168.6V292.11ZM158.196 306.662C159.216 306.685 159.998 306.47 160.542 306.016C161.086 305.563 161.358 304.883 161.358 303.976C161.358 303.092 161.086 302.446 160.542 302.038C160.021 301.63 159.239 301.415 158.196 301.392L155.034 301.358V306.662H158.196ZM190.135 310.402L186.123 304.792L181.975 310.402H176.195L183.233 301.188L176.433 292.11H182.383L186.259 297.448L190.237 292.11H195.881L189.081 301.052L196.153 310.402H190.135Z" fill="black"/>
</g>
<path opacity="0.2" d="M219.554 51.4619V147.343C219.554 150.413 217.065 152.902 213.995 152.902C210.925 152.902 208.436 150.413 208.436 147.343V51.4619C208.436 48.3915 210.925 45.9025 213.995 45.9025C217.065 45.9025 219.554 48.3915 219.554 51.4619Z" stroke="#9EA7B3" stroke-width="3"/>
<path opacity="0.2" d="M241.522 51.4619V147.343C241.522 150.413 239.033 152.902 235.963 152.902C232.892 152.902 230.403 150.413 230.403 147.343V51.4619C230.403 48.3915 232.892 45.9025 235.963 45.9025C239.033 45.9025 241.522 48.3915 241.522 51.4619Z" stroke="#9EA7B3" stroke-width="3"/>
<path opacity="0.2" d="M263.486 51.4619V147.343C263.486 150.413 260.997 152.902 257.927 152.902C254.856 152.902 252.367 150.413 252.367 147.343V51.4619C252.367 48.3915 254.856 45.9025 257.927 45.9025C260.997 45.9025 263.486 48.3915 263.486 51.4619Z" stroke="#9EA7B3" stroke-width="3"/>
<path opacity="0.2" d="M285.458 51.4619V147.343C285.458 150.413 282.969 152.902 279.898 152.902C276.828 152.902 274.339 150.413 274.339 147.343V51.4619C274.339 48.3915 276.828 45.9025 279.898 45.9025C282.969 45.9025 285.458 48.3915 285.458 51.4619Z" stroke="#9EA7B3" stroke-width="3"/>
<path opacity="0.2" d="M307.422 51.4619V147.343C307.422 150.413 304.933 152.902 301.862 152.902C298.792 152.902 296.303 150.413 296.303 147.343V51.4619C296.303 48.3915 298.792 45.9025 301.862 45.9025C304.933 45.9025 307.422 48.3915 307.422 51.4619Z" stroke="#9EA7B3" stroke-width="3"/>
<path opacity="0.2" d="M329.385 51.4619V147.343C329.385 150.413 326.896 152.902 323.826 152.902C320.756 152.902 318.267 150.413 318.267 147.343V51.4619C318.267 48.3915 320.756 45.9025 323.826 45.9025C326.896 45.9025 329.385 48.3915 329.385 51.4619Z" stroke="#9EA7B3" stroke-width="3"/>
<path opacity="0.2" d="M351.35 51.4619V147.343C351.35 150.413 348.861 152.902 345.791 152.902C342.72 152.902 340.231 150.413 340.231 147.343V51.4619C340.231 48.3915 342.72 45.9025 345.791 45.9025C348.861 45.9025 351.35 48.3915 351.35 51.4619Z" stroke="#9EA7B3" stroke-width="3"/>
<path opacity="0.2" d="M373.324 51.4619V147.343C373.324 150.413 370.835 152.902 367.764 152.902C364.694 152.902 362.205 150.413 362.205 147.343V51.4619C362.205 48.3915 364.694 45.9025 367.764 45.9025C370.835 45.9025 373.324 48.3915 373.324 51.4619Z" stroke="#9EA7B3" stroke-width="3"/>
<path opacity="0.2" d="M395.289 51.4619V147.343C395.289 150.413 392.8 152.902 389.729 152.902C386.659 152.902 384.17 150.413 384.17 147.343V51.4619C384.17 48.3915 386.659 45.9025 389.729 45.9025C392.8 45.9025 395.289 48.3915 395.289 51.4619Z" stroke="#9EA7B3" stroke-width="3"/>
<path opacity="0.2" d="M417.254 51.4619V147.343C417.254 150.413 414.765 152.902 411.694 152.902C408.624 152.902 406.135 150.413 406.135 147.343V51.4619C406.135 48.3915 408.624 45.9025 411.694 45.9025C414.765 45.9025 417.254 48.3915 417.254 51.4619Z" stroke="#9EA7B3" stroke-width="3"/>
<path d="M219.554 128.061V147.325C219.554 150.396 217.065 152.885 213.995 152.885C210.925 152.885 208.436 150.396 208.436 147.325V128.061C208.436 124.991 210.925 122.502 213.995 122.502C217.065 122.502 219.554 124.991 219.554 128.061Z" stroke="#C81F56" stroke-width="3"/>
<path d="M241.522 100.263V147.33C241.522 150.401 239.033 152.89 235.963 152.89C232.892 152.89 230.403 150.401 230.403 147.33V100.263C230.403 97.1923 232.892 94.7032 235.963 94.7032C239.033 94.7032 241.522 97.1923 241.522 100.263Z" stroke="#FE840E" stroke-width="3"/>
<path d="M263.486 63.6753V147.341C263.486 150.411 260.997 152.9 257.927 152.9C254.856 152.9 252.367 150.411 252.367 147.341V63.6753C252.367 60.6049 254.856 58.1158 257.927 58.1158C260.997 58.1158 263.486 60.6049 263.486 63.6753Z" stroke="#FEB447" stroke-width="3"/>
<path d="M285.457 128.061V147.325C285.457 150.396 282.968 152.885 279.897 152.885C276.827 152.885 274.338 150.396 274.338 147.325V128.061C274.338 124.991 276.827 122.502 279.897 122.502C282.968 122.502 285.457 124.991 285.457 128.061Z" stroke="#FE840E" stroke-width="3"/>
<path d="M307.422 108.36V147.341C307.422 150.412 304.933 152.901 301.862 152.901C298.792 152.901 296.303 150.412 296.303 147.341V108.36C296.303 105.289 298.792 102.8 301.862 102.8C304.933 102.8 307.422 105.289 307.422 108.36Z" stroke="#C81F56" stroke-width="3"/>
<path d="M329.386 63.6753V147.341C329.386 150.411 326.897 152.9 323.827 152.9C320.757 152.9 318.268 150.411 318.268 147.341V63.6753C318.268 60.6049 320.757 58.1158 323.827 58.1158C326.897 58.1158 329.386 60.6049 329.386 63.6753Z" stroke="#FE840E" stroke-width="3"/>
<path d="M351.35 131.109V147.331C351.35 150.401 348.861 152.89 345.791 152.89C342.72 152.89 340.231 150.401 340.231 147.331V131.109C340.231 128.038 342.72 125.549 345.791 125.549C348.861 125.549 351.35 128.038 351.35 131.109Z" stroke="#FEB447" stroke-width="3"/>
<path d="M373.324 81.7539V147.325C373.324 150.396 370.835 152.885 367.764 152.885C364.694 152.885 362.205 150.396 362.205 147.325V81.7539C362.205 78.6835 364.694 76.1945 367.764 76.1945C370.835 76.1945 373.324 78.6835 373.324 81.7539Z" stroke="#FE840E" stroke-width="3"/>
<path d="M395.289 108.36V147.341C395.289 150.412 392.8 152.901 389.729 152.901C386.659 152.901 384.17 150.412 384.17 147.341V108.36C384.17 105.289 386.659 102.8 389.729 102.8C392.8 102.8 395.289 105.289 395.289 108.36Z" stroke="#C81F56" stroke-width="3"/>
<path d="M417.254 128.061V147.325C417.254 150.396 414.765 152.885 411.694 152.885C408.624 152.885 406.135 150.396 406.135 147.325V128.061C406.135 124.991 408.624 122.502 411.694 122.502C414.765 122.502 417.254 124.991 417.254 128.061Z" stroke="#FE840E" stroke-width="3"/>
<defs>
<filter id="filter0_d" x="0" y="0.402466" width="483" height="378" filterUnits="userSpaceOnUse" color-interpolation-filters="sRGB">
<feFlood flood-opacity="0" result="BackgroundImageFix"/>
<feColorMatrix in="SourceAlpha" type="matrix" values="0 0 0 0 0 0 0 0 0 0 0 0 0 0 0 0 0 0 127 0"/>
<feOffset dy="8"/>
<feGaussianBlur stdDeviation="7.5"/>
<feColorMatrix type="matrix" values="0 0 0 0 0 0 0 0 0 0 0 0 0 0 0 0 0 0 0.1 0"/>
<feBlend mode="normal" in2="BackgroundImageFix" result="effect1_dropShadow"/>
<feBlend mode="normal" in="SourceGraphic" in2="effect1_dropShadow" result="shape"/>
</filter>
<radialGradient id="paint0_radial" cx="0" cy="0" r="1" gradientUnits="userSpaceOnUse" gradientTransform="translate(332.5 169.402) rotate(180) scale(218 283.776)">
<stop stop-color="white" stop-opacity="0"/>
<stop offset="1" stop-color="white"/>
</radialGradient>
</defs>
</svg>
