<svg width="483" height="379" viewBox="0 0 483 379" fill="none" xmlns="http://www.w3.org/2000/svg">
<g filter="url(#filter0_d)">
<mask id="mask0" mask-type="alpha" maskUnits="userSpaceOnUse" x="15" y="7" width="453" height="349">
<rect x="15" y="7.40234" width="453" height="348" rx="20" fill="#FE840E"/>
</mask>
<g mask="url(#mask0)">
<rect x="15" y="7.40234" width="453" height="348" fill="white"/>
<circle cx="110.5" cy="9.90234" r="1.5" fill="#E3E3E3"/>
<circle cx="128.5" cy="9.90234" r="1.5" fill="#E3E3E3"/>
<circle cx="146.5" cy="9.90234" r="1.5" fill="#E3E3E3"/>
<circle cx="164.5" cy="9.90234" r="1.5" fill="#E3E3E3"/>
<circle cx="182.5" cy="9.90234" r="1.5" fill="#E3E3E3"/>
<circle cx="200.5" cy="9.90234" r="1.5" fill="#E3E3E3"/>
<circle cx="218.5" cy="9.90234" r="1.5" fill="#E3E3E3"/>
<circle cx="236.5" cy="9.90234" r="1.5" fill="#E3E3E3"/>
<circle cx="254.5" cy="9.90234" r="1.5" fill="#E3E3E3"/>
<circle cx="272.5" cy="9.90234" r="1.5" fill="#E3E3E3"/>
<circle cx="290.5" cy="9.90234" r="1.5" fill="#E3E3E3"/>
<circle cx="308.5" cy="9.90234" r="1.5" fill="#E3E3E3"/>
<circle cx="326.5" cy="9.90234" r="1.5" fill="#E3E3E3"/>
<circle cx="344.5" cy="9.90234" r="1.5" fill="#E3E3E3"/>
<circle cx="362.5" cy="9.90234" r="1.5" fill="#E3E3E3"/>
<circle cx="380.5" cy="9.90234" r="1.5" fill="#E3E3E3"/>
<circle cx="398.5" cy="9.90234" r="1.5" fill="#E3E3E3"/>
<circle cx="416.5" cy="9.90234" r="1.5" fill="#E3E3E3"/>
<circle cx="434.5" cy="9.90234" r="1.5" fill="#E3E3E3"/>
<circle cx="452.5" cy="9.90234" r="1.5" fill="#E3E3E3"/>
<circle cx="110.5" cy="27.9023" r="1.5" fill="#E3E3E3"/>
<circle cx="128.5" cy="27.9023" r="1.5" fill="#E3E3E3"/>
<circle cx="146.5" cy="27.9023" r="1.5" fill="#E3E3E3"/>
<circle cx="164.5" cy="27.9023" r="1.5" fill="#E3E3E3"/>
<circle cx="182.5" cy="27.9023" r="1.5" fill="#E3E3E3"/>
<circle cx="200.5" cy="27.9023" r="1.5" fill="#E3E3E3"/>
<circle cx="218.5" cy="27.9023" r="1.5" fill="#E3E3E3"/>
<circle cx="236.5" cy="27.9023" r="1.5" fill="#E3E3E3"/>
<circle cx="254.5" cy="27.9023" r="1.5" fill="#E3E3E3"/>
<circle cx="272.5" cy="27.9023" r="1.5" fill="#E3E3E3"/>
<circle cx="290.5" cy="27.9023" r="1.5" fill="#E3E3E3"/>
<circle cx="308.5" cy="27.9023" r="1.5" fill="#E3E3E3"/>
<circle cx="326.5" cy="27.9023" r="1.5" fill="#E3E3E3"/>
<circle cx="344.5" cy="27.9023" r="1.5" fill="#E3E3E3"/>
<circle cx="362.5" cy="27.9023" r="1.5" fill="#E3E3E3"/>
<circle cx="380.5" cy="27.9023" r="1.5" fill="#E3E3E3"/>
<circle cx="398.5" cy="27.9023" r="1.5" fill="#E3E3E3"/>
<circle cx="416.5" cy="27.9023" r="1.5" fill="#E3E3E3"/>
<circle cx="434.5" cy="27.9023" r="1.5" fill="#E3E3E3"/>
<circle cx="452.5" cy="27.9023" r="1.5" fill="#E3E3E3"/>
<circle cx="110.5" cy="45.9023" r="1.5" fill="#E3E3E3"/>
<circle cx="128.5" cy="45.9023" r="1.5" fill="#E3E3E3"/>
<circle cx="146.5" cy="45.9023" r="1.5" fill="#E3E3E3"/>
<circle cx="164.5" cy="45.9023" r="1.5" fill="#E3E3E3"/>
<circle cx="182.5" cy="45.9023" r="1.5" fill="#E3E3E3"/>
<circle cx="200.5" cy="45.9023" r="1.5" fill="#E3E3E3"/>
<circle cx="218.5" cy="45.9023" r="1.5" fill="#E3E3E3"/>
<circle cx="236.5" cy="45.9023" r="1.5" fill="#E3E3E3"/>
<circle cx="254.5" cy="45.9023" r="1.5" fill="#E3E3E3"/>
<circle cx="272.5" cy="45.9023" r="1.5" fill="#E3E3E3"/>
<circle cx="290.5" cy="45.9023" r="1.5" fill="#E3E3E3"/>
<circle cx="308.5" cy="45.9023" r="1.5" fill="#E3E3E3"/>
<circle cx="326.5" cy="45.9023" r="1.5" fill="#E3E3E3"/>
<circle cx="344.5" cy="45.9023" r="1.5" fill="#E3E3E3"/>
<circle cx="362.5" cy="45.9023" r="1.5" fill="#E3E3E3"/>
<circle cx="380.5" cy="45.9023" r="1.5" fill="#E3E3E3"/>
<circle cx="398.5" cy="45.9023" r="1.5" fill="#E3E3E3"/>
<circle cx="416.5" cy="45.9023" r="1.5" fill="#E3E3E3"/>
<circle cx="434.5" cy="45.9023" r="1.5" fill="#E3E3E3"/>
<circle cx="452.5" cy="45.9023" r="1.5" fill="#E3E3E3"/>
<circle cx="110.5" cy="63.9023" r="1.5" fill="#E3E3E3"/>
<circle cx="128.5" cy="63.9023" r="1.5" fill="#E3E3E3"/>
<circle cx="146.5" cy="63.9023" r="1.5" fill="#E3E3E3"/>
<circle cx="164.5" cy="63.9023" r="1.5" fill="#E3E3E3"/>
<circle cx="182.5" cy="63.9023" r="1.5" fill="#E3E3E3"/>
<circle cx="200.5" cy="63.9023" r="1.5" fill="#E3E3E3"/>
<circle cx="218.5" cy="63.9023" r="1.5" fill="#E3E3E3"/>
<circle cx="236.5" cy="63.9023" r="1.5" fill="#E3E3E3"/>
<circle cx="254.5" cy="63.9023" r="1.5" fill="#E3E3E3"/>
<circle cx="272.5" cy="63.9023" r="1.5" fill="#E3E3E3"/>
<circle cx="290.5" cy="63.9023" r="1.5" fill="#E3E3E3"/>
<circle cx="308.5" cy="63.9023" r="1.5" fill="#E3E3E3"/>
<circle cx="326.5" cy="63.9023" r="1.5" fill="#E3E3E3"/>
<circle cx="344.5" cy="63.9023" r="1.5" fill="#E3E3E3"/>
<circle cx="362.5" cy="63.9023" r="1.5" fill="#E3E3E3"/>
<circle cx="380.5" cy="63.9023" r="1.5" fill="#E3E3E3"/>
<circle cx="398.5" cy="63.9023" r="1.5" fill="#E3E3E3"/>
<circle cx="416.5" cy="63.9023" r="1.5" fill="#E3E3E3"/>
<circle cx="434.5" cy="63.9023" r="1.5" fill="#E3E3E3"/>
<circle cx="452.5" cy="63.9023" r="1.5" fill="#E3E3E3"/>
<circle cx="110.5" cy="81.9023" r="1.5" fill="#E3E3E3"/>
<circle cx="128.5" cy="81.9023" r="1.5" fill="#E3E3E3"/>
<circle cx="146.5" cy="81.9023" r="1.5" fill="#E3E3E3"/>
<circle cx="164.5" cy="81.9023" r="1.5" fill="#E3E3E3"/>
<circle cx="182.5" cy="81.9023" r="1.5" fill="#E3E3E3"/>
<circle cx="200.5" cy="81.9023" r="1.5" fill="#E3E3E3"/>
<circle cx="218.5" cy="81.9023" r="1.5" fill="#E3E3E3"/>
<circle cx="236.5" cy="81.9023" r="1.5" fill="#E3E3E3"/>
<circle cx="254.5" cy="81.9023" r="1.5" fill="#E3E3E3"/>
<circle cx="272.5" cy="81.9023" r="1.5" fill="#E3E3E3"/>
<circle cx="290.5" cy="81.9023" r="1.5" fill="#E3E3E3"/>
<circle cx="308.5" cy="81.9023" r="1.5" fill="#E3E3E3"/>
<circle cx="326.5" cy="81.9023" r="1.5" fill="#E3E3E3"/>
<circle cx="344.5" cy="81.9023" r="1.5" fill="#E3E3E3"/>
<circle cx="362.5" cy="81.9023" r="1.5" fill="#E3E3E3"/>
<circle cx="380.5" cy="81.9023" r="1.5" fill="#E3E3E3"/>
<circle cx="398.5" cy="81.9023" r="1.5" fill="#E3E3E3"/>
<circle cx="416.5" cy="81.9023" r="1.5" fill="#E3E3E3"/>
<circle cx="434.5" cy="81.9023" r="1.5" fill="#E3E3E3"/>
<circle cx="452.5" cy="81.9023" r="1.5" fill="#E3E3E3"/>
<circle cx="110.5" cy="99.9023" r="1.5" fill="#E3E3E3"/>
<circle cx="128.5" cy="99.9023" r="1.5" fill="#E3E3E3"/>
<circle cx="146.5" cy="99.9023" r="1.5" fill="#E3E3E3"/>
<circle cx="164.5" cy="99.9023" r="1.5" fill="#E3E3E3"/>
<circle cx="182.5" cy="99.9023" r="1.5" fill="#E3E3E3"/>
<circle cx="200.5" cy="99.9023" r="1.5" fill="#E3E3E3"/>
<circle cx="218.5" cy="99.9023" r="1.5" fill="#E3E3E3"/>
<circle cx="236.5" cy="99.9023" r="1.5" fill="#E3E3E3"/>
<circle cx="254.5" cy="99.9023" r="1.5" fill="#E3E3E3"/>
<circle cx="272.5" cy="99.9023" r="1.5" fill="#E3E3E3"/>
<circle cx="290.5" cy="99.9023" r="1.5" fill="#E3E3E3"/>
<circle cx="308.5" cy="99.9023" r="1.5" fill="#E3E3E3"/>
<circle cx="326.5" cy="99.9023" r="1.5" fill="#E3E3E3"/>
<circle cx="344.5" cy="99.9023" r="1.5" fill="#E3E3E3"/>
<circle cx="362.5" cy="99.9023" r="1.5" fill="#E3E3E3"/>
<circle cx="380.5" cy="99.9023" r="1.5" fill="#E3E3E3"/>
<circle cx="398.5" cy="99.9023" r="1.5" fill="#E3E3E3"/>
<circle cx="416.5" cy="99.9023" r="1.5" fill="#E3E3E3"/>
<circle cx="434.5" cy="99.9023" r="1.5" fill="#E3E3E3"/>
<circle cx="452.5" cy="99.9023" r="1.5" fill="#E3E3E3"/>
<circle cx="110.5" cy="117.902" r="1.5" fill="#E3E3E3"/>
<circle cx="128.5" cy="117.902" r="1.5" fill="#E3E3E3"/>
<circle cx="146.5" cy="117.902" r="1.5" fill="#E3E3E3"/>
<circle cx="164.5" cy="117.902" r="1.5" fill="#E3E3E3"/>
<circle cx="182.5" cy="117.902" r="1.5" fill="#E3E3E3"/>
<circle cx="200.5" cy="117.902" r="1.5" fill="#E3E3E3"/>
<circle cx="218.5" cy="117.902" r="1.5" fill="#E3E3E3"/>
<circle cx="236.5" cy="117.902" r="1.5" fill="#E3E3E3"/>
<circle cx="254.5" cy="117.902" r="1.5" fill="#E3E3E3"/>
<circle cx="272.5" cy="117.902" r="1.5" fill="#E3E3E3"/>
<circle cx="290.5" cy="117.902" r="1.5" fill="#E3E3E3"/>
<circle cx="308.5" cy="117.902" r="1.5" fill="#E3E3E3"/>
<circle cx="326.5" cy="117.902" r="1.5" fill="#E3E3E3"/>
<circle cx="344.5" cy="117.902" r="1.5" fill="#E3E3E3"/>
<circle cx="362.5" cy="117.902" r="1.5" fill="#E3E3E3"/>
<circle cx="380.5" cy="117.902" r="1.5" fill="#E3E3E3"/>
<circle cx="398.5" cy="117.902" r="1.5" fill="#E3E3E3"/>
<circle cx="416.5" cy="117.902" r="1.5" fill="#E3E3E3"/>
<circle cx="434.5" cy="117.902" r="1.5" fill="#E3E3E3"/>
<circle cx="452.5" cy="117.902" r="1.5" fill="#E3E3E3"/>
<circle cx="110.5" cy="135.902" r="1.5" fill="#E3E3E3"/>
<circle cx="128.5" cy="135.902" r="1.5" fill="#E3E3E3"/>
<circle cx="146.5" cy="135.902" r="1.5" fill="#E3E3E3"/>
<circle cx="164.5" cy="135.902" r="1.5" fill="#E3E3E3"/>
<circle cx="182.5" cy="135.902" r="1.5" fill="#E3E3E3"/>
<circle cx="200.5" cy="135.902" r="1.5" fill="#E3E3E3"/>
<circle cx="218.5" cy="135.902" r="1.5" fill="#E3E3E3"/>
<circle cx="236.5" cy="135.902" r="1.5" fill="#E3E3E3"/>
<circle cx="254.5" cy="135.902" r="1.5" fill="#E3E3E3"/>
<circle cx="272.5" cy="135.902" r="1.5" fill="#E3E3E3"/>
<circle cx="290.5" cy="135.902" r="1.5" fill="#E3E3E3"/>
<circle cx="308.5" cy="135.902" r="1.5" fill="#E3E3E3"/>
<circle cx="326.5" cy="135.902" r="1.5" fill="#E3E3E3"/>
<circle cx="344.5" cy="135.902" r="1.5" fill="#E3E3E3"/>
<circle cx="362.5" cy="135.902" r="1.5" fill="#E3E3E3"/>
<circle cx="380.5" cy="135.902" r="1.5" fill="#E3E3E3"/>
<circle cx="398.5" cy="135.902" r="1.5" fill="#E3E3E3"/>
<circle cx="416.5" cy="135.902" r="1.5" fill="#E3E3E3"/>
<circle cx="434.5" cy="135.902" r="1.5" fill="#E3E3E3"/>
<circle cx="452.5" cy="135.902" r="1.5" fill="#E3E3E3"/>
<circle cx="110.5" cy="153.902" r="1.5" fill="#E3E3E3"/>
<circle cx="128.5" cy="153.902" r="1.5" fill="#E3E3E3"/>
<circle cx="146.5" cy="153.902" r="1.5" fill="#E3E3E3"/>
<circle cx="164.5" cy="153.902" r="1.5" fill="#E3E3E3"/>
<circle cx="182.5" cy="153.902" r="1.5" fill="#E3E3E3"/>
<circle cx="200.5" cy="153.902" r="1.5" fill="#E3E3E3"/>
<circle cx="218.5" cy="153.902" r="1.5" fill="#E3E3E3"/>
<circle cx="236.5" cy="153.902" r="1.5" fill="#E3E3E3"/>
<circle cx="254.5" cy="153.902" r="1.5" fill="#E3E3E3"/>
<circle cx="272.5" cy="153.902" r="1.5" fill="#E3E3E3"/>
<circle cx="290.5" cy="153.902" r="1.5" fill="#E3E3E3"/>
<circle cx="308.5" cy="153.902" r="1.5" fill="#E3E3E3"/>
<circle cx="326.5" cy="153.902" r="1.5" fill="#E3E3E3"/>
<circle cx="344.5" cy="153.902" r="1.5" fill="#E3E3E3"/>
<circle cx="362.5" cy="153.902" r="1.5" fill="#E3E3E3"/>
<circle cx="380.5" cy="153.902" r="1.5" fill="#E3E3E3"/>
<circle cx="398.5" cy="153.902" r="1.5" fill="#E3E3E3"/>
<circle cx="416.5" cy="153.902" r="1.5" fill="#E3E3E3"/>
<circle cx="434.5" cy="153.902" r="1.5" fill="#E3E3E3"/>
<circle cx="452.5" cy="153.902" r="1.5" fill="#E3E3E3"/>
<circle cx="110.5" cy="171.902" r="1.5" fill="#E3E3E3"/>
<circle cx="128.5" cy="171.902" r="1.5" fill="#E3E3E3"/>
<circle cx="146.5" cy="171.902" r="1.5" fill="#E3E3E3"/>
<circle cx="164.5" cy="171.902" r="1.5" fill="#E3E3E3"/>
<circle cx="182.5" cy="171.902" r="1.5" fill="#E3E3E3"/>
<circle cx="200.5" cy="171.902" r="1.5" fill="#E3E3E3"/>
<circle cx="218.5" cy="171.902" r="1.5" fill="#E3E3E3"/>
<circle cx="236.5" cy="171.902" r="1.5" fill="#E3E3E3"/>
<circle cx="254.5" cy="171.902" r="1.5" fill="#E3E3E3"/>
<circle cx="272.5" cy="171.902" r="1.5" fill="#E3E3E3"/>
<circle cx="290.5" cy="171.902" r="1.5" fill="#E3E3E3"/>
<circle cx="308.5" cy="171.902" r="1.5" fill="#E3E3E3"/>
<circle cx="326.5" cy="171.902" r="1.5" fill="#E3E3E3"/>
<circle cx="344.5" cy="171.902" r="1.5" fill="#E3E3E3"/>
<circle cx="362.5" cy="171.902" r="1.5" fill="#E3E3E3"/>
<circle cx="380.5" cy="171.902" r="1.5" fill="#E3E3E3"/>
<circle cx="398.5" cy="171.902" r="1.5" fill="#E3E3E3"/>
<circle cx="416.5" cy="171.902" r="1.5" fill="#E3E3E3"/>
<circle cx="434.5" cy="171.902" r="1.5" fill="#E3E3E3"/>
<circle cx="452.5" cy="171.902" r="1.5" fill="#E3E3E3"/>
<circle cx="110.5" cy="189.902" r="1.5" fill="#E3E3E3"/>
<circle cx="128.5" cy="189.902" r="1.5" fill="#E3E3E3"/>
<circle cx="146.5" cy="189.902" r="1.5" fill="#E3E3E3"/>
<circle cx="164.5" cy="189.902" r="1.5" fill="#E3E3E3"/>
<circle cx="182.5" cy="189.902" r="1.5" fill="#E3E3E3"/>
<circle cx="200.5" cy="189.902" r="1.5" fill="#E3E3E3"/>
<circle cx="218.5" cy="189.902" r="1.5" fill="#E3E3E3"/>
<circle cx="236.5" cy="189.902" r="1.5" fill="#E3E3E3"/>
<circle cx="254.5" cy="189.902" r="1.5" fill="#E3E3E3"/>
<circle cx="272.5" cy="189.902" r="1.5" fill="#E3E3E3"/>
<circle cx="290.5" cy="189.902" r="1.5" fill="#E3E3E3"/>
<circle cx="308.5" cy="189.902" r="1.5" fill="#E3E3E3"/>
<circle cx="326.5" cy="189.902" r="1.5" fill="#E3E3E3"/>
<circle cx="344.5" cy="189.902" r="1.5" fill="#E3E3E3"/>
<circle cx="362.5" cy="189.902" r="1.5" fill="#E3E3E3"/>
<circle cx="380.5" cy="189.902" r="1.5" fill="#E3E3E3"/>
<circle cx="398.5" cy="189.902" r="1.5" fill="#E3E3E3"/>
<circle cx="416.5" cy="189.902" r="1.5" fill="#E3E3E3"/>
<circle cx="434.5" cy="189.902" r="1.5" fill="#E3E3E3"/>
<circle cx="452.5" cy="189.902" r="1.5" fill="#E3E3E3"/>
<circle cx="110.5" cy="207.902" r="1.5" fill="#E3E3E3"/>
<circle cx="128.5" cy="207.902" r="1.5" fill="#E3E3E3"/>
<circle cx="146.5" cy="207.902" r="1.5" fill="#E3E3E3"/>
<circle cx="164.5" cy="207.902" r="1.5" fill="#E3E3E3"/>
<circle cx="182.5" cy="207.902" r="1.5" fill="#E3E3E3"/>
<circle cx="200.5" cy="207.902" r="1.5" fill="#E3E3E3"/>
<circle cx="218.5" cy="207.902" r="1.5" fill="#E3E3E3"/>
<circle cx="236.5" cy="207.902" r="1.5" fill="#E3E3E3"/>
<circle cx="254.5" cy="207.902" r="1.5" fill="#E3E3E3"/>
<circle cx="272.5" cy="207.902" r="1.5" fill="#E3E3E3"/>
<circle cx="290.5" cy="207.902" r="1.5" fill="#E3E3E3"/>
<circle cx="308.5" cy="207.902" r="1.5" fill="#E3E3E3"/>
<circle cx="326.5" cy="207.902" r="1.5" fill="#E3E3E3"/>
<circle cx="344.5" cy="207.902" r="1.5" fill="#E3E3E3"/>
<circle cx="362.5" cy="207.902" r="1.5" fill="#E3E3E3"/>
<circle cx="380.5" cy="207.902" r="1.5" fill="#E3E3E3"/>
<circle cx="398.5" cy="207.902" r="1.5" fill="#E3E3E3"/>
<circle cx="416.5" cy="207.902" r="1.5" fill="#E3E3E3"/>
<circle cx="434.5" cy="207.902" r="1.5" fill="#E3E3E3"/>
<circle cx="452.5" cy="207.902" r="1.5" fill="#E3E3E3"/>
<circle cx="110.5" cy="225.902" r="1.5" fill="#E3E3E3"/>
<circle cx="128.5" cy="225.902" r="1.5" fill="#E3E3E3"/>
<circle cx="146.5" cy="225.902" r="1.5" fill="#E3E3E3"/>
<circle cx="164.5" cy="225.902" r="1.5" fill="#E3E3E3"/>
<circle cx="182.5" cy="225.902" r="1.5" fill="#E3E3E3"/>
<circle cx="200.5" cy="225.902" r="1.5" fill="#E3E3E3"/>
<circle cx="218.5" cy="225.902" r="1.5" fill="#E3E3E3"/>
<circle cx="236.5" cy="225.902" r="1.5" fill="#E3E3E3"/>
<circle cx="254.5" cy="225.902" r="1.5" fill="#E3E3E3"/>
<circle cx="272.5" cy="225.902" r="1.5" fill="#E3E3E3"/>
<circle cx="290.5" cy="225.902" r="1.5" fill="#E3E3E3"/>
<circle cx="308.5" cy="225.902" r="1.5" fill="#E3E3E3"/>
<circle cx="326.5" cy="225.902" r="1.5" fill="#E3E3E3"/>
<circle cx="344.5" cy="225.902" r="1.5" fill="#E3E3E3"/>
<circle cx="362.5" cy="225.902" r="1.5" fill="#E3E3E3"/>
<circle cx="380.5" cy="225.902" r="1.5" fill="#E3E3E3"/>
<circle cx="398.5" cy="225.902" r="1.5" fill="#E3E3E3"/>
<circle cx="416.5" cy="225.902" r="1.5" fill="#E3E3E3"/>
<circle cx="434.5" cy="225.902" r="1.5" fill="#E3E3E3"/>
<circle cx="452.5" cy="225.902" r="1.5" fill="#E3E3E3"/>
<circle cx="110.5" cy="243.902" r="1.5" fill="#E3E3E3"/>
<circle cx="128.5" cy="243.902" r="1.5" fill="#E3E3E3"/>
<circle cx="146.5" cy="243.902" r="1.5" fill="#E3E3E3"/>
<circle cx="164.5" cy="243.902" r="1.5" fill="#E3E3E3"/>
<circle cx="182.5" cy="243.902" r="1.5" fill="#E3E3E3"/>
<circle cx="200.5" cy="243.902" r="1.5" fill="#E3E3E3"/>
<circle cx="218.5" cy="243.902" r="1.5" fill="#E3E3E3"/>
<circle cx="236.5" cy="243.902" r="1.5" fill="#E3E3E3"/>
<circle cx="254.5" cy="243.902" r="1.5" fill="#E3E3E3"/>
<circle cx="272.5" cy="243.902" r="1.5" fill="#E3E3E3"/>
<circle cx="290.5" cy="243.902" r="1.5" fill="#E3E3E3"/>
<circle cx="308.5" cy="243.902" r="1.5" fill="#E3E3E3"/>
<circle cx="326.5" cy="243.902" r="1.5" fill="#E3E3E3"/>
<circle cx="344.5" cy="243.902" r="1.5" fill="#E3E3E3"/>
<circle cx="362.5" cy="243.902" r="1.5" fill="#E3E3E3"/>
<circle cx="380.5" cy="243.902" r="1.5" fill="#E3E3E3"/>
<circle cx="398.5" cy="243.902" r="1.5" fill="#E3E3E3"/>
<circle cx="416.5" cy="243.902" r="1.5" fill="#E3E3E3"/>
<circle cx="434.5" cy="243.902" r="1.5" fill="#E3E3E3"/>
<circle cx="452.5" cy="243.902" r="1.5" fill="#E3E3E3"/>
<circle cx="110.5" cy="261.902" r="1.5" fill="#E3E3E3"/>
<circle cx="128.5" cy="261.902" r="1.5" fill="#E3E3E3"/>
<circle cx="146.5" cy="261.902" r="1.5" fill="#E3E3E3"/>
<circle cx="164.5" cy="261.902" r="1.5" fill="#E3E3E3"/>
<circle cx="182.5" cy="261.902" r="1.5" fill="#E3E3E3"/>
<circle cx="200.5" cy="261.902" r="1.5" fill="#E3E3E3"/>
<circle cx="218.5" cy="261.902" r="1.5" fill="#E3E3E3"/>
<circle cx="236.5" cy="261.902" r="1.5" fill="#E3E3E3"/>
<circle cx="254.5" cy="261.902" r="1.5" fill="#E3E3E3"/>
<circle cx="272.5" cy="261.902" r="1.5" fill="#E3E3E3"/>
<circle cx="290.5" cy="261.902" r="1.5" fill="#E3E3E3"/>
<circle cx="308.5" cy="261.902" r="1.5" fill="#E3E3E3"/>
<circle cx="326.5" cy="261.902" r="1.5" fill="#E3E3E3"/>
<circle cx="344.5" cy="261.902" r="1.5" fill="#E3E3E3"/>
<circle cx="362.5" cy="261.902" r="1.5" fill="#E3E3E3"/>
<circle cx="380.5" cy="261.902" r="1.5" fill="#E3E3E3"/>
<circle cx="398.5" cy="261.902" r="1.5" fill="#E3E3E3"/>
<circle cx="416.5" cy="261.902" r="1.5" fill="#E3E3E3"/>
<circle cx="434.5" cy="261.902" r="1.5" fill="#E3E3E3"/>
<circle cx="452.5" cy="261.902" r="1.5" fill="#E3E3E3"/>
<circle cx="110.5" cy="279.902" r="1.5" fill="#E3E3E3"/>
<circle cx="128.5" cy="279.902" r="1.5" fill="#E3E3E3"/>
<circle cx="146.5" cy="279.902" r="1.5" fill="#E3E3E3"/>
<circle cx="164.5" cy="279.902" r="1.5" fill="#E3E3E3"/>
<circle cx="182.5" cy="279.902" r="1.5" fill="#E3E3E3"/>
<circle cx="200.5" cy="279.902" r="1.5" fill="#E3E3E3"/>
<circle cx="218.5" cy="279.902" r="1.5" fill="#E3E3E3"/>
<circle cx="236.5" cy="279.902" r="1.5" fill="#E3E3E3"/>
<circle cx="254.5" cy="279.902" r="1.5" fill="#E3E3E3"/>
<circle cx="272.5" cy="279.902" r="1.5" fill="#E3E3E3"/>
<circle cx="290.5" cy="279.902" r="1.5" fill="#E3E3E3"/>
<circle cx="308.5" cy="279.902" r="1.5" fill="#E3E3E3"/>
<circle cx="326.5" cy="279.902" r="1.5" fill="#E3E3E3"/>
<circle cx="344.5" cy="279.902" r="1.5" fill="#E3E3E3"/>
<circle cx="362.5" cy="279.902" r="1.5" fill="#E3E3E3"/>
<circle cx="380.5" cy="279.902" r="1.5" fill="#E3E3E3"/>
<circle cx="398.5" cy="279.902" r="1.5" fill="#E3E3E3"/>
<circle cx="416.5" cy="279.902" r="1.5" fill="#E3E3E3"/>
<circle cx="434.5" cy="279.902" r="1.5" fill="#E3E3E3"/>
<circle cx="452.5" cy="279.902" r="1.5" fill="#E3E3E3"/>
<circle cx="110.5" cy="297.902" r="1.5" fill="#E3E3E3"/>
<circle cx="128.5" cy="297.902" r="1.5" fill="#E3E3E3"/>
<circle cx="146.5" cy="297.902" r="1.5" fill="#E3E3E3"/>
<circle cx="164.5" cy="297.902" r="1.5" fill="#E3E3E3"/>
<circle cx="182.5" cy="297.902" r="1.5" fill="#E3E3E3"/>
<circle cx="200.5" cy="297.902" r="1.5" fill="#E3E3E3"/>
<circle cx="218.5" cy="297.902" r="1.5" fill="#E3E3E3"/>
<circle cx="236.5" cy="297.902" r="1.5" fill="#E3E3E3"/>
<circle cx="254.5" cy="297.902" r="1.5" fill="#E3E3E3"/>
<circle cx="272.5" cy="297.902" r="1.5" fill="#E3E3E3"/>
<circle cx="290.5" cy="297.902" r="1.5" fill="#E3E3E3"/>
<circle cx="308.5" cy="297.902" r="1.5" fill="#E3E3E3"/>
<circle cx="326.5" cy="297.902" r="1.5" fill="#E3E3E3"/>
<circle cx="344.5" cy="297.902" r="1.5" fill="#E3E3E3"/>
<circle cx="362.5" cy="297.902" r="1.5" fill="#E3E3E3"/>
<circle cx="380.5" cy="297.902" r="1.5" fill="#E3E3E3"/>
<circle cx="398.5" cy="297.902" r="1.5" fill="#E3E3E3"/>
<circle cx="416.5" cy="297.902" r="1.5" fill="#E3E3E3"/>
<circle cx="434.5" cy="297.902" r="1.5" fill="#E3E3E3"/>
<circle cx="452.5" cy="297.902" r="1.5" fill="#E3E3E3"/>
<circle cx="110.5" cy="315.902" r="1.5" fill="#E3E3E3"/>
<circle cx="128.5" cy="315.902" r="1.5" fill="#E3E3E3"/>
<circle cx="146.5" cy="315.902" r="1.5" fill="#E3E3E3"/>
<circle cx="164.5" cy="315.902" r="1.5" fill="#E3E3E3"/>
<circle cx="182.5" cy="315.902" r="1.5" fill="#E3E3E3"/>
<circle cx="200.5" cy="315.902" r="1.5" fill="#E3E3E3"/>
<circle cx="218.5" cy="315.902" r="1.5" fill="#E3E3E3"/>
<circle cx="236.5" cy="315.902" r="1.5" fill="#E3E3E3"/>
<circle cx="254.5" cy="315.902" r="1.5" fill="#E3E3E3"/>
<circle cx="272.5" cy="315.902" r="1.5" fill="#E3E3E3"/>
<circle cx="290.5" cy="315.902" r="1.5" fill="#E3E3E3"/>
<circle cx="308.5" cy="315.902" r="1.5" fill="#E3E3E3"/>
<circle cx="326.5" cy="315.902" r="1.5" fill="#E3E3E3"/>
<circle cx="344.5" cy="315.902" r="1.5" fill="#E3E3E3"/>
<circle cx="362.5" cy="315.902" r="1.5" fill="#E3E3E3"/>
<circle cx="380.5" cy="315.902" r="1.5" fill="#E3E3E3"/>
<circle cx="398.5" cy="315.902" r="1.5" fill="#E3E3E3"/>
<circle cx="416.5" cy="315.902" r="1.5" fill="#E3E3E3"/>
<circle cx="434.5" cy="315.902" r="1.5" fill="#E3E3E3"/>
<circle cx="452.5" cy="315.902" r="1.5" fill="#E3E3E3"/>
<circle cx="110.5" cy="333.902" r="1.5" fill="#E3E3E3"/>
<circle cx="128.5" cy="333.902" r="1.5" fill="#E3E3E3"/>
<circle cx="146.5" cy="333.902" r="1.5" fill="#E3E3E3"/>
<circle cx="164.5" cy="333.902" r="1.5" fill="#E3E3E3"/>
<circle cx="182.5" cy="333.902" r="1.5" fill="#E3E3E3"/>
<circle cx="200.5" cy="333.902" r="1.5" fill="#E3E3E3"/>
<circle cx="218.5" cy="333.902" r="1.5" fill="#E3E3E3"/>
<circle cx="236.5" cy="333.902" r="1.5" fill="#E3E3E3"/>
<circle cx="254.5" cy="333.902" r="1.5" fill="#E3E3E3"/>
<circle cx="272.5" cy="333.902" r="1.5" fill="#E3E3E3"/>
<circle cx="290.5" cy="333.902" r="1.5" fill="#E3E3E3"/>
<circle cx="308.5" cy="333.902" r="1.5" fill="#E3E3E3"/>
<circle cx="326.5" cy="333.902" r="1.5" fill="#E3E3E3"/>
<circle cx="344.5" cy="333.902" r="1.5" fill="#E3E3E3"/>
<circle cx="362.5" cy="333.902" r="1.5" fill="#E3E3E3"/>
<circle cx="380.5" cy="333.902" r="1.5" fill="#E3E3E3"/>
<circle cx="398.5" cy="333.902" r="1.5" fill="#E3E3E3"/>
<circle cx="416.5" cy="333.902" r="1.5" fill="#E3E3E3"/>
<circle cx="434.5" cy="333.902" r="1.5" fill="#E3E3E3"/>
<circle cx="452.5" cy="333.902" r="1.5" fill="#E3E3E3"/>
<circle cx="110.5" cy="351.902" r="1.5" fill="#E3E3E3"/>
<circle cx="128.5" cy="351.902" r="1.5" fill="#E3E3E3"/>
<circle cx="146.5" cy="351.902" r="1.5" fill="#E3E3E3"/>
<circle cx="164.5" cy="351.902" r="1.5" fill="#E3E3E3"/>
<circle cx="182.5" cy="351.902" r="1.5" fill="#E3E3E3"/>
<circle cx="200.5" cy="351.902" r="1.5" fill="#E3E3E3"/>
<circle cx="218.5" cy="351.902" r="1.5" fill="#E3E3E3"/>
<circle cx="236.5" cy="351.902" r="1.5" fill="#E3E3E3"/>
<circle cx="254.5" cy="351.902" r="1.5" fill="#E3E3E3"/>
<circle cx="272.5" cy="351.902" r="1.5" fill="#E3E3E3"/>
<circle cx="290.5" cy="351.902" r="1.5" fill="#E3E3E3"/>
<circle cx="308.5" cy="351.902" r="1.5" fill="#E3E3E3"/>
<circle cx="326.5" cy="351.902" r="1.5" fill="#E3E3E3"/>
<circle cx="344.5" cy="351.902" r="1.5" fill="#E3E3E3"/>
<circle cx="362.5" cy="351.902" r="1.5" fill="#E3E3E3"/>
<circle cx="380.5" cy="351.902" r="1.5" fill="#E3E3E3"/>
<circle cx="398.5" cy="351.902" r="1.5" fill="#E3E3E3"/>
<circle cx="416.5" cy="351.902" r="1.5" fill="#E3E3E3"/>
<circle cx="434.5" cy="351.902" r="1.5" fill="#E3E3E3"/>
<circle cx="452.5" cy="351.902" r="1.5" fill="#E3E3E3"/>
<rect x="15" y="7.40234" width="453" height="348" fill="url(#paint0_radial)"/>
<path d="M3.43037 299.32C-11.6742 296.608 -24.6847 283.351 -35.2744 268.541C-45.8466 253.756 -53.9739 237.401 -52.1171 222.079C-50.2603 206.757 -38.4063 192.385 -24.1707 183.692C-9.91745 175.024 6.70639 171.968 22.6948 174.217C38.7009 176.49 54.0298 184.06 64.9116 196.588C75.7934 209.115 82.2039 226.617 79.4633 242.401C76.7161 258.227 64.7761 272.33 50.2484 283.305C35.679 294.274 18.5285 302.073 3.43037 299.32Z" fill="#FEB447"/>
<path d="M41.52 125.322C34.08 125.322 27.48 123.602 21.72 120.162C16.04 116.642 11.56 111.602 8.28 105.042C5.08 98.4023 3.48 90.5223 3.48 81.4023C3.48 72.2823 5.08 64.4423 8.28 57.8823C11.56 51.2423 16.04 46.2023 21.72 42.7623C27.48 39.2423 34.08 37.4823 41.52 37.4823C48.96 37.4823 55.52 39.2423 61.2 42.7623C66.96 46.2023 71.44 51.2423 74.64 57.8823C77.92 64.4423 79.56 72.2823 79.56 81.4023C79.56 90.5223 77.92 98.4023 74.64 105.042C71.44 111.602 66.96 116.642 61.2 120.162C55.52 123.602 48.96 125.322 41.52 125.322ZM41.52 102.642C47.92 102.642 51.12 95.5623 51.12 81.4023C51.12 67.2423 47.92 60.1623 41.52 60.1623C35.12 60.1623 31.92 67.2423 31.92 81.4023C31.92 95.5623 35.12 102.642 41.52 102.642ZM129.766 69.0423C134.886 69.0423 139.646 70.1623 144.046 72.4023C148.446 74.6423 151.966 77.8023 154.606 81.8823C157.246 85.9623 158.566 90.6423 158.566 95.9223C158.566 101.762 157.046 106.922 154.006 111.402C151.046 115.882 146.966 119.322 141.766 121.722C136.566 124.122 130.806 125.322 124.486 125.322C116.406 125.322 109.326 123.762 103.246 120.642C97.2459 117.522 92.5659 112.882 89.2059 106.722C85.8459 100.562 84.1659 93.0023 84.1659 84.0423C84.1659 74.4423 86.0859 66.1223 89.9259 59.0823C93.8459 52.0423 99.2859 46.6823 106.246 43.0023C113.286 39.3223 121.446 37.4823 130.726 37.4823C135.766 37.4823 140.566 38.0823 145.126 39.2823C149.686 40.4023 153.566 42.0023 156.766 44.0823L146.566 63.8823C142.406 60.9223 137.326 59.4423 131.326 59.4423C126.446 59.4423 122.406 60.6823 119.206 63.1623C116.086 65.5623 114.046 69.0823 113.086 73.7223C117.486 70.6023 123.046 69.0423 129.766 69.0423ZM122.566 105.762C125.126 105.762 127.206 105.002 128.806 103.482C130.406 101.962 131.206 99.8823 131.206 97.2423C131.206 94.6023 130.406 92.5223 128.806 91.0023C127.206 89.4023 125.126 88.6023 122.566 88.6023C120.006 88.6023 117.926 89.4023 116.326 91.0023C114.726 92.5223 113.926 94.6023 113.926 97.2423C113.926 99.8823 114.726 101.962 116.326 103.482C117.926 105.002 120.006 105.762 122.566 105.762Z" fill="#E3E3E3"/>
</g>
<path d="M81.65 237.602V261.402H76.176V242.09H65.432V261.402H59.958V237.602H81.65ZM95.3698 261.674C93.4431 261.674 91.7091 261.278 90.1678 260.484C88.6491 259.668 87.4591 258.546 86.5978 257.118C85.7365 255.69 85.3058 254.07 85.3058 252.256C85.3058 250.443 85.7365 248.822 86.5978 247.394C87.4591 245.966 88.6491 244.856 90.1678 244.062C91.7091 243.246 93.4431 242.838 95.3698 242.838C97.2965 242.838 99.0191 243.246 100.538 244.062C102.056 244.856 103.246 245.966 104.108 247.394C104.969 248.822 105.4 250.443 105.4 252.256C105.4 254.07 104.969 255.69 104.108 257.118C103.246 258.546 102.056 259.668 100.538 260.484C99.0191 261.278 97.2965 261.674 95.3698 261.674ZM95.3698 257.322C96.7298 257.322 97.8405 256.869 98.7018 255.962C99.5858 255.033 100.028 253.798 100.028 252.256C100.028 250.715 99.5858 249.491 98.7018 248.584C97.8405 247.655 96.7298 247.19 95.3698 247.19C94.0098 247.19 92.8878 247.655 92.0038 248.584C91.1198 249.491 90.6778 250.715 90.6778 252.256C90.6778 253.798 91.1198 255.033 92.0038 255.962C92.8878 256.869 94.0098 257.322 95.3698 257.322ZM108.708 243.11H113.978V253.99L122.886 243.11H127.748V261.402H122.478V250.522L113.604 261.402H108.708V243.11ZM141.211 261.674C139.261 261.674 137.505 261.278 135.941 260.484C134.399 259.668 133.187 258.546 132.303 257.118C131.441 255.69 131.011 254.07 131.011 252.256C131.011 250.443 131.441 248.822 132.303 247.394C133.187 245.966 134.399 244.856 135.941 244.062C137.505 243.246 139.261 242.838 141.211 242.838C143.137 242.838 144.815 243.246 146.243 244.062C147.693 244.856 148.747 246 149.405 247.496L145.291 249.706C144.339 248.029 142.967 247.19 141.177 247.19C139.794 247.19 138.649 247.644 137.743 248.55C136.836 249.457 136.383 250.692 136.383 252.256C136.383 253.82 136.836 255.056 137.743 255.962C138.649 256.869 139.794 257.322 141.177 257.322C142.99 257.322 144.361 256.484 145.291 254.806L149.405 257.05C148.747 258.501 147.693 259.634 146.243 260.45C144.815 261.266 143.137 261.674 141.211 261.674ZM160.346 254.466H157.592V261.402H152.288V243.11H157.592V250.216H160.448L165.412 243.11H171.056L164.664 251.882L171.498 261.402H165.242L160.346 254.466ZM191.755 261.674C189.806 261.674 188.049 261.278 186.485 260.484C184.944 259.668 183.731 258.546 182.847 257.118C181.986 255.69 181.555 254.07 181.555 252.256C181.555 250.443 181.986 248.822 182.847 247.394C183.731 245.966 184.944 244.856 186.485 244.062C188.049 243.246 189.806 242.838 191.755 242.838C193.682 242.838 195.359 243.246 196.787 244.062C198.238 244.856 199.292 246 199.949 247.496L195.835 249.706C194.883 248.029 193.512 247.19 191.721 247.19C190.338 247.19 189.194 247.644 188.287 248.55C187.38 249.457 186.927 250.692 186.927 252.256C186.927 253.82 187.38 255.056 188.287 255.962C189.194 256.869 190.338 257.322 191.721 257.322C193.534 257.322 194.906 256.484 195.835 254.806L199.949 257.05C199.292 258.501 198.238 259.634 196.787 260.45C195.359 261.266 193.682 261.674 191.755 261.674ZM218.134 247.462H211.946V261.402H206.676V247.462H200.488V243.11H218.134V247.462ZM231.399 242.838C233.099 242.838 234.64 243.235 236.023 244.028C237.428 244.799 238.528 245.898 239.321 247.326C240.114 248.732 240.511 250.375 240.511 252.256C240.511 254.138 240.114 255.792 239.321 257.22C238.528 258.626 237.428 259.725 236.023 260.518C234.64 261.289 233.099 261.674 231.399 261.674C229.064 261.674 227.228 260.938 225.891 259.464V267.998H220.587V243.11H225.653V245.218C226.968 243.632 228.883 242.838 231.399 242.838ZM230.481 257.322C231.841 257.322 232.952 256.869 233.813 255.962C234.697 255.033 235.139 253.798 235.139 252.256C235.139 250.715 234.697 249.491 233.813 248.584C232.952 247.655 231.841 247.19 230.481 247.19C229.121 247.19 227.999 247.655 227.115 248.584C226.254 249.491 225.823 250.715 225.823 252.256C225.823 253.798 226.254 255.033 227.115 255.962C227.999 256.869 229.121 257.322 230.481 257.322ZM261.716 243.11L253.454 262.524C252.616 264.632 251.573 266.117 250.326 266.978C249.102 267.84 247.618 268.27 245.872 268.27C244.92 268.27 243.98 268.123 243.05 267.828C242.121 267.534 241.362 267.126 240.772 266.604L242.71 262.83C243.118 263.193 243.583 263.476 244.104 263.68C244.648 263.884 245.181 263.986 245.702 263.986C246.428 263.986 247.017 263.805 247.47 263.442C247.924 263.102 248.332 262.524 248.694 261.708L248.762 261.538L240.84 243.11H246.314L251.448 255.52L256.616 243.11H261.716ZM271.993 254.466H269.239V261.402H263.935V243.11H269.239V250.216H272.095L277.059 243.11H282.703L276.311 251.882L283.145 261.402H276.889L271.993 254.466ZM300.612 247.462H294.424V261.402H289.154V247.462H282.966V243.11H300.612V247.462ZM321.591 243.11L313.329 262.524C312.49 264.632 311.448 266.117 310.201 266.978C308.977 267.84 307.492 268.27 305.747 268.27C304.795 268.27 303.854 268.123 302.925 267.828C301.996 267.534 301.236 267.126 300.647 266.604L302.585 262.83C302.993 263.193 303.458 263.476 303.979 263.68C304.523 263.884 305.056 263.986 305.577 263.986C306.302 263.986 306.892 263.805 307.345 263.442C307.798 263.102 308.206 262.524 308.569 261.708L308.637 261.538L300.715 243.11H306.189L311.323 255.52L316.491 243.11H321.591ZM334.588 242.838C336.288 242.838 337.829 243.235 339.212 244.028C340.617 244.799 341.716 245.898 342.51 247.326C343.303 248.732 343.7 250.375 343.7 252.256C343.7 254.138 343.303 255.792 342.51 257.22C341.716 258.626 340.617 259.725 339.212 260.518C337.829 261.289 336.288 261.674 334.588 261.674C332.253 261.674 330.417 260.938 329.08 259.464V267.998H323.776V243.11H328.842V245.218C330.156 243.632 332.072 242.838 334.588 242.838ZM333.67 257.322C335.03 257.322 336.14 256.869 337.002 255.962C337.886 255.033 338.328 253.798 338.328 252.256C338.328 250.715 337.886 249.491 337.002 248.584C336.14 247.655 335.03 247.19 333.67 247.19C332.31 247.19 331.188 247.655 330.304 248.584C329.442 249.491 329.012 250.715 329.012 252.256C329.012 253.798 329.442 255.033 330.304 255.962C331.188 256.869 332.31 257.322 333.67 257.322ZM356.699 248.958C359.079 248.981 360.881 249.514 362.105 250.556C363.329 251.599 363.941 253.095 363.941 255.044C363.941 257.084 363.25 258.66 361.867 259.77C360.484 260.881 358.524 261.436 355.985 261.436L347.077 261.402V243.11H352.347V248.958H356.699ZM365.913 243.11H371.183V261.402H365.913V243.11ZM355.509 257.662C356.529 257.685 357.311 257.47 357.855 257.016C358.399 256.563 358.671 255.883 358.671 254.976C358.671 254.092 358.399 253.446 357.855 253.038C357.334 252.63 356.552 252.415 355.509 252.392L352.347 252.358V257.662H355.509ZM73.524 300.848C75.6773 301.574 76.754 303.024 76.754 305.2C76.754 306.855 76.1307 308.136 74.884 309.042C73.6373 309.949 71.7787 310.402 69.308 310.402H59.55V292.11H68.9C71.1893 292.11 72.98 292.53 74.272 293.368C75.564 294.184 76.21 295.34 76.21 296.836C76.21 297.743 75.972 298.548 75.496 299.25C75.0427 299.93 74.3853 300.463 73.524 300.848ZM64.412 299.624H68.424C70.2827 299.624 71.212 298.967 71.212 297.652C71.212 296.36 70.2827 295.714 68.424 295.714H64.412V299.624ZM68.866 306.798C70.8153 306.798 71.79 306.13 71.79 304.792C71.79 304.09 71.5633 303.58 71.11 303.262C70.6567 302.922 69.9427 302.752 68.968 302.752H64.412V306.798H68.866ZM110.151 306.05V314.346H105.221V310.402H92.3693V314.346H87.4393V306.05H88.1873C89.3206 306.028 90.1026 305.359 90.5333 304.044C90.964 302.73 91.236 300.86 91.3493 298.434L91.5873 292.11H107.533V306.05H110.151ZM96.1433 298.808C96.0753 300.667 95.928 302.186 95.7013 303.364C95.4973 304.543 95.1006 305.438 94.5113 306.05H102.229V296.462H96.2453L96.1433 298.808ZM120.255 291.838C123.088 291.838 125.264 292.518 126.783 293.878C128.302 295.216 129.061 297.244 129.061 299.964V310.402H124.097V308.124C123.1 309.824 121.241 310.674 118.521 310.674C117.116 310.674 115.892 310.436 114.849 309.96C113.829 309.484 113.047 308.827 112.503 307.988C111.959 307.15 111.687 306.198 111.687 305.132C111.687 303.432 112.322 302.095 113.591 301.12C114.883 300.146 116.866 299.658 119.541 299.658H123.757C123.757 298.502 123.406 297.618 122.703 297.006C122 296.372 120.946 296.054 119.541 296.054C118.566 296.054 117.603 296.213 116.651 296.53C115.722 296.825 114.928 297.233 114.271 297.754L112.367 294.048C113.364 293.346 114.554 292.802 115.937 292.416C117.342 292.031 118.782 291.838 120.255 291.838ZM119.847 307.104C120.754 307.104 121.558 306.9 122.261 306.492C122.964 306.062 123.462 305.438 123.757 304.622V302.752H120.119C117.943 302.752 116.855 303.466 116.855 304.894C116.855 305.574 117.116 306.118 117.637 306.526C118.181 306.912 118.918 307.104 119.847 307.104ZM133.329 292.11H138.599V299.25H146.555V292.11H151.859V310.402H146.555V303.568H138.599V310.402H133.329V292.11ZM156.596 292.11H161.866V299.25H169.822V292.11H175.126V310.402H169.822V303.568H161.866V310.402H156.596V292.11ZM189.486 297.958C191.866 297.981 193.668 298.514 194.892 299.556C196.116 300.599 196.728 302.095 196.728 304.044C196.728 306.084 196.036 307.66 194.654 308.77C193.271 309.881 191.31 310.436 188.772 310.436L179.864 310.402V292.11H185.134V297.958H189.486ZM198.7 292.11H203.97V310.402H198.7V292.11ZM188.296 306.662C189.316 306.685 190.098 306.47 190.642 306.016C191.186 305.563 191.458 304.883 191.458 303.976C191.458 303.092 191.186 302.446 190.642 302.038C190.12 301.63 189.338 301.415 188.296 301.392L185.134 301.358V306.662H188.296ZM220.234 310.402L216.222 304.792L212.074 310.402H206.294L213.332 301.188L206.532 292.11H212.482L216.358 297.448L220.336 292.11H225.98L219.18 301.052L226.252 310.402H220.234Z" fill="black"/>
</g>
<path d="M230.017 45.4023H248.06C250.454 45.4023 252.768 46.2611 254.582 47.8225L313.042 98.1285C314.856 99.6899 317.171 100.549 319.565 100.549H332.722C335.115 100.549 337.43 99.6899 339.244 98.1285L397.704 47.8225C399.518 46.2611 401.833 45.4023 404.227 45.4023H422.27" stroke="#E3E3E3" stroke-width="3" stroke-linecap="round" stroke-linejoin="round"/>
<path d="M422.269 173.402L404.225 173.402C401.832 173.402 399.517 172.544 397.703 170.982L339.243 120.676C337.429 119.115 335.114 118.256 332.721 118.256L319.564 118.256C317.17 118.256 314.855 119.115 313.041 120.676L254.581 170.982C252.767 172.544 250.452 173.402 248.059 173.402L230.016 173.402" stroke="#E3E3E3" stroke-width="3" stroke-linecap="round" stroke-linejoin="round"/>
<circle cx="326.142" cy="109.149" r="2.54743" stroke="#C81F56" stroke-width="3"/>
<circle cx="344.356" cy="109.149" r="2.54743" stroke="#C81F56" stroke-width="3"/>
<circle cx="362.569" cy="109.149" r="2.54743" stroke="#C81F56" stroke-width="3"/>
<circle cx="381.794" cy="109.149" r="2.54743" stroke="#C81F56" stroke-width="3"/>
<circle cx="400.008" cy="109.149" r="2.54743" stroke="#C81F56" stroke-width="3"/>
<circle cx="418.221" cy="109.149" r="2.54743" stroke="#C81F56" stroke-width="3"/>
<circle cx="307.929" cy="109.149" r="2.54743" stroke="#C81F56" stroke-width="3"/>
<circle cx="289.715" cy="109.149" r="2.54743" stroke="#C81F56" stroke-width="3"/>
<circle cx="289.715" cy="93.9714" r="2.54743" stroke="#C81F56" stroke-width="3"/>
<circle cx="289.715" cy="124.327" r="2.54743" stroke="#C81F56" stroke-width="3"/>
<circle cx="270.49" cy="109.15" r="2.54743" stroke="#F06C46" stroke-width="3"/>
<circle cx="270.49" cy="93.9716" r="2.54743" stroke="#F06C46" stroke-width="3"/>
<circle cx="270.49" cy="124.328" r="2.54743" stroke="#F06C46" stroke-width="3"/>
<circle cx="270.49" cy="78.7938" r="2.54743" stroke="#F06C46" stroke-width="3"/>
<circle cx="270.49" cy="139.506" r="2.54743" stroke="#F06C46" stroke-width="3"/>
<circle cx="234.063" cy="109.149" r="2.54743" stroke="#FEB447" stroke-width="3"/>
<circle cx="234.063" cy="93.9713" r="2.54743" stroke="#FEB447" stroke-width="3"/>
<circle cx="234.063" cy="124.327" r="2.54743" stroke="#FEB447" stroke-width="3"/>
<circle cx="234.063" cy="78.7936" r="2.54743" stroke="#FEB447" stroke-width="3"/>
<circle cx="234.063" cy="139.505" r="2.54743" stroke="#FEB447" stroke-width="3"/>
<circle cx="234.064" cy="63.6157" r="2.54743" stroke="#FEB447" stroke-width="3"/>
<circle cx="234.063" cy="154.683" r="2.54743" stroke="#FEB447" stroke-width="3"/>
<circle cx="252.277" cy="109.149" r="2.54743" stroke="#FE840E" stroke-width="3"/>
<circle cx="252.277" cy="93.9713" r="2.54743" stroke="#FE840E" stroke-width="3"/>
<circle cx="252.277" cy="124.327" r="2.54743" stroke="#FE840E" stroke-width="3"/>
<circle cx="252.277" cy="78.7936" r="2.54743" stroke="#FE840E" stroke-width="3"/>
<circle cx="252.277" cy="139.505" r="2.54743" stroke="#FE840E" stroke-width="3"/>
<circle cx="252.277" cy="63.6157" r="2.54743" stroke="#FE840E" stroke-width="3"/>
<circle cx="252.277" cy="154.683" r="2.54743" stroke="#FE840E" stroke-width="3"/>
<defs>
<filter id="filter0_d" x="0" y="0.402344" width="483" height="378" filterUnits="userSpaceOnUse" color-interpolation-filters="sRGB">
<feFlood flood-opacity="0" result="BackgroundImageFix"/>
<feColorMatrix in="SourceAlpha" type="matrix" values="0 0 0 0 0 0 0 0 0 0 0 0 0 0 0 0 0 0 127 0"/>
<feOffset dy="8"/>
<feGaussianBlur stdDeviation="7.5"/>
<feColorMatrix type="matrix" values="0 0 0 0 0 0 0 0 0 0 0 0 0 0 0 0 0 0 0.1 0"/>
<feBlend mode="normal" in2="BackgroundImageFix" result="effect1_dropShadow"/>
<feBlend mode="normal" in="SourceGraphic" in2="effect1_dropShadow" result="shape"/>
</filter>
<radialGradient id="paint0_radial" cx="0" cy="0" r="1" gradientUnits="userSpaceOnUse" gradientTransform="translate(332.5 169.402) rotate(180) scale(218 283.776)">
<stop stop-color="white" stop-opacity="0"/>
<stop offset="1" stop-color="white"/>
</radialGradient>
</defs>
</svg>
