<svg width="483" height="379" viewBox="0 0 483 379" fill="none" xmlns="http://www.w3.org/2000/svg">
<g filter="url(#filter0_d)">
<mask id="mask0" mask-type="alpha" maskUnits="userSpaceOnUse" x="15" y="7" width="453" height="349">
<rect x="15" y="7.40247" width="453" height="348" rx="20" fill="#FE840E"/>
</mask>
<g mask="url(#mask0)">
<rect x="15" y="7.40247" width="453" height="348" fill="white"/>
<circle cx="110.5" cy="9.90247" r="1.5" fill="#E3E3E3"/>
<circle cx="128.5" cy="9.90247" r="1.5" fill="#E3E3E3"/>
<circle cx="146.5" cy="9.90247" r="1.5" fill="#E3E3E3"/>
<circle cx="164.5" cy="9.90247" r="1.5" fill="#E3E3E3"/>
<circle cx="182.5" cy="9.90247" r="1.5" fill="#E3E3E3"/>
<circle cx="200.5" cy="9.90247" r="1.5" fill="#E3E3E3"/>
<circle cx="218.5" cy="9.90247" r="1.5" fill="#E3E3E3"/>
<circle cx="236.5" cy="9.90247" r="1.5" fill="#E3E3E3"/>
<circle cx="254.5" cy="9.90247" r="1.5" fill="#E3E3E3"/>
<circle cx="272.5" cy="9.90247" r="1.5" fill="#E3E3E3"/>
<circle cx="290.5" cy="9.90247" r="1.5" fill="#E3E3E3"/>
<circle cx="308.5" cy="9.90247" r="1.5" fill="#E3E3E3"/>
<circle cx="326.5" cy="9.90247" r="1.5" fill="#E3E3E3"/>
<circle cx="344.5" cy="9.90247" r="1.5" fill="#E3E3E3"/>
<circle cx="362.5" cy="9.90247" r="1.5" fill="#E3E3E3"/>
<circle cx="380.5" cy="9.90247" r="1.5" fill="#E3E3E3"/>
<circle cx="398.5" cy="9.90247" r="1.5" fill="#E3E3E3"/>
<circle cx="416.5" cy="9.90247" r="1.5" fill="#E3E3E3"/>
<circle cx="434.5" cy="9.90247" r="1.5" fill="#E3E3E3"/>
<circle cx="452.5" cy="9.90247" r="1.5" fill="#E3E3E3"/>
<circle cx="110.5" cy="27.9025" r="1.5" fill="#E3E3E3"/>
<circle cx="128.5" cy="27.9025" r="1.5" fill="#E3E3E3"/>
<circle cx="146.5" cy="27.9025" r="1.5" fill="#E3E3E3"/>
<circle cx="164.5" cy="27.9025" r="1.5" fill="#E3E3E3"/>
<circle cx="182.5" cy="27.9025" r="1.5" fill="#E3E3E3"/>
<circle cx="200.5" cy="27.9025" r="1.5" fill="#E3E3E3"/>
<circle cx="218.5" cy="27.9025" r="1.5" fill="#E3E3E3"/>
<circle cx="236.5" cy="27.9025" r="1.5" fill="#E3E3E3"/>
<circle cx="254.5" cy="27.9025" r="1.5" fill="#E3E3E3"/>
<circle cx="272.5" cy="27.9025" r="1.5" fill="#E3E3E3"/>
<circle cx="290.5" cy="27.9025" r="1.5" fill="#E3E3E3"/>
<circle cx="308.5" cy="27.9025" r="1.5" fill="#E3E3E3"/>
<circle cx="326.5" cy="27.9025" r="1.5" fill="#E3E3E3"/>
<circle cx="344.5" cy="27.9025" r="1.5" fill="#E3E3E3"/>
<circle cx="362.5" cy="27.9025" r="1.5" fill="#E3E3E3"/>
<circle cx="380.5" cy="27.9025" r="1.5" fill="#E3E3E3"/>
<circle cx="398.5" cy="27.9025" r="1.5" fill="#E3E3E3"/>
<circle cx="416.5" cy="27.9025" r="1.5" fill="#E3E3E3"/>
<circle cx="434.5" cy="27.9025" r="1.5" fill="#E3E3E3"/>
<circle cx="452.5" cy="27.9025" r="1.5" fill="#E3E3E3"/>
<circle cx="110.5" cy="45.9025" r="1.5" fill="#E3E3E3"/>
<circle cx="128.5" cy="45.9025" r="1.5" fill="#E3E3E3"/>
<circle cx="146.5" cy="45.9025" r="1.5" fill="#E3E3E3"/>
<circle cx="164.5" cy="45.9025" r="1.5" fill="#E3E3E3"/>
<circle cx="182.5" cy="45.9025" r="1.5" fill="#E3E3E3"/>
<circle cx="200.5" cy="45.9025" r="1.5" fill="#E3E3E3"/>
<circle cx="218.5" cy="45.9025" r="1.5" fill="#E3E3E3"/>
<circle cx="236.5" cy="45.9025" r="1.5" fill="#E3E3E3"/>
<circle cx="254.5" cy="45.9025" r="1.5" fill="#E3E3E3"/>
<circle cx="272.5" cy="45.9025" r="1.5" fill="#E3E3E3"/>
<circle cx="290.5" cy="45.9025" r="1.5" fill="#E3E3E3"/>
<circle cx="308.5" cy="45.9025" r="1.5" fill="#E3E3E3"/>
<circle cx="326.5" cy="45.9025" r="1.5" fill="#E3E3E3"/>
<circle cx="344.5" cy="45.9025" r="1.5" fill="#E3E3E3"/>
<circle cx="362.5" cy="45.9025" r="1.5" fill="#E3E3E3"/>
<circle cx="380.5" cy="45.9025" r="1.5" fill="#E3E3E3"/>
<circle cx="398.5" cy="45.9025" r="1.5" fill="#E3E3E3"/>
<circle cx="416.5" cy="45.9025" r="1.5" fill="#E3E3E3"/>
<circle cx="434.5" cy="45.9025" r="1.5" fill="#E3E3E3"/>
<circle cx="452.5" cy="45.9025" r="1.5" fill="#E3E3E3"/>
<circle cx="110.5" cy="63.9025" r="1.5" fill="#E3E3E3"/>
<circle cx="128.5" cy="63.9025" r="1.5" fill="#E3E3E3"/>
<circle cx="146.5" cy="63.9025" r="1.5" fill="#E3E3E3"/>
<circle cx="164.5" cy="63.9025" r="1.5" fill="#E3E3E3"/>
<circle cx="182.5" cy="63.9025" r="1.5" fill="#E3E3E3"/>
<circle cx="200.5" cy="63.9025" r="1.5" fill="#E3E3E3"/>
<circle cx="218.5" cy="63.9025" r="1.5" fill="#E3E3E3"/>
<circle cx="236.5" cy="63.9025" r="1.5" fill="#E3E3E3"/>
<circle cx="254.5" cy="63.9025" r="1.5" fill="#E3E3E3"/>
<circle cx="272.5" cy="63.9025" r="1.5" fill="#E3E3E3"/>
<circle cx="290.5" cy="63.9025" r="1.5" fill="#E3E3E3"/>
<circle cx="308.5" cy="63.9025" r="1.5" fill="#E3E3E3"/>
<circle cx="326.5" cy="63.9025" r="1.5" fill="#E3E3E3"/>
<circle cx="344.5" cy="63.9025" r="1.5" fill="#E3E3E3"/>
<circle cx="362.5" cy="63.9025" r="1.5" fill="#E3E3E3"/>
<circle cx="380.5" cy="63.9025" r="1.5" fill="#E3E3E3"/>
<circle cx="398.5" cy="63.9025" r="1.5" fill="#E3E3E3"/>
<circle cx="416.5" cy="63.9025" r="1.5" fill="#E3E3E3"/>
<circle cx="434.5" cy="63.9025" r="1.5" fill="#E3E3E3"/>
<circle cx="452.5" cy="63.9025" r="1.5" fill="#E3E3E3"/>
<circle cx="110.5" cy="81.9025" r="1.5" fill="#E3E3E3"/>
<circle cx="128.5" cy="81.9025" r="1.5" fill="#E3E3E3"/>
<circle cx="146.5" cy="81.9025" r="1.5" fill="#E3E3E3"/>
<circle cx="164.5" cy="81.9025" r="1.5" fill="#E3E3E3"/>
<circle cx="182.5" cy="81.9025" r="1.5" fill="#E3E3E3"/>
<circle cx="200.5" cy="81.9025" r="1.5" fill="#E3E3E3"/>
<circle cx="218.5" cy="81.9025" r="1.5" fill="#E3E3E3"/>
<circle cx="236.5" cy="81.9025" r="1.5" fill="#E3E3E3"/>
<circle cx="254.5" cy="81.9025" r="1.5" fill="#E3E3E3"/>
<circle cx="272.5" cy="81.9025" r="1.5" fill="#E3E3E3"/>
<circle cx="290.5" cy="81.9025" r="1.5" fill="#E3E3E3"/>
<circle cx="308.5" cy="81.9025" r="1.5" fill="#E3E3E3"/>
<circle cx="326.5" cy="81.9025" r="1.5" fill="#E3E3E3"/>
<circle cx="344.5" cy="81.9025" r="1.5" fill="#E3E3E3"/>
<circle cx="362.5" cy="81.9025" r="1.5" fill="#E3E3E3"/>
<circle cx="380.5" cy="81.9025" r="1.5" fill="#E3E3E3"/>
<circle cx="398.5" cy="81.9025" r="1.5" fill="#E3E3E3"/>
<circle cx="416.5" cy="81.9025" r="1.5" fill="#E3E3E3"/>
<circle cx="434.5" cy="81.9025" r="1.5" fill="#E3E3E3"/>
<circle cx="452.5" cy="81.9025" r="1.5" fill="#E3E3E3"/>
<circle cx="110.5" cy="99.9025" r="1.5" fill="#E3E3E3"/>
<circle cx="128.5" cy="99.9025" r="1.5" fill="#E3E3E3"/>
<circle cx="146.5" cy="99.9025" r="1.5" fill="#E3E3E3"/>
<circle cx="164.5" cy="99.9025" r="1.5" fill="#E3E3E3"/>
<circle cx="182.5" cy="99.9025" r="1.5" fill="#E3E3E3"/>
<circle cx="200.5" cy="99.9025" r="1.5" fill="#E3E3E3"/>
<circle cx="218.5" cy="99.9025" r="1.5" fill="#E3E3E3"/>
<circle cx="236.5" cy="99.9025" r="1.5" fill="#E3E3E3"/>
<circle cx="254.5" cy="99.9025" r="1.5" fill="#E3E3E3"/>
<circle cx="272.5" cy="99.9025" r="1.5" fill="#E3E3E3"/>
<circle cx="290.5" cy="99.9025" r="1.5" fill="#E3E3E3"/>
<circle cx="308.5" cy="99.9025" r="1.5" fill="#E3E3E3"/>
<circle cx="326.5" cy="99.9025" r="1.5" fill="#E3E3E3"/>
<circle cx="344.5" cy="99.9025" r="1.5" fill="#E3E3E3"/>
<circle cx="362.5" cy="99.9025" r="1.5" fill="#E3E3E3"/>
<circle cx="380.5" cy="99.9025" r="1.5" fill="#E3E3E3"/>
<circle cx="398.5" cy="99.9025" r="1.5" fill="#E3E3E3"/>
<circle cx="416.5" cy="99.9025" r="1.5" fill="#E3E3E3"/>
<circle cx="434.5" cy="99.9025" r="1.5" fill="#E3E3E3"/>
<circle cx="452.5" cy="99.9025" r="1.5" fill="#E3E3E3"/>
<circle cx="110.5" cy="117.902" r="1.5" fill="#E3E3E3"/>
<circle cx="128.5" cy="117.902" r="1.5" fill="#E3E3E3"/>
<circle cx="146.5" cy="117.902" r="1.5" fill="#E3E3E3"/>
<circle cx="164.5" cy="117.902" r="1.5" fill="#E3E3E3"/>
<circle cx="182.5" cy="117.902" r="1.5" fill="#E3E3E3"/>
<circle cx="200.5" cy="117.902" r="1.5" fill="#E3E3E3"/>
<circle cx="218.5" cy="117.902" r="1.5" fill="#E3E3E3"/>
<circle cx="236.5" cy="117.902" r="1.5" fill="#E3E3E3"/>
<circle cx="254.5" cy="117.902" r="1.5" fill="#E3E3E3"/>
<circle cx="272.5" cy="117.902" r="1.5" fill="#E3E3E3"/>
<circle cx="290.5" cy="117.902" r="1.5" fill="#E3E3E3"/>
<circle cx="308.5" cy="117.902" r="1.5" fill="#E3E3E3"/>
<circle cx="326.5" cy="117.902" r="1.5" fill="#E3E3E3"/>
<circle cx="344.5" cy="117.902" r="1.5" fill="#E3E3E3"/>
<circle cx="362.5" cy="117.902" r="1.5" fill="#E3E3E3"/>
<circle cx="380.5" cy="117.902" r="1.5" fill="#E3E3E3"/>
<circle cx="398.5" cy="117.902" r="1.5" fill="#E3E3E3"/>
<circle cx="416.5" cy="117.902" r="1.5" fill="#E3E3E3"/>
<circle cx="434.5" cy="117.902" r="1.5" fill="#E3E3E3"/>
<circle cx="452.5" cy="117.902" r="1.5" fill="#E3E3E3"/>
<circle cx="110.5" cy="135.902" r="1.5" fill="#E3E3E3"/>
<circle cx="128.5" cy="135.902" r="1.5" fill="#E3E3E3"/>
<circle cx="146.5" cy="135.902" r="1.5" fill="#E3E3E3"/>
<circle cx="164.5" cy="135.902" r="1.5" fill="#E3E3E3"/>
<circle cx="182.5" cy="135.902" r="1.5" fill="#E3E3E3"/>
<circle cx="200.5" cy="135.902" r="1.5" fill="#E3E3E3"/>
<circle cx="218.5" cy="135.902" r="1.5" fill="#E3E3E3"/>
<circle cx="236.5" cy="135.902" r="1.5" fill="#E3E3E3"/>
<circle cx="254.5" cy="135.902" r="1.5" fill="#E3E3E3"/>
<circle cx="272.5" cy="135.902" r="1.5" fill="#E3E3E3"/>
<circle cx="290.5" cy="135.902" r="1.5" fill="#E3E3E3"/>
<circle cx="308.5" cy="135.902" r="1.5" fill="#E3E3E3"/>
<circle cx="326.5" cy="135.902" r="1.5" fill="#E3E3E3"/>
<circle cx="344.5" cy="135.902" r="1.5" fill="#E3E3E3"/>
<circle cx="362.5" cy="135.902" r="1.5" fill="#E3E3E3"/>
<circle cx="380.5" cy="135.902" r="1.5" fill="#E3E3E3"/>
<circle cx="398.5" cy="135.902" r="1.5" fill="#E3E3E3"/>
<circle cx="416.5" cy="135.902" r="1.5" fill="#E3E3E3"/>
<circle cx="434.5" cy="135.902" r="1.5" fill="#E3E3E3"/>
<circle cx="452.5" cy="135.902" r="1.5" fill="#E3E3E3"/>
<circle cx="110.5" cy="153.902" r="1.5" fill="#E3E3E3"/>
<circle cx="128.5" cy="153.902" r="1.5" fill="#E3E3E3"/>
<circle cx="146.5" cy="153.902" r="1.5" fill="#E3E3E3"/>
<circle cx="164.5" cy="153.902" r="1.5" fill="#E3E3E3"/>
<circle cx="182.5" cy="153.902" r="1.5" fill="#E3E3E3"/>
<circle cx="200.5" cy="153.902" r="1.5" fill="#E3E3E3"/>
<circle cx="218.5" cy="153.902" r="1.5" fill="#E3E3E3"/>
<circle cx="236.5" cy="153.902" r="1.5" fill="#E3E3E3"/>
<circle cx="254.5" cy="153.902" r="1.5" fill="#E3E3E3"/>
<circle cx="272.5" cy="153.902" r="1.5" fill="#E3E3E3"/>
<circle cx="290.5" cy="153.902" r="1.5" fill="#E3E3E3"/>
<circle cx="308.5" cy="153.902" r="1.5" fill="#E3E3E3"/>
<circle cx="326.5" cy="153.902" r="1.5" fill="#E3E3E3"/>
<circle cx="344.5" cy="153.902" r="1.5" fill="#E3E3E3"/>
<circle cx="362.5" cy="153.902" r="1.5" fill="#E3E3E3"/>
<circle cx="380.5" cy="153.902" r="1.5" fill="#E3E3E3"/>
<circle cx="398.5" cy="153.902" r="1.5" fill="#E3E3E3"/>
<circle cx="416.5" cy="153.902" r="1.5" fill="#E3E3E3"/>
<circle cx="434.5" cy="153.902" r="1.5" fill="#E3E3E3"/>
<circle cx="452.5" cy="153.902" r="1.5" fill="#E3E3E3"/>
<circle cx="110.5" cy="171.902" r="1.5" fill="#E3E3E3"/>
<circle cx="128.5" cy="171.902" r="1.5" fill="#E3E3E3"/>
<circle cx="146.5" cy="171.902" r="1.5" fill="#E3E3E3"/>
<circle cx="164.5" cy="171.902" r="1.5" fill="#E3E3E3"/>
<circle cx="182.5" cy="171.902" r="1.5" fill="#E3E3E3"/>
<circle cx="200.5" cy="171.902" r="1.5" fill="#E3E3E3"/>
<circle cx="218.5" cy="171.902" r="1.5" fill="#E3E3E3"/>
<circle cx="236.5" cy="171.902" r="1.5" fill="#E3E3E3"/>
<circle cx="254.5" cy="171.902" r="1.5" fill="#E3E3E3"/>
<circle cx="272.5" cy="171.902" r="1.5" fill="#E3E3E3"/>
<circle cx="290.5" cy="171.902" r="1.5" fill="#E3E3E3"/>
<circle cx="308.5" cy="171.902" r="1.5" fill="#E3E3E3"/>
<circle cx="326.5" cy="171.902" r="1.5" fill="#E3E3E3"/>
<circle cx="344.5" cy="171.902" r="1.5" fill="#E3E3E3"/>
<circle cx="362.5" cy="171.902" r="1.5" fill="#E3E3E3"/>
<circle cx="380.5" cy="171.902" r="1.5" fill="#E3E3E3"/>
<circle cx="398.5" cy="171.902" r="1.5" fill="#E3E3E3"/>
<circle cx="416.5" cy="171.902" r="1.5" fill="#E3E3E3"/>
<circle cx="434.5" cy="171.902" r="1.5" fill="#E3E3E3"/>
<circle cx="452.5" cy="171.902" r="1.5" fill="#E3E3E3"/>
<circle cx="110.5" cy="189.902" r="1.5" fill="#E3E3E3"/>
<circle cx="128.5" cy="189.902" r="1.5" fill="#E3E3E3"/>
<circle cx="146.5" cy="189.902" r="1.5" fill="#E3E3E3"/>
<circle cx="164.5" cy="189.902" r="1.5" fill="#E3E3E3"/>
<circle cx="182.5" cy="189.902" r="1.5" fill="#E3E3E3"/>
<circle cx="200.5" cy="189.902" r="1.5" fill="#E3E3E3"/>
<circle cx="218.5" cy="189.902" r="1.5" fill="#E3E3E3"/>
<circle cx="236.5" cy="189.902" r="1.5" fill="#E3E3E3"/>
<circle cx="254.5" cy="189.902" r="1.5" fill="#E3E3E3"/>
<circle cx="272.5" cy="189.902" r="1.5" fill="#E3E3E3"/>
<circle cx="290.5" cy="189.902" r="1.5" fill="#E3E3E3"/>
<circle cx="308.5" cy="189.902" r="1.5" fill="#E3E3E3"/>
<circle cx="326.5" cy="189.902" r="1.5" fill="#E3E3E3"/>
<circle cx="344.5" cy="189.902" r="1.5" fill="#E3E3E3"/>
<circle cx="362.5" cy="189.902" r="1.5" fill="#E3E3E3"/>
<circle cx="380.5" cy="189.902" r="1.5" fill="#E3E3E3"/>
<circle cx="398.5" cy="189.902" r="1.5" fill="#E3E3E3"/>
<circle cx="416.5" cy="189.902" r="1.5" fill="#E3E3E3"/>
<circle cx="434.5" cy="189.902" r="1.5" fill="#E3E3E3"/>
<circle cx="452.5" cy="189.902" r="1.5" fill="#E3E3E3"/>
<circle cx="110.5" cy="207.902" r="1.5" fill="#E3E3E3"/>
<circle cx="128.5" cy="207.902" r="1.5" fill="#E3E3E3"/>
<circle cx="146.5" cy="207.902" r="1.5" fill="#E3E3E3"/>
<circle cx="164.5" cy="207.902" r="1.5" fill="#E3E3E3"/>
<circle cx="182.5" cy="207.902" r="1.5" fill="#E3E3E3"/>
<circle cx="200.5" cy="207.902" r="1.5" fill="#E3E3E3"/>
<circle cx="218.5" cy="207.902" r="1.5" fill="#E3E3E3"/>
<circle cx="236.5" cy="207.902" r="1.5" fill="#E3E3E3"/>
<circle cx="254.5" cy="207.902" r="1.5" fill="#E3E3E3"/>
<circle cx="272.5" cy="207.902" r="1.5" fill="#E3E3E3"/>
<circle cx="290.5" cy="207.902" r="1.5" fill="#E3E3E3"/>
<circle cx="308.5" cy="207.902" r="1.5" fill="#E3E3E3"/>
<circle cx="326.5" cy="207.902" r="1.5" fill="#E3E3E3"/>
<circle cx="344.5" cy="207.902" r="1.5" fill="#E3E3E3"/>
<circle cx="362.5" cy="207.902" r="1.5" fill="#E3E3E3"/>
<circle cx="380.5" cy="207.902" r="1.5" fill="#E3E3E3"/>
<circle cx="398.5" cy="207.902" r="1.5" fill="#E3E3E3"/>
<circle cx="416.5" cy="207.902" r="1.5" fill="#E3E3E3"/>
<circle cx="434.5" cy="207.902" r="1.5" fill="#E3E3E3"/>
<circle cx="452.5" cy="207.902" r="1.5" fill="#E3E3E3"/>
<circle cx="110.5" cy="225.902" r="1.5" fill="#E3E3E3"/>
<circle cx="128.5" cy="225.902" r="1.5" fill="#E3E3E3"/>
<circle cx="146.5" cy="225.902" r="1.5" fill="#E3E3E3"/>
<circle cx="164.5" cy="225.902" r="1.5" fill="#E3E3E3"/>
<circle cx="182.5" cy="225.902" r="1.5" fill="#E3E3E3"/>
<circle cx="200.5" cy="225.902" r="1.5" fill="#E3E3E3"/>
<circle cx="218.5" cy="225.902" r="1.5" fill="#E3E3E3"/>
<circle cx="236.5" cy="225.902" r="1.5" fill="#E3E3E3"/>
<circle cx="254.5" cy="225.902" r="1.5" fill="#E3E3E3"/>
<circle cx="272.5" cy="225.902" r="1.5" fill="#E3E3E3"/>
<circle cx="290.5" cy="225.902" r="1.5" fill="#E3E3E3"/>
<circle cx="308.5" cy="225.902" r="1.5" fill="#E3E3E3"/>
<circle cx="326.5" cy="225.902" r="1.5" fill="#E3E3E3"/>
<circle cx="344.5" cy="225.902" r="1.5" fill="#E3E3E3"/>
<circle cx="362.5" cy="225.902" r="1.5" fill="#E3E3E3"/>
<circle cx="380.5" cy="225.902" r="1.5" fill="#E3E3E3"/>
<circle cx="398.5" cy="225.902" r="1.5" fill="#E3E3E3"/>
<circle cx="416.5" cy="225.902" r="1.5" fill="#E3E3E3"/>
<circle cx="434.5" cy="225.902" r="1.5" fill="#E3E3E3"/>
<circle cx="452.5" cy="225.902" r="1.5" fill="#E3E3E3"/>
<circle cx="110.5" cy="243.902" r="1.5" fill="#E3E3E3"/>
<circle cx="128.5" cy="243.902" r="1.5" fill="#E3E3E3"/>
<circle cx="146.5" cy="243.902" r="1.5" fill="#E3E3E3"/>
<circle cx="164.5" cy="243.902" r="1.5" fill="#E3E3E3"/>
<circle cx="182.5" cy="243.902" r="1.5" fill="#E3E3E3"/>
<circle cx="200.5" cy="243.902" r="1.5" fill="#E3E3E3"/>
<circle cx="218.5" cy="243.902" r="1.5" fill="#E3E3E3"/>
<circle cx="236.5" cy="243.902" r="1.5" fill="#E3E3E3"/>
<circle cx="254.5" cy="243.902" r="1.5" fill="#E3E3E3"/>
<circle cx="272.5" cy="243.902" r="1.5" fill="#E3E3E3"/>
<circle cx="290.5" cy="243.902" r="1.5" fill="#E3E3E3"/>
<circle cx="308.5" cy="243.902" r="1.5" fill="#E3E3E3"/>
<circle cx="326.5" cy="243.902" r="1.5" fill="#E3E3E3"/>
<circle cx="344.5" cy="243.902" r="1.5" fill="#E3E3E3"/>
<circle cx="362.5" cy="243.902" r="1.5" fill="#E3E3E3"/>
<circle cx="380.5" cy="243.902" r="1.5" fill="#E3E3E3"/>
<circle cx="398.5" cy="243.902" r="1.5" fill="#E3E3E3"/>
<circle cx="416.5" cy="243.902" r="1.5" fill="#E3E3E3"/>
<circle cx="434.5" cy="243.902" r="1.5" fill="#E3E3E3"/>
<circle cx="452.5" cy="243.902" r="1.5" fill="#E3E3E3"/>
<circle cx="110.5" cy="261.902" r="1.5" fill="#E3E3E3"/>
<circle cx="128.5" cy="261.902" r="1.5" fill="#E3E3E3"/>
<circle cx="146.5" cy="261.902" r="1.5" fill="#E3E3E3"/>
<circle cx="164.5" cy="261.902" r="1.5" fill="#E3E3E3"/>
<circle cx="182.5" cy="261.902" r="1.5" fill="#E3E3E3"/>
<circle cx="200.5" cy="261.902" r="1.5" fill="#E3E3E3"/>
<circle cx="218.5" cy="261.902" r="1.5" fill="#E3E3E3"/>
<circle cx="236.5" cy="261.902" r="1.5" fill="#E3E3E3"/>
<circle cx="254.5" cy="261.902" r="1.5" fill="#E3E3E3"/>
<circle cx="272.5" cy="261.902" r="1.5" fill="#E3E3E3"/>
<circle cx="290.5" cy="261.902" r="1.5" fill="#E3E3E3"/>
<circle cx="308.5" cy="261.902" r="1.5" fill="#E3E3E3"/>
<circle cx="326.5" cy="261.902" r="1.5" fill="#E3E3E3"/>
<circle cx="344.5" cy="261.902" r="1.5" fill="#E3E3E3"/>
<circle cx="362.5" cy="261.902" r="1.5" fill="#E3E3E3"/>
<circle cx="380.5" cy="261.902" r="1.5" fill="#E3E3E3"/>
<circle cx="398.5" cy="261.902" r="1.5" fill="#E3E3E3"/>
<circle cx="416.5" cy="261.902" r="1.5" fill="#E3E3E3"/>
<circle cx="434.5" cy="261.902" r="1.5" fill="#E3E3E3"/>
<circle cx="452.5" cy="261.902" r="1.5" fill="#E3E3E3"/>
<circle cx="110.5" cy="279.902" r="1.5" fill="#E3E3E3"/>
<circle cx="128.5" cy="279.902" r="1.5" fill="#E3E3E3"/>
<circle cx="146.5" cy="279.902" r="1.5" fill="#E3E3E3"/>
<circle cx="164.5" cy="279.902" r="1.5" fill="#E3E3E3"/>
<circle cx="182.5" cy="279.902" r="1.5" fill="#E3E3E3"/>
<circle cx="200.5" cy="279.902" r="1.5" fill="#E3E3E3"/>
<circle cx="218.5" cy="279.902" r="1.5" fill="#E3E3E3"/>
<circle cx="236.5" cy="279.902" r="1.5" fill="#E3E3E3"/>
<circle cx="254.5" cy="279.902" r="1.5" fill="#E3E3E3"/>
<circle cx="272.5" cy="279.902" r="1.5" fill="#E3E3E3"/>
<circle cx="290.5" cy="279.902" r="1.5" fill="#E3E3E3"/>
<circle cx="308.5" cy="279.902" r="1.5" fill="#E3E3E3"/>
<circle cx="326.5" cy="279.902" r="1.5" fill="#E3E3E3"/>
<circle cx="344.5" cy="279.902" r="1.5" fill="#E3E3E3"/>
<circle cx="362.5" cy="279.902" r="1.5" fill="#E3E3E3"/>
<circle cx="380.5" cy="279.902" r="1.5" fill="#E3E3E3"/>
<circle cx="398.5" cy="279.902" r="1.5" fill="#E3E3E3"/>
<circle cx="416.5" cy="279.902" r="1.5" fill="#E3E3E3"/>
<circle cx="434.5" cy="279.902" r="1.5" fill="#E3E3E3"/>
<circle cx="452.5" cy="279.902" r="1.5" fill="#E3E3E3"/>
<circle cx="110.5" cy="297.902" r="1.5" fill="#E3E3E3"/>
<circle cx="128.5" cy="297.902" r="1.5" fill="#E3E3E3"/>
<circle cx="146.5" cy="297.902" r="1.5" fill="#E3E3E3"/>
<circle cx="164.5" cy="297.902" r="1.5" fill="#E3E3E3"/>
<circle cx="182.5" cy="297.902" r="1.5" fill="#E3E3E3"/>
<circle cx="200.5" cy="297.902" r="1.5" fill="#E3E3E3"/>
<circle cx="218.5" cy="297.902" r="1.5" fill="#E3E3E3"/>
<circle cx="236.5" cy="297.902" r="1.5" fill="#E3E3E3"/>
<circle cx="254.5" cy="297.902" r="1.5" fill="#E3E3E3"/>
<circle cx="272.5" cy="297.902" r="1.5" fill="#E3E3E3"/>
<circle cx="290.5" cy="297.902" r="1.5" fill="#E3E3E3"/>
<circle cx="308.5" cy="297.902" r="1.5" fill="#E3E3E3"/>
<circle cx="326.5" cy="297.902" r="1.5" fill="#E3E3E3"/>
<circle cx="344.5" cy="297.902" r="1.5" fill="#E3E3E3"/>
<circle cx="362.5" cy="297.902" r="1.5" fill="#E3E3E3"/>
<circle cx="380.5" cy="297.902" r="1.5" fill="#E3E3E3"/>
<circle cx="398.5" cy="297.902" r="1.5" fill="#E3E3E3"/>
<circle cx="416.5" cy="297.902" r="1.5" fill="#E3E3E3"/>
<circle cx="434.5" cy="297.902" r="1.5" fill="#E3E3E3"/>
<circle cx="452.5" cy="297.902" r="1.5" fill="#E3E3E3"/>
<circle cx="110.5" cy="315.902" r="1.5" fill="#E3E3E3"/>
<circle cx="128.5" cy="315.902" r="1.5" fill="#E3E3E3"/>
<circle cx="146.5" cy="315.902" r="1.5" fill="#E3E3E3"/>
<circle cx="164.5" cy="315.902" r="1.5" fill="#E3E3E3"/>
<circle cx="182.5" cy="315.902" r="1.5" fill="#E3E3E3"/>
<circle cx="200.5" cy="315.902" r="1.5" fill="#E3E3E3"/>
<circle cx="218.5" cy="315.902" r="1.5" fill="#E3E3E3"/>
<circle cx="236.5" cy="315.902" r="1.5" fill="#E3E3E3"/>
<circle cx="254.5" cy="315.902" r="1.5" fill="#E3E3E3"/>
<circle cx="272.5" cy="315.902" r="1.5" fill="#E3E3E3"/>
<circle cx="290.5" cy="315.902" r="1.5" fill="#E3E3E3"/>
<circle cx="308.5" cy="315.902" r="1.5" fill="#E3E3E3"/>
<circle cx="326.5" cy="315.902" r="1.5" fill="#E3E3E3"/>
<circle cx="344.5" cy="315.902" r="1.5" fill="#E3E3E3"/>
<circle cx="362.5" cy="315.902" r="1.5" fill="#E3E3E3"/>
<circle cx="380.5" cy="315.902" r="1.5" fill="#E3E3E3"/>
<circle cx="398.5" cy="315.902" r="1.5" fill="#E3E3E3"/>
<circle cx="416.5" cy="315.902" r="1.5" fill="#E3E3E3"/>
<circle cx="434.5" cy="315.902" r="1.5" fill="#E3E3E3"/>
<circle cx="452.5" cy="315.902" r="1.5" fill="#E3E3E3"/>
<circle cx="110.5" cy="333.902" r="1.5" fill="#E3E3E3"/>
<circle cx="128.5" cy="333.902" r="1.5" fill="#E3E3E3"/>
<circle cx="146.5" cy="333.902" r="1.5" fill="#E3E3E3"/>
<circle cx="164.5" cy="333.902" r="1.5" fill="#E3E3E3"/>
<circle cx="182.5" cy="333.902" r="1.5" fill="#E3E3E3"/>
<circle cx="200.5" cy="333.902" r="1.5" fill="#E3E3E3"/>
<circle cx="218.5" cy="333.902" r="1.5" fill="#E3E3E3"/>
<circle cx="236.5" cy="333.902" r="1.5" fill="#E3E3E3"/>
<circle cx="254.5" cy="333.902" r="1.5" fill="#E3E3E3"/>
<circle cx="272.5" cy="333.902" r="1.5" fill="#E3E3E3"/>
<circle cx="290.5" cy="333.902" r="1.5" fill="#E3E3E3"/>
<circle cx="308.5" cy="333.902" r="1.5" fill="#E3E3E3"/>
<circle cx="326.5" cy="333.902" r="1.5" fill="#E3E3E3"/>
<circle cx="344.5" cy="333.902" r="1.5" fill="#E3E3E3"/>
<circle cx="362.5" cy="333.902" r="1.5" fill="#E3E3E3"/>
<circle cx="380.5" cy="333.902" r="1.5" fill="#E3E3E3"/>
<circle cx="398.5" cy="333.902" r="1.5" fill="#E3E3E3"/>
<circle cx="416.5" cy="333.902" r="1.5" fill="#E3E3E3"/>
<circle cx="434.5" cy="333.902" r="1.5" fill="#E3E3E3"/>
<circle cx="452.5" cy="333.902" r="1.5" fill="#E3E3E3"/>
<circle cx="110.5" cy="351.902" r="1.5" fill="#E3E3E3"/>
<circle cx="128.5" cy="351.902" r="1.5" fill="#E3E3E3"/>
<circle cx="146.5" cy="351.902" r="1.5" fill="#E3E3E3"/>
<circle cx="164.5" cy="351.902" r="1.5" fill="#E3E3E3"/>
<circle cx="182.5" cy="351.902" r="1.5" fill="#E3E3E3"/>
<circle cx="200.5" cy="351.902" r="1.5" fill="#E3E3E3"/>
<circle cx="218.5" cy="351.902" r="1.5" fill="#E3E3E3"/>
<circle cx="236.5" cy="351.902" r="1.5" fill="#E3E3E3"/>
<circle cx="254.5" cy="351.902" r="1.5" fill="#E3E3E3"/>
<circle cx="272.5" cy="351.902" r="1.5" fill="#E3E3E3"/>
<circle cx="290.5" cy="351.902" r="1.5" fill="#E3E3E3"/>
<circle cx="308.5" cy="351.902" r="1.5" fill="#E3E3E3"/>
<circle cx="326.5" cy="351.902" r="1.5" fill="#E3E3E3"/>
<circle cx="344.5" cy="351.902" r="1.5" fill="#E3E3E3"/>
<circle cx="362.5" cy="351.902" r="1.5" fill="#E3E3E3"/>
<circle cx="380.5" cy="351.902" r="1.5" fill="#E3E3E3"/>
<circle cx="398.5" cy="351.902" r="1.5" fill="#E3E3E3"/>
<circle cx="416.5" cy="351.902" r="1.5" fill="#E3E3E3"/>
<circle cx="434.5" cy="351.902" r="1.5" fill="#E3E3E3"/>
<circle cx="452.5" cy="351.902" r="1.5" fill="#E3E3E3"/>
<rect x="15" y="7.40247" width="453" height="348" fill="url(#paint0_radial)"/>
<path d="M3.43037 299.32C-11.6742 296.609 -24.6847 283.351 -35.2744 268.541C-45.8466 253.756 -53.9739 237.401 -52.1171 222.079C-50.2603 206.757 -38.4063 192.385 -24.1707 183.693C-9.91745 175.024 6.70639 171.969 22.6948 174.217C38.7009 176.49 54.0298 184.06 64.9116 196.588C75.7934 209.115 82.2039 226.617 79.4633 242.401C76.7161 258.227 64.7761 272.33 50.2484 283.305C35.679 294.274 18.5285 302.073 3.43037 299.32Z" fill="#FE840E"/>
<path d="M41.52 125.322C34.08 125.322 27.48 123.602 21.72 120.162C16.04 116.642 11.56 111.602 8.28 105.042C5.08 98.4025 3.48 90.5225 3.48 81.4025C3.48 72.2825 5.08 64.4425 8.28 57.8825C11.56 51.2425 16.04 46.2025 21.72 42.7625C27.48 39.2425 34.08 37.4825 41.52 37.4825C48.96 37.4825 55.52 39.2425 61.2 42.7625C66.96 46.2025 71.44 51.2425 74.64 57.8825C77.92 64.4425 79.56 72.2825 79.56 81.4025C79.56 90.5225 77.92 98.4025 74.64 105.042C71.44 111.602 66.96 116.642 61.2 120.162C55.52 123.602 48.96 125.322 41.52 125.322ZM41.52 102.642C47.92 102.642 51.12 95.5625 51.12 81.4025C51.12 67.2425 47.92 60.1625 41.52 60.1625C35.12 60.1625 31.92 67.2425 31.92 81.4025C31.92 95.5625 35.12 102.642 41.52 102.642ZM150.194 101.442V123.402L82.8741 123.402V106.002L113.234 77.9225C115.874 75.4425 117.634 73.3225 118.514 71.5625C119.394 69.8025 119.834 68.0825 119.834 66.4025C119.834 64.3225 119.114 62.7225 117.674 61.6025C116.314 60.4025 114.314 59.8025 111.674 59.8025C109.114 59.8025 106.714 60.4825 104.474 61.8425C102.234 63.2025 100.514 65.1225 99.3141 67.6025L77.9541 56.9225C81.1541 50.9225 85.8341 46.2025 91.9941 42.7625C98.1541 39.2425 105.594 37.4825 114.314 37.4825C120.954 37.4825 126.834 38.5625 131.954 40.7225C137.074 42.8825 141.074 45.9625 143.954 49.9625C146.834 53.9625 148.274 58.5625 148.274 63.7625C148.274 68.4025 147.274 72.7625 145.274 76.8425C143.354 80.8425 139.554 85.4025 133.874 90.5225L121.874 101.442L150.194 101.442Z" fill="#E3E3E3"/>
</g>
<path d="M81.65 237.602V261.402H76.176V242.09H65.432V261.402H59.958V237.602H81.65ZM97.5798 242.838C99.2798 242.838 100.821 243.235 102.204 244.028C103.609 244.799 104.708 245.898 105.502 247.326C106.295 248.732 106.692 250.375 106.692 252.256C106.692 254.138 106.295 255.792 105.502 257.22C104.708 258.626 103.609 259.725 102.204 260.518C100.821 261.289 99.2798 261.674 97.5798 261.674C95.2451 261.674 93.4091 260.938 92.0718 259.464V267.998H86.7678V243.11H91.8338V245.218C93.1485 243.632 95.0638 242.838 97.5798 242.838ZM96.6618 257.322C98.0218 257.322 99.1325 256.869 99.9938 255.962C100.878 255.033 101.32 253.798 101.32 252.256C101.32 250.715 100.878 249.491 99.9938 248.584C99.1325 247.655 98.0218 247.19 96.6618 247.19C95.3018 247.19 94.1798 247.655 93.2958 248.584C92.4345 249.491 92.0038 250.715 92.0038 252.256C92.0038 253.798 92.4345 255.033 93.2958 255.962C94.1798 256.869 95.3018 257.322 96.6618 257.322ZM118.637 261.674C116.711 261.674 114.977 261.278 113.435 260.484C111.917 259.668 110.727 258.546 109.865 257.118C109.004 255.69 108.573 254.07 108.573 252.256C108.573 250.443 109.004 248.822 109.865 247.394C110.727 245.966 111.917 244.856 113.435 244.062C114.977 243.246 116.711 242.838 118.637 242.838C120.564 242.838 122.287 243.246 123.805 244.062C125.324 244.856 126.514 245.966 127.375 247.394C128.237 248.822 128.667 250.443 128.667 252.256C128.667 254.07 128.237 255.69 127.375 257.118C126.514 258.546 125.324 259.668 123.805 260.484C122.287 261.278 120.564 261.674 118.637 261.674ZM118.637 257.322C119.997 257.322 121.108 256.869 121.969 255.962C122.853 255.033 123.295 253.798 123.295 252.256C123.295 250.715 122.853 249.491 121.969 248.584C121.108 247.655 119.997 247.19 118.637 247.19C117.277 247.19 116.155 247.655 115.271 248.584C114.387 249.491 113.945 250.715 113.945 252.256C113.945 253.798 114.387 255.033 115.271 255.962C116.155 256.869 117.277 257.322 118.637 257.322ZM152.579 257.05V265.414H147.649V261.402H131.975V243.11H137.245V257.05H144.623V243.11H149.927V257.05H152.579ZM173.357 252.324C173.357 252.392 173.323 252.868 173.255 253.752H159.417C159.666 254.886 160.255 255.781 161.185 256.438C162.114 257.096 163.27 257.424 164.653 257.424C165.605 257.424 166.443 257.288 167.169 257.016C167.917 256.722 168.608 256.268 169.243 255.656L172.065 258.716C170.342 260.688 167.826 261.674 164.517 261.674C162.454 261.674 160.629 261.278 159.043 260.484C157.456 259.668 156.232 258.546 155.371 257.118C154.509 255.69 154.079 254.07 154.079 252.256C154.079 250.466 154.498 248.856 155.337 247.428C156.198 245.978 157.365 244.856 158.839 244.062C160.335 243.246 162.001 242.838 163.837 242.838C165.627 242.838 167.248 243.224 168.699 243.994C170.149 244.765 171.283 245.876 172.099 247.326C172.937 248.754 173.357 250.42 173.357 252.324ZM163.871 246.85C162.669 246.85 161.661 247.19 160.845 247.87C160.029 248.55 159.53 249.48 159.349 250.658H168.359C168.177 249.502 167.679 248.584 166.863 247.904C166.047 247.202 165.049 246.85 163.871 246.85ZM185.786 261.674C183.837 261.674 182.08 261.278 180.516 260.484C178.975 259.668 177.762 258.546 176.878 257.118C176.017 255.69 175.586 254.07 175.586 252.256C175.586 250.443 176.017 248.822 176.878 247.394C177.762 245.966 178.975 244.856 180.516 244.062C182.08 243.246 183.837 242.838 185.786 242.838C187.713 242.838 189.39 243.246 190.818 244.062C192.269 244.856 193.323 246 193.98 247.496L189.866 249.706C188.914 248.029 187.543 247.19 185.752 247.19C184.37 247.19 183.225 247.644 182.318 248.55C181.412 249.457 180.958 250.692 180.958 252.256C180.958 253.82 181.412 255.056 182.318 255.962C183.225 256.869 184.37 257.322 185.752 257.322C187.566 257.322 188.937 256.484 189.866 254.806L193.98 257.05C193.323 258.501 192.269 259.634 190.818 260.45C189.39 261.266 187.713 261.674 185.786 261.674ZM205.335 261.674C203.386 261.674 201.629 261.278 200.065 260.484C198.524 259.668 197.311 258.546 196.427 257.118C195.566 255.69 195.135 254.07 195.135 252.256C195.135 250.443 195.566 248.822 196.427 247.394C197.311 245.966 198.524 244.856 200.065 244.062C201.629 243.246 203.386 242.838 205.335 242.838C207.262 242.838 208.939 243.246 210.367 244.062C211.818 244.856 212.872 246 213.529 247.496L209.415 249.706C208.463 248.029 207.092 247.19 205.301 247.19C203.918 247.19 202.774 247.644 201.867 248.55C200.96 249.457 200.507 250.692 200.507 252.256C200.507 253.82 200.96 255.056 201.867 255.962C202.774 256.869 203.918 257.322 205.301 257.322C207.114 257.322 208.486 256.484 209.415 254.806L213.529 257.05C212.872 258.501 211.818 259.634 210.367 260.45C208.939 261.266 207.262 261.674 205.335 261.674ZM243.551 261.402V250.454L238.077 259.634H235.833L230.495 250.42V261.402H225.701V243.11H231.243L237.091 253.684L243.313 243.11H248.277L248.345 261.402H243.551ZM260.192 242.838C263.025 242.838 265.201 243.518 266.72 244.878C268.238 246.216 268.998 248.244 268.998 250.964V261.402H264.034V259.124C263.036 260.824 261.178 261.674 258.458 261.674C257.052 261.674 255.828 261.436 254.786 260.96C253.766 260.484 252.984 259.827 252.44 258.988C251.896 258.15 251.624 257.198 251.624 256.132C251.624 254.432 252.258 253.095 253.528 252.12C254.82 251.146 256.803 250.658 259.478 250.658H263.694C263.694 249.502 263.342 248.618 262.64 248.006C261.937 247.372 260.883 247.054 259.478 247.054C258.503 247.054 257.54 247.213 256.588 247.53C255.658 247.825 254.865 248.233 254.208 248.754L252.304 245.048C253.301 244.346 254.491 243.802 255.874 243.416C257.279 243.031 258.718 242.838 260.192 242.838ZM259.784 258.104C260.69 258.104 261.495 257.9 262.198 257.492C262.9 257.062 263.399 256.438 263.694 255.622V253.752H260.056C257.88 253.752 256.792 254.466 256.792 255.894C256.792 256.574 257.052 257.118 257.574 257.526C258.118 257.912 258.854 258.104 259.784 258.104ZM301.179 243.11V261.402H273.265V243.11H278.535V257.05H284.621V243.11H289.891V257.05H295.909V243.11H301.179ZM305.929 243.11H311.199V253.99L320.107 243.11H324.969V261.402H319.699V250.522L310.825 261.402H305.929V243.11ZM329.728 243.11H334.998V250.25H342.954V243.11H348.258V261.402H342.954V254.568H334.998V261.402H329.728V243.11ZM352.995 243.11H358.265V250.25H366.221V243.11H371.525V261.402H366.221V254.568H358.265V261.402H352.995V243.11ZM384.831 261.674C382.904 261.674 381.17 261.278 379.629 260.484C378.11 259.668 376.92 258.546 376.059 257.118C375.197 255.69 374.767 254.07 374.767 252.256C374.767 250.443 375.197 248.822 376.059 247.394C376.92 245.966 378.11 244.856 379.629 244.062C381.17 243.246 382.904 242.838 384.831 242.838C386.757 242.838 388.48 243.246 389.999 244.062C391.517 244.856 392.707 245.966 393.569 247.394C394.43 248.822 394.861 250.443 394.861 252.256C394.861 254.07 394.43 255.69 393.569 257.118C392.707 258.546 391.517 259.668 389.999 260.484C388.48 261.278 386.757 261.674 384.831 261.674ZM384.831 257.322C386.191 257.322 387.301 256.869 388.163 255.962C389.047 255.033 389.489 253.798 389.489 252.256C389.489 250.715 389.047 249.491 388.163 248.584C387.301 247.655 386.191 247.19 384.831 247.19C383.471 247.19 382.349 247.655 381.465 248.584C380.581 249.491 380.139 250.715 380.139 252.256C380.139 253.798 380.581 255.033 381.465 255.962C382.349 256.869 383.471 257.322 384.831 257.322ZM412.823 247.462H403.439V261.402H398.169V243.11H412.823V247.462ZM423.098 261.674C421.171 261.674 419.437 261.278 417.896 260.484C416.377 259.668 415.187 258.546 414.326 257.118C413.465 255.69 413.034 254.07 413.034 252.256C413.034 250.443 413.465 248.822 414.326 247.394C415.187 245.966 416.377 244.856 417.896 244.062C419.437 243.246 421.171 242.838 423.098 242.838C425.025 242.838 426.747 243.246 428.266 244.062C429.785 244.856 430.975 245.966 431.836 247.394C432.697 248.822 433.128 250.443 433.128 252.256C433.128 254.07 432.697 255.69 431.836 257.118C430.975 258.546 429.785 259.668 428.266 260.484C426.747 261.278 425.025 261.674 423.098 261.674ZM423.098 257.322C424.458 257.322 425.569 256.869 426.43 255.962C427.314 255.033 427.756 253.798 427.756 252.256C427.756 250.715 427.314 249.491 426.43 248.584C425.569 247.655 424.458 247.19 423.098 247.19C421.738 247.19 420.616 247.655 419.732 248.584C418.848 249.491 418.406 250.715 418.406 252.256C418.406 253.798 418.848 255.033 419.732 255.962C420.616 256.869 421.738 257.322 423.098 257.322ZM68.118 310.674C66.1913 310.674 64.4573 310.278 62.916 309.484C61.3973 308.668 60.2073 307.546 59.346 306.118C58.4847 304.69 58.054 303.07 58.054 301.256C58.054 299.443 58.4847 297.822 59.346 296.394C60.2073 294.966 61.3973 293.856 62.916 293.062C64.4573 292.246 66.1913 291.838 68.118 291.838C70.0447 291.838 71.7673 292.246 73.286 293.062C74.8047 293.856 75.9947 294.966 76.856 296.394C77.7173 297.822 78.148 299.443 78.148 301.256C78.148 303.07 77.7173 304.69 76.856 306.118C75.9947 307.546 74.8047 308.668 73.286 309.484C71.7673 310.278 70.0447 310.674 68.118 310.674ZM68.118 306.322C69.478 306.322 70.5887 305.869 71.45 304.962C72.334 304.033 72.776 302.798 72.776 301.256C72.776 299.715 72.334 298.491 71.45 297.584C70.5887 296.655 69.478 296.19 68.118 296.19C66.758 296.19 65.636 296.655 64.752 297.584C63.868 298.491 63.426 299.715 63.426 301.256C63.426 302.798 63.868 304.033 64.752 304.962C65.636 305.869 66.758 306.322 68.118 306.322ZM92.0301 293.368C93.7754 293.368 95.3054 293.731 96.6201 294.456C97.9348 295.159 98.9434 296.156 99.6461 297.448C100.371 298.74 100.734 300.236 100.734 301.936C100.734 303.682 100.303 305.234 99.4421 306.594C98.6034 307.932 97.4248 308.974 95.9061 309.722C94.3874 310.448 92.6648 310.81 90.7381 310.81C87.5421 310.81 85.0261 309.79 83.1901 307.75C81.3768 305.688 80.4701 302.673 80.4701 298.706C80.4701 295.034 81.2634 292.11 82.8501 289.934C84.4594 287.736 86.9188 286.296 90.2281 285.616L98.9321 283.882L99.6461 288.438L91.9621 289.968C89.8768 290.376 88.3241 291.056 87.3041 292.008C86.3068 292.96 85.7174 294.309 85.5361 296.054C86.3294 295.193 87.2814 294.536 88.3921 294.082C89.5028 293.606 90.7154 293.368 92.0301 293.368ZM90.7721 306.696C92.1321 306.696 93.2201 306.254 94.0361 305.37C94.8748 304.486 95.2941 303.364 95.2941 302.004C95.2941 300.622 94.8748 299.522 94.0361 298.706C93.2201 297.89 92.1321 297.482 90.7721 297.482C89.3894 297.482 88.2788 297.89 87.4401 298.706C86.6014 299.522 86.1821 300.622 86.1821 302.004C86.1821 303.387 86.6128 304.52 87.4741 305.404C88.3354 306.266 89.4348 306.696 90.7721 306.696ZM121.821 292.11L113.559 311.524C112.72 313.632 111.678 315.117 110.431 315.978C109.207 316.84 107.722 317.27 105.977 317.27C105.025 317.27 104.084 317.123 103.155 316.828C102.226 316.534 101.466 316.126 100.877 315.604L102.815 311.83C103.223 312.193 103.688 312.476 104.209 312.68C104.753 312.884 105.286 312.986 105.807 312.986C106.532 312.986 107.122 312.805 107.575 312.442C108.028 312.102 108.436 311.524 108.799 310.708L108.867 310.538L100.945 292.11H106.419L111.553 304.52L116.721 292.11H121.821ZM140.496 292.11V310.402H135.192V303.602C133.65 304.373 131.95 304.758 130.092 304.758C127.621 304.758 125.751 304.203 124.482 303.092C123.235 301.959 122.612 300.214 122.612 297.856V292.11H127.916V297.516C127.916 298.627 128.199 299.432 128.766 299.93C129.355 300.429 130.194 300.678 131.282 300.678C132.664 300.678 133.968 300.384 135.192 299.794V292.11H140.496ZM163.031 301.324C163.031 301.392 162.997 301.868 162.929 302.752H149.091C149.34 303.886 149.929 304.781 150.859 305.438C151.788 306.096 152.944 306.424 154.327 306.424C155.279 306.424 156.117 306.288 156.843 306.016C157.591 305.722 158.282 305.268 158.917 304.656L161.739 307.716C160.016 309.688 157.5 310.674 154.191 310.674C152.128 310.674 150.303 310.278 148.717 309.484C147.13 308.668 145.906 307.546 145.045 306.118C144.183 304.69 143.753 303.07 143.753 301.256C143.753 299.466 144.172 297.856 145.011 296.428C145.872 294.978 147.039 293.856 148.513 293.062C150.009 292.246 151.675 291.838 153.511 291.838C155.301 291.838 156.922 292.224 158.373 292.994C159.823 293.765 160.957 294.876 161.773 296.326C162.611 297.754 163.031 299.42 163.031 301.324ZM153.545 295.85C152.343 295.85 151.335 296.19 150.519 296.87C149.703 297.55 149.204 298.48 149.023 299.658H158.033C157.851 298.502 157.353 297.584 156.537 296.904C155.721 296.202 154.723 295.85 153.545 295.85ZM166.756 292.11H172.026V299.25H179.982V292.11H185.286V310.402H179.982V303.568H172.026V310.402H166.756V292.11ZM190.024 292.11H195.294V302.99L204.202 292.11H209.064V310.402H203.794V299.522L194.92 310.402H190.024V292.11ZM230.074 292.11V310.402H225.348V305.166H221.438L217.97 310.402H212.326L216.508 304.418C215.239 303.92 214.264 303.206 213.584 302.276C212.927 301.324 212.598 300.18 212.598 298.842C212.598 296.689 213.369 295.034 214.91 293.878C216.474 292.7 218.616 292.11 221.336 292.11H230.074ZM221.438 296.428C220.305 296.428 219.444 296.632 218.854 297.04C218.288 297.448 218.004 298.106 218.004 299.012C218.004 299.919 218.276 300.588 218.82 301.018C219.387 301.426 220.237 301.63 221.37 301.63H225.348V296.428H221.438Z" fill="black"/>
</g>
<path d="M345.001 122.335C352.972 122.335 359.433 115.874 359.433 107.904C359.433 99.9331 352.972 93.4718 345.001 93.4718C337.031 93.4718 330.569 99.9331 330.569 107.904C330.569 115.874 337.031 122.335 345.001 122.335Z" stroke="#C81F56" stroke-width="3" stroke-miterlimit="10" stroke-linecap="round" stroke-linejoin="round"/>
<path d="M344.998 136.765C360.939 136.765 373.862 123.842 373.862 107.901C373.862 91.9604 360.939 79.0377 344.998 79.0377C329.057 79.0377 316.135 91.9604 316.135 107.901C316.135 123.842 329.057 136.765 344.998 136.765Z" stroke="#F06C46" stroke-width="3" stroke-miterlimit="10" stroke-linecap="round" stroke-linejoin="round"/>
<path d="M345 151.198C368.911 151.198 388.295 131.814 388.295 107.903C388.295 83.9911 368.911 64.6071 345 64.6071C321.088 64.6071 301.704 83.9911 301.704 107.903C301.704 131.814 321.088 151.198 345 151.198Z" stroke="#FE840E" stroke-width="3" stroke-miterlimit="10" stroke-linecap="round" stroke-linejoin="round"/>
<path d="M345.001 165.63C376.883 165.63 402.728 139.785 402.728 107.903C402.728 76.0212 376.883 50.1758 345.001 50.1758C313.119 50.1758 287.273 76.0212 287.273 107.903C287.273 139.785 313.119 165.63 345.001 165.63Z" stroke="#FEB447" stroke-width="3" stroke-miterlimit="10" stroke-linecap="round" stroke-linejoin="round"/>
<path d="M345 55.9479V44.4025" stroke="#FEB447" stroke-width="3" stroke-miterlimit="10" stroke-linecap="round" stroke-linejoin="round"/>
<path d="M345 171.403V159.857" stroke="#FEB447" stroke-width="3" stroke-miterlimit="10" stroke-linecap="round" stroke-linejoin="round"/>
<path d="M396.954 107.902H408.5" stroke="#FEB447" stroke-width="3" stroke-miterlimit="10" stroke-linecap="round" stroke-linejoin="round"/>
<path d="M281.5 107.902H293.045" stroke="#FEB447" stroke-width="3" stroke-miterlimit="10" stroke-linecap="round" stroke-linejoin="round"/>
<line x1="344.568" y1="107.941" x2="394.755" y2="57.7543" stroke="#C81F56" stroke-width="3" stroke-linecap="round" stroke-linejoin="round"/>
<path d="M383.073 54.1221L392.518 44.6776V60.6606L383.073 70.1051V54.1221Z" stroke="#C81F56" stroke-width="3" stroke-linejoin="round"/>
<path d="M392.518 60.6603L383.073 70.1048L399.056 70.1048L408.501 60.6603L392.518 60.6603Z" stroke="#C81F56" stroke-width="3" stroke-linejoin="round"/>
<defs>
<filter id="filter0_d" x="0" y="0.402466" width="483" height="378" filterUnits="userSpaceOnUse" color-interpolation-filters="sRGB">
<feFlood flood-opacity="0" result="BackgroundImageFix"/>
<feColorMatrix in="SourceAlpha" type="matrix" values="0 0 0 0 0 0 0 0 0 0 0 0 0 0 0 0 0 0 127 0"/>
<feOffset dy="8"/>
<feGaussianBlur stdDeviation="7.5"/>
<feColorMatrix type="matrix" values="0 0 0 0 0 0 0 0 0 0 0 0 0 0 0 0 0 0 0.1 0"/>
<feBlend mode="normal" in2="BackgroundImageFix" result="effect1_dropShadow"/>
<feBlend mode="normal" in="SourceGraphic" in2="effect1_dropShadow" result="shape"/>
</filter>
<radialGradient id="paint0_radial" cx="0" cy="0" r="1" gradientUnits="userSpaceOnUse" gradientTransform="translate(332.5 169.402) rotate(180) scale(218 283.776)">
<stop stop-color="white" stop-opacity="0"/>
<stop offset="1" stop-color="white"/>
</radialGradient>
</defs>
</svg>
