<svg width="483" height="379" viewBox="0 0 483 379" fill="none" xmlns="http://www.w3.org/2000/svg">
<g filter="url(#filter0_d)">
<mask id="mask0" mask-type="alpha" maskUnits="userSpaceOnUse" x="15" y="7" width="453" height="349">
<rect x="15" y="7.40234" width="453" height="348" rx="20" fill="#FE840E"/>
</mask>
<g mask="url(#mask0)">
<rect x="15" y="7.40234" width="453" height="348" fill="url(#paint0_linear)"/>
<path d="M407.647 623.976C342.037 612.198 285.523 554.61 239.524 490.281C193.602 426.057 158.3 355.016 166.365 288.463C174.43 221.91 225.92 159.482 287.756 121.724C349.668 84.0693 421.877 70.7981 491.326 80.5658C560.852 90.438 627.436 123.321 674.703 177.736C721.971 232.151 749.816 308.173 737.912 376.737C725.979 445.481 674.115 506.739 611.011 554.411C547.725 602.056 473.229 635.935 407.647 623.976Z" fill="#C81F56"/>
<path d="M113.22 75.2826C113.22 80.7626 111.34 85.1226 107.58 88.3626C103.86 91.5626 98.46 93.3626 91.38 93.7626V98.3826H80.52V93.7626C73.44 93.2426 68.02 91.4026 64.26 88.2426C60.54 85.0826 58.68 80.7626 58.68 75.2826C58.68 69.8026 60.54 65.4826 64.26 62.3226C67.98 59.1226 73.4 57.2626 80.52 56.7426V52.4226L91.38 52.4226V56.7426C98.46 57.2226 103.86 59.0626 107.58 62.2626C111.34 65.4226 113.22 69.7626 113.22 75.2826ZM91.38 84.5226C94.94 84.1226 97.54 83.1626 99.18 81.6426C100.86 80.1226 101.7 77.9826 101.7 75.2226C101.7 72.4626 100.84 70.3426 99.12 68.8626C97.44 67.3826 94.86 66.4426 91.38 66.0426V84.5226ZM70.2 75.2826C70.2 78.0026 71.06 80.1026 72.78 81.5826C74.5 83.0626 77.08 84.0226 80.52 84.4626V66.0426C76.92 66.4426 74.3 67.3826 72.66 68.8626C71.02 70.3426 70.2 72.4826 70.2 75.2826ZM118.131 63.8826H129.471V80.9226L143.091 63.8826H153.591V96.4026H142.191V79.3026L128.691 96.4026L118.131 96.4026V63.8826ZM160.656 63.8826H171.996V75.9426H183.696V63.8826H195.096V96.4026H183.696V85.0026H171.996V96.4026L160.656 96.4026V63.8826ZM202.185 63.8826H213.525V80.9226L227.145 63.8826H237.645V96.4026H226.245V79.3026L212.745 96.4026H202.185V63.8826ZM296.25 63.8826V96.4026H244.71V63.8826H256.05V87.2826H264.87V63.8826L276.21 63.8826V87.2826H284.97V63.8826L296.25 63.8826Z" fill="white"/>
<path d="M381.929 334.553H396.19L418.608 268.613L356.298 264.831L381.929 334.553Z" fill="url(#paint1_linear)"/>
<path d="M456.536 146.108C456.603 151.675 456.603 260.641 401.29 278.335C345.973 296.029 320.991 203.833 322.971 138.17L456.536 146.108Z" fill="url(#paint2_linear)"/>
<path d="M433.278 344.555H344.844V355.291H433.278V344.555Z" fill="url(#paint3_linear)"/>
<path d="M344.844 344.555H433.278L410.894 332.548H367.224L344.844 344.555Z" fill="url(#paint4_linear)"/>
<path d="M462.945 130.645C467.802 130.94 471.775 134.536 471.775 138.632V147.016C471.775 151.113 467.799 154.253 462.939 153.992L311.34 145.835C306.484 145.574 302.507 142.006 302.507 137.91V128.336C302.507 124.239 306.481 121.126 311.337 121.422L462.945 130.645Z" fill="url(#paint5_linear)"/>
<path d="M362.12 286.996C365.65 286.996 368.698 284.763 369.11 281.737C369.55 278.483 366.773 275.543 362.91 275.17C362.178 275.097 311.302 269.724 306.477 241.881C305.662 237.187 305.754 231.052 310.804 228.493C314.968 226.377 321.79 227.051 326.668 230.055C329.439 231.762 332.477 234.752 331.186 239.307C330.281 242.493 332.619 245.691 336.402 246.451C340.185 247.214 343.986 245.245 344.893 242.059C347.237 233.804 343.531 225.737 334.987 220.478C325.496 214.635 312.563 213.749 303.527 218.328C298.247 221.004 289.801 227.844 292.529 243.591C295.227 259.159 308.227 271.63 330.125 279.658C345.847 285.421 360.68 286.897 361.304 286.956C361.578 286.984 361.849 286.996 362.12 286.996Z" fill="url(#paint6_linear)"/>
<path d="M414.881 286.996C411.347 286.996 408.3 284.763 407.894 281.737C407.448 278.483 410.225 275.543 414.088 275.17C414.826 275.097 465.698 269.724 470.524 241.881C471.336 237.187 471.243 231.052 466.2 228.493C462.032 226.377 455.208 227.051 450.333 230.055C447.562 231.762 444.523 234.752 445.815 239.307C446.719 242.493 444.382 245.691 440.599 246.451C436.816 247.214 433.012 245.245 432.107 242.059C429.767 233.804 433.467 225.737 442.011 220.478C451.505 214.635 464.44 213.749 473.47 218.328C478.751 221.004 487.199 227.844 484.471 243.591C481.771 259.159 468.774 271.63 446.876 279.658C431.151 285.421 416.317 286.897 415.693 286.956C415.419 286.984 415.149 286.996 414.881 286.996Z" fill="url(#paint7_linear)"/>
</g>
<path d="M70.728 193.642C71.752 193.946 72.536 194.442 73.08 195.13C73.624 195.818 73.896 196.666 73.896 197.674C73.896 199.162 73.328 200.322 72.192 201.154C71.072 201.986 69.464 202.402 67.368 202.402H59.088V185.602H66.912C68.864 185.602 70.384 185.978 71.472 186.73C72.56 187.482 73.104 188.554 73.104 189.946C73.104 190.778 72.896 191.514 72.48 192.154C72.064 192.778 71.48 193.274 70.728 193.642ZM62.952 192.562H66.576C67.424 192.562 68.064 192.394 68.496 192.058C68.928 191.706 69.144 191.194 69.144 190.522C69.144 189.866 68.92 189.362 68.472 189.01C68.04 188.658 67.408 188.482 66.576 188.482H62.952V192.562ZM67.224 199.522C69.048 199.522 69.96 198.802 69.96 197.362C69.96 195.97 69.048 195.274 67.224 195.274H62.952V199.522H67.224ZM83.2348 193.618C84.9148 193.634 86.1868 194.01 87.0508 194.746C87.9148 195.482 88.3468 196.538 88.3468 197.914C88.3468 199.354 87.8588 200.466 86.8828 201.25C85.9068 202.034 84.5228 202.426 82.7308 202.426L76.4428 202.402V189.49H80.1628V193.618H83.2348ZM89.7388 189.49H93.4588V202.402H89.7388V189.49ZM82.3948 199.762C83.1148 199.778 83.6668 199.626 84.0508 199.306C84.4348 198.986 84.6268 198.506 84.6268 197.866C84.6268 197.242 84.4348 196.786 84.0508 196.498C83.6828 196.21 83.1308 196.058 82.3948 196.042L80.1628 196.018V199.762H82.3948ZM109.529 202.594C108.153 202.594 106.913 202.314 105.809 201.754C104.721 201.178 103.865 200.386 103.241 199.378C102.633 198.37 102.329 197.226 102.329 195.946C102.329 194.666 102.633 193.522 103.241 192.514C103.865 191.506 104.721 190.722 105.809 190.162C106.913 189.586 108.153 189.298 109.529 189.298C110.889 189.298 112.073 189.586 113.081 190.162C114.105 190.722 114.849 191.53 115.313 192.586L112.409 194.146C111.737 192.962 110.769 192.37 109.505 192.37C108.529 192.37 107.721 192.69 107.081 193.33C106.441 193.97 106.121 194.842 106.121 195.946C106.121 197.05 106.441 197.922 107.081 198.562C107.721 199.202 108.529 199.522 109.505 199.522C110.785 199.522 111.753 198.93 112.409 197.746L115.313 199.33C114.849 200.354 114.105 201.154 113.081 201.73C112.073 202.306 110.889 202.594 109.529 202.594ZM128.149 192.562H123.781V202.402H120.061V192.562H115.693V189.49H128.149V192.562ZM134.921 189.298C136.921 189.298 138.457 189.778 139.529 190.738C140.601 191.682 141.137 193.114 141.137 195.034V202.402H137.633V200.794C136.929 201.994 135.617 202.594 133.697 202.594C132.705 202.594 131.841 202.426 131.105 202.09C130.385 201.754 129.833 201.29 129.449 200.698C129.065 200.106 128.873 199.434 128.873 198.682C128.873 197.482 129.321 196.538 130.217 195.85C131.129 195.162 132.529 194.818 134.417 194.818H137.393C137.393 194.002 137.145 193.378 136.649 192.946C136.153 192.498 135.409 192.274 134.417 192.274C133.729 192.274 133.049 192.386 132.377 192.61C131.721 192.818 131.161 193.106 130.697 193.474L129.353 190.858C130.057 190.362 130.897 189.978 131.873 189.706C132.865 189.434 133.881 189.298 134.921 189.298ZM134.633 200.074C135.273 200.074 135.841 199.93 136.337 199.642C136.833 199.338 137.185 198.898 137.393 198.322V197.002H134.825C133.289 197.002 132.521 197.506 132.521 198.514C132.521 198.994 132.705 199.378 133.073 199.666C133.457 199.938 133.977 200.074 134.633 200.074ZM144.149 189.49H147.869V194.53H153.485V189.49H157.229V202.402H153.485V197.578H147.869V202.402H144.149V189.49ZM166.621 202.594C165.261 202.594 164.037 202.314 162.949 201.754C161.877 201.178 161.037 200.386 160.429 199.378C159.821 198.37 159.517 197.226 159.517 195.946C159.517 194.666 159.821 193.522 160.429 192.514C161.037 191.506 161.877 190.722 162.949 190.162C164.037 189.586 165.261 189.298 166.621 189.298C167.981 189.298 169.197 189.586 170.269 190.162C171.341 190.722 172.181 191.506 172.789 192.514C173.397 193.522 173.701 194.666 173.701 195.946C173.701 197.226 173.397 198.37 172.789 199.378C172.181 200.386 171.341 201.178 170.269 201.754C169.197 202.314 167.981 202.594 166.621 202.594ZM166.621 199.522C167.581 199.522 168.365 199.202 168.973 198.562C169.597 197.906 169.909 197.034 169.909 195.946C169.909 194.858 169.597 193.994 168.973 193.354C168.365 192.698 167.581 192.37 166.621 192.37C165.661 192.37 164.869 192.698 164.245 193.354C163.621 193.994 163.309 194.858 163.309 195.946C163.309 197.034 163.621 197.906 164.245 198.562C164.869 199.202 165.661 199.522 166.621 199.522ZM185.9 195.658C187.42 196.17 188.18 197.194 188.18 198.73C188.18 199.898 187.74 200.802 186.86 201.442C185.98 202.082 184.668 202.402 182.924 202.402H176.036V189.49H182.636C184.252 189.49 185.516 189.786 186.428 190.378C187.34 190.954 187.796 191.77 187.796 192.826C187.796 193.466 187.628 194.034 187.292 194.53C186.972 195.01 186.508 195.386 185.9 195.658ZM179.468 194.794H182.3C183.612 194.794 184.268 194.33 184.268 193.402C184.268 192.49 183.612 192.034 182.3 192.034H179.468V194.794ZM182.612 199.858C183.988 199.858 184.676 199.386 184.676 198.442C184.676 197.946 184.516 197.586 184.196 197.362C183.876 197.122 183.372 197.002 182.684 197.002H179.468V199.858H182.612ZM190.726 189.49H194.446V197.17L200.734 189.49H204.166V202.402H200.446V194.722L194.182 202.402H190.726V189.49ZM218.373 192.562H214.005V202.402H210.285V192.562H205.917V189.49H218.373V192.562ZM232.142 195.994C232.142 196.042 232.118 196.378 232.07 197.002H222.302C222.478 197.802 222.894 198.434 223.55 198.898C224.206 199.362 225.022 199.594 225.998 199.594C226.67 199.594 227.262 199.498 227.774 199.306C228.302 199.098 228.79 198.778 229.238 198.346L231.23 200.506C230.014 201.898 228.238 202.594 225.902 202.594C224.446 202.594 223.158 202.314 222.038 201.754C220.918 201.178 220.054 200.386 219.446 199.378C218.838 198.37 218.534 197.226 218.534 195.946C218.534 194.682 218.83 193.546 219.422 192.538C220.03 191.514 220.854 190.722 221.894 190.162C222.95 189.586 224.126 189.298 225.422 189.298C226.686 189.298 227.83 189.57 228.854 190.114C229.878 190.658 230.678 191.442 231.254 192.466C231.846 193.474 232.142 194.65 232.142 195.994ZM225.446 192.13C224.598 192.13 223.886 192.37 223.31 192.85C222.734 193.33 222.382 193.986 222.254 194.818H228.614C228.486 194.002 228.134 193.354 227.558 192.874C226.982 192.378 226.278 192.13 225.446 192.13ZM240.916 202.594C239.54 202.594 238.3 202.314 237.196 201.754C236.108 201.178 235.252 200.386 234.628 199.378C234.02 198.37 233.716 197.226 233.716 195.946C233.716 194.666 234.02 193.522 234.628 192.514C235.252 191.506 236.108 190.722 237.196 190.162C238.3 189.586 239.54 189.298 240.916 189.298C242.276 189.298 243.46 189.586 244.468 190.162C245.492 190.722 246.236 191.53 246.7 192.586L243.796 194.146C243.124 192.962 242.156 192.37 240.892 192.37C239.916 192.37 239.108 192.69 238.468 193.33C237.828 193.97 237.508 194.842 237.508 195.946C237.508 197.05 237.828 197.922 238.468 198.562C239.108 199.202 239.916 199.522 240.892 199.522C242.172 199.522 243.14 198.93 243.796 197.746L246.7 199.33C246.236 200.354 245.492 201.154 244.468 201.73C243.46 202.306 242.276 202.594 240.916 202.594ZM255.719 193.618C257.399 193.634 258.687 194.018 259.583 194.77C260.479 195.506 260.927 196.554 260.927 197.914C260.927 199.338 260.423 200.45 259.415 201.25C258.423 202.034 257.023 202.426 255.215 202.426L248.735 202.402V189.49H252.455V193.618H255.719ZM254.879 199.762C255.599 199.778 256.151 199.626 256.535 199.306C256.919 198.986 257.111 198.506 257.111 197.866C257.111 197.242 256.919 196.786 256.535 196.498C256.167 196.21 255.615 196.058 254.879 196.042L252.455 196.018V199.762H254.879ZM64.944 237.594C63.568 237.594 62.328 237.314 61.224 236.754C60.136 236.178 59.28 235.386 58.656 234.378C58.048 233.37 57.744 232.226 57.744 230.946C57.744 229.666 58.048 228.522 58.656 227.514C59.28 226.506 60.136 225.722 61.224 225.162C62.328 224.586 63.568 224.298 64.944 224.298C66.304 224.298 67.488 224.586 68.496 225.162C69.52 225.722 70.264 226.53 70.728 227.586L67.824 229.146C67.152 227.962 66.184 227.37 64.92 227.37C63.944 227.37 63.136 227.69 62.496 228.33C61.856 228.97 61.536 229.842 61.536 230.946C61.536 232.05 61.856 232.922 62.496 233.562C63.136 234.202 63.944 234.522 64.92 234.522C66.2 234.522 67.168 233.93 67.824 232.746L70.728 234.33C70.264 235.354 69.52 236.154 68.496 236.73C67.488 237.306 66.304 237.594 64.944 237.594ZM85.6031 224.49V237.402H81.8591V227.562H76.4831V237.402H72.7631V224.49H85.6031ZM101.505 230.994C101.505 231.042 101.481 231.378 101.433 232.002H91.6648C91.8408 232.802 92.2568 233.434 92.9128 233.898C93.5688 234.362 94.3848 234.594 95.3608 234.594C96.0328 234.594 96.6248 234.498 97.1368 234.306C97.6648 234.098 98.1528 233.778 98.6008 233.346L100.593 235.506C99.3768 236.898 97.6008 237.594 95.2648 237.594C93.8088 237.594 92.5208 237.314 91.4008 236.754C90.2808 236.178 89.4168 235.386 88.8088 234.378C88.2008 233.37 87.8968 232.226 87.8968 230.946C87.8968 229.682 88.1928 228.546 88.7848 227.538C89.3928 226.514 90.2168 225.722 91.2568 225.162C92.3128 224.586 93.4888 224.298 94.7848 224.298C96.0488 224.298 97.1928 224.57 98.2168 225.114C99.2408 225.658 100.041 226.442 100.617 227.466C101.209 228.474 101.505 229.65 101.505 230.994ZM94.8088 227.13C93.9608 227.13 93.2488 227.37 92.6728 227.85C92.0968 228.33 91.7448 228.986 91.6168 229.818H97.9768C97.8488 229.002 97.4968 228.354 96.9208 227.874C96.3448 227.378 95.6408 227.13 94.8088 227.13ZM118.679 234.33V240.234H115.199V237.402H104.135V224.49H107.855V234.33H113.063V224.49H116.807V234.33H118.679ZM120.793 224.49H124.513V232.17L130.801 224.49H134.233V237.402H130.513V229.722L124.249 237.402H120.793V224.49ZM142.608 224.298C144.608 224.298 146.144 224.778 147.216 225.738C148.288 226.682 148.824 228.114 148.824 230.034V237.402H145.32V235.794C144.616 236.994 143.304 237.594 141.384 237.594C140.392 237.594 139.528 237.426 138.792 237.09C138.072 236.754 137.52 236.29 137.136 235.698C136.752 235.106 136.56 234.434 136.56 233.682C136.56 232.482 137.008 231.538 137.904 230.85C138.816 230.162 140.216 229.818 142.104 229.818H145.08C145.08 229.002 144.832 228.378 144.336 227.946C143.84 227.498 143.096 227.274 142.104 227.274C141.416 227.274 140.736 227.386 140.064 227.61C139.408 227.818 138.848 228.106 138.384 228.474L137.04 225.858C137.744 225.362 138.584 224.978 139.56 224.706C140.552 224.434 141.568 224.298 142.608 224.298ZM142.32 235.074C142.96 235.074 143.528 234.93 144.024 234.642C144.52 234.338 144.872 233.898 145.08 233.322V232.002H142.512C140.976 232.002 140.208 232.506 140.208 233.514C140.208 233.994 140.392 234.378 140.76 234.666C141.144 234.938 141.664 235.074 142.32 235.074ZM164.221 224.49V237.402H160.477V227.562H156.397L156.277 229.842C156.213 231.538 156.053 232.946 155.797 234.066C155.541 235.186 155.125 236.066 154.549 236.706C153.973 237.346 153.173 237.666 152.149 237.666C151.605 237.666 150.957 237.57 150.205 237.378L150.397 234.306C150.653 234.338 150.837 234.354 150.949 234.354C151.509 234.354 151.925 234.154 152.197 233.754C152.485 233.338 152.677 232.818 152.773 232.194C152.869 231.554 152.941 230.714 152.989 229.674L153.181 224.49H164.221ZM167.581 224.49H171.301V232.17L177.589 224.49H181.021V237.402H177.301V229.722L171.037 237.402H167.581V224.49ZM190.524 237.594C189.148 237.594 187.908 237.314 186.804 236.754C185.716 236.178 184.86 235.386 184.236 234.378C183.628 233.37 183.324 232.226 183.324 230.946C183.324 229.666 183.628 228.522 184.236 227.514C184.86 226.506 185.716 225.722 186.804 225.162C187.908 224.586 189.148 224.298 190.524 224.298C191.884 224.298 193.068 224.586 194.076 225.162C195.1 225.722 195.844 226.53 196.308 227.586L193.404 229.146C192.732 227.962 191.764 227.37 190.5 227.37C189.524 227.37 188.716 227.69 188.076 228.33C187.436 228.97 187.116 229.842 187.116 230.946C187.116 232.05 187.436 232.922 188.076 233.562C188.716 234.202 189.524 234.522 190.5 234.522C191.78 234.522 192.748 233.93 193.404 232.746L196.308 234.33C195.844 235.354 195.1 236.154 194.076 236.73C193.068 237.306 191.884 237.594 190.524 237.594ZM209.144 227.562H204.776V237.402H201.056V227.562H196.688V224.49H209.144V227.562ZM216.409 237.594C215.049 237.594 213.825 237.314 212.737 236.754C211.665 236.178 210.825 235.386 210.217 234.378C209.609 233.37 209.305 232.226 209.305 230.946C209.305 229.666 209.609 228.522 210.217 227.514C210.825 226.506 211.665 225.722 212.737 225.162C213.825 224.586 215.049 224.298 216.409 224.298C217.769 224.298 218.985 224.586 220.057 225.162C221.129 225.722 221.969 226.506 222.577 227.514C223.185 228.522 223.489 229.666 223.489 230.946C223.489 232.226 223.185 233.37 222.577 234.378C221.969 235.386 221.129 236.178 220.057 236.754C218.985 237.314 217.769 237.594 216.409 237.594ZM216.409 234.522C217.369 234.522 218.153 234.202 218.761 233.562C219.385 232.906 219.697 232.034 219.697 230.946C219.697 229.858 219.385 228.994 218.761 228.354C218.153 227.698 217.369 227.37 216.409 227.37C215.449 227.37 214.657 227.698 214.033 228.354C213.409 228.994 213.097 229.858 213.097 230.946C213.097 232.034 213.409 232.906 214.033 233.562C214.657 234.202 215.449 234.522 216.409 234.522ZM238.424 237.402V229.674L234.56 236.154H232.976L229.208 229.65V237.402H225.824V224.49H229.736L233.864 231.954L238.256 224.49H241.76L241.808 237.402H238.424ZM58.8 259.49H62.52V267.17L68.808 259.49H72.24V272.402H68.52V264.722L62.256 272.402H58.8V259.49ZM94.9959 259.49V272.402H91.2519V262.562H85.8759V272.402H82.1559V259.49H94.9959ZM104.394 272.594C103.034 272.594 101.81 272.314 100.722 271.754C99.6496 271.178 98.8096 270.386 98.2016 269.378C97.5936 268.37 97.2896 267.226 97.2896 265.946C97.2896 264.666 97.5936 263.522 98.2016 262.514C98.8096 261.506 99.6496 260.722 100.722 260.162C101.81 259.586 103.034 259.298 104.394 259.298C105.754 259.298 106.97 259.586 108.042 260.162C109.114 260.722 109.954 261.506 110.562 262.514C111.17 263.522 111.474 264.666 111.474 265.946C111.474 267.226 111.17 268.37 110.562 269.378C109.954 270.386 109.114 271.178 108.042 271.754C106.97 272.314 105.754 272.594 104.394 272.594ZM104.394 269.522C105.354 269.522 106.138 269.202 106.746 268.562C107.37 267.906 107.682 267.034 107.682 265.946C107.682 264.858 107.37 263.994 106.746 263.354C106.138 262.698 105.354 262.37 104.394 262.37C103.434 262.37 102.642 262.698 102.018 263.354C101.394 263.994 101.082 264.858 101.082 265.946C101.082 267.034 101.394 267.906 102.018 268.562C102.642 269.202 103.434 269.522 104.394 269.522ZM126.005 259.49V272.402H122.261V262.562H118.181L118.061 264.842C117.997 266.538 117.837 267.946 117.581 269.066C117.325 270.186 116.909 271.066 116.333 271.706C115.757 272.346 114.957 272.666 113.933 272.666C113.389 272.666 112.741 272.57 111.989 272.378L112.181 269.306C112.437 269.338 112.621 269.354 112.733 269.354C113.293 269.354 113.709 269.154 113.981 268.754C114.269 268.338 114.461 267.818 114.557 267.194C114.653 266.554 114.725 265.714 114.773 264.674L114.965 259.49H126.005ZM142.302 259.49L136.47 273.194C135.878 274.682 135.142 275.73 134.262 276.338C133.398 276.946 132.35 277.25 131.118 277.25C130.446 277.25 129.782 277.146 129.126 276.938C128.47 276.73 127.934 276.442 127.518 276.074L128.886 273.41C129.174 273.666 129.502 273.866 129.87 274.01C130.254 274.154 130.63 274.226 130.998 274.226C131.51 274.226 131.926 274.098 132.246 273.842C132.566 273.602 132.854 273.194 133.11 272.618L133.158 272.498L127.566 259.49H131.43L135.054 268.25L138.702 259.49H142.302ZM155.484 259.49V272.402H151.74V267.602C150.652 268.146 149.452 268.418 148.14 268.418C146.396 268.418 145.076 268.026 144.18 267.242C143.3 266.442 142.86 265.21 142.86 263.546V259.49H146.604V263.306C146.604 264.09 146.804 264.658 147.204 265.01C147.62 265.362 148.212 265.538 148.98 265.538C149.956 265.538 150.876 265.33 151.74 264.914V259.49H155.484ZM163.855 259.298C165.855 259.298 167.391 259.778 168.463 260.738C169.535 261.682 170.071 263.114 170.071 265.034V272.402H166.567V270.794C165.863 271.994 164.551 272.594 162.631 272.594C161.639 272.594 160.775 272.426 160.039 272.09C159.319 271.754 158.767 271.29 158.383 270.698C157.999 270.106 157.807 269.434 157.807 268.682C157.807 267.482 158.255 266.538 159.151 265.85C160.063 265.162 161.463 264.818 163.351 264.818H166.327C166.327 264.002 166.079 263.378 165.583 262.946C165.087 262.498 164.343 262.274 163.351 262.274C162.663 262.274 161.983 262.386 161.311 262.61C160.655 262.818 160.095 263.106 159.631 263.474L158.287 260.858C158.991 260.362 159.831 259.978 160.807 259.706C161.799 259.434 162.815 259.298 163.855 259.298ZM163.567 270.074C164.207 270.074 164.775 269.93 165.271 269.642C165.767 269.338 166.119 268.898 166.327 268.322V267.002H163.759C162.223 267.002 161.455 267.506 161.455 268.514C161.455 268.994 161.639 269.378 162.007 269.666C162.391 269.938 162.911 270.074 163.567 270.074ZM185.635 265.994C185.635 266.042 185.611 266.378 185.563 267.002H175.795C175.971 267.802 176.387 268.434 177.043 268.898C177.699 269.362 178.515 269.594 179.491 269.594C180.163 269.594 180.755 269.498 181.267 269.306C181.795 269.098 182.283 268.778 182.731 268.346L184.723 270.506C183.507 271.898 181.731 272.594 179.395 272.594C177.939 272.594 176.651 272.314 175.531 271.754C174.411 271.178 173.547 270.386 172.939 269.378C172.331 268.37 172.027 267.226 172.027 265.946C172.027 264.682 172.323 263.546 172.915 262.538C173.523 261.514 174.347 260.722 175.387 260.162C176.443 259.586 177.619 259.298 178.915 259.298C180.179 259.298 181.323 259.57 182.347 260.114C183.371 260.658 184.171 261.442 184.747 262.466C185.339 263.474 185.635 264.65 185.635 265.994ZM178.939 262.13C178.091 262.13 177.379 262.37 176.803 262.85C176.227 263.33 175.875 263.986 175.747 264.818H182.107C181.979 264.002 181.627 263.354 181.051 262.874C180.475 262.378 179.771 262.13 178.939 262.13ZM198.668 262.562H194.3V272.402H190.58V262.562H186.212V259.49H198.668V262.562ZM212.436 265.994C212.436 266.042 212.412 266.378 212.364 267.002H202.596C202.772 267.802 203.188 268.434 203.844 268.898C204.5 269.362 205.316 269.594 206.292 269.594C206.964 269.594 207.556 269.498 208.068 269.306C208.596 269.098 209.084 268.778 209.532 268.346L211.524 270.506C210.308 271.898 208.532 272.594 206.196 272.594C204.74 272.594 203.452 272.314 202.332 271.754C201.212 271.178 200.348 270.386 199.74 269.378C199.132 268.37 198.828 267.226 198.828 265.946C198.828 264.682 199.124 263.546 199.716 262.538C200.324 261.514 201.148 260.722 202.188 260.162C203.244 259.586 204.42 259.298 205.716 259.298C206.98 259.298 208.124 259.57 209.148 260.114C210.172 260.658 210.972 261.442 211.548 262.466C212.14 263.474 212.436 264.65 212.436 265.994ZM205.74 262.13C204.892 262.13 204.18 262.37 203.604 262.85C203.028 263.33 202.676 263.986 202.548 264.818H208.908C208.78 264.002 208.428 263.354 207.852 262.874C207.276 262.378 206.572 262.13 205.74 262.13ZM64.848 307.594C63.488 307.594 62.264 307.314 61.176 306.754C60.104 306.178 59.264 305.386 58.656 304.378C58.048 303.37 57.744 302.226 57.744 300.946C57.744 299.666 58.048 298.522 58.656 297.514C59.264 296.506 60.104 295.722 61.176 295.162C62.264 294.586 63.488 294.298 64.848 294.298C66.208 294.298 67.424 294.586 68.496 295.162C69.568 295.722 70.408 296.506 71.016 297.514C71.624 298.522 71.928 299.666 71.928 300.946C71.928 302.226 71.624 303.37 71.016 304.378C70.408 305.386 69.568 306.178 68.496 306.754C67.424 307.314 66.208 307.594 64.848 307.594ZM64.848 304.522C65.808 304.522 66.592 304.202 67.2 303.562C67.824 302.906 68.136 302.034 68.136 300.946C68.136 299.858 67.824 298.994 67.2 298.354C66.592 297.698 65.808 297.37 64.848 297.37C63.888 297.37 63.096 297.698 62.472 298.354C61.848 298.994 61.536 299.858 61.536 300.946C61.536 302.034 61.848 302.906 62.472 303.562C63.096 304.202 63.888 304.522 64.848 304.522ZM84.6424 297.562H80.2744V307.402H76.5544V297.562H72.1864V294.49H84.6424V297.562ZM92.955 294.49H96.675V299.53H102.291V294.49H106.035V307.402H102.291V302.578H96.675V307.402H92.955V294.49ZM114.395 294.298C116.395 294.298 117.931 294.778 119.003 295.738C120.075 296.682 120.611 298.114 120.611 300.034V307.402H117.107V305.794C116.403 306.994 115.091 307.594 113.171 307.594C112.179 307.594 111.315 307.426 110.579 307.09C109.859 306.754 109.307 306.29 108.923 305.698C108.539 305.106 108.347 304.434 108.347 303.682C108.347 302.482 108.795 301.538 109.691 300.85C110.603 300.162 112.003 299.818 113.891 299.818H116.867C116.867 299.002 116.619 298.378 116.123 297.946C115.627 297.498 114.883 297.274 113.891 297.274C113.203 297.274 112.523 297.386 111.851 297.61C111.195 297.818 110.635 298.106 110.171 298.474L108.827 295.858C109.531 295.362 110.371 294.978 111.347 294.706C112.339 294.434 113.355 294.298 114.395 294.298ZM114.107 305.074C114.747 305.074 115.315 304.93 115.811 304.642C116.307 304.338 116.659 303.898 116.867 303.322V302.002H114.299C112.763 302.002 111.995 302.506 111.995 303.514C111.995 303.994 112.179 304.378 112.547 304.666C112.931 304.938 113.451 305.074 114.107 305.074ZM129.767 307.594C128.391 307.594 127.151 307.314 126.047 306.754C124.959 306.178 124.103 305.386 123.479 304.378C122.871 303.37 122.567 302.226 122.567 300.946C122.567 299.666 122.871 298.522 123.479 297.514C124.103 296.506 124.959 295.722 126.047 295.162C127.151 294.586 128.391 294.298 129.767 294.298C131.127 294.298 132.311 294.586 133.319 295.162C134.343 295.722 135.087 296.53 135.551 297.586L132.647 299.146C131.975 297.962 131.007 297.37 129.743 297.37C128.767 297.37 127.959 297.69 127.319 298.33C126.679 298.97 126.359 299.842 126.359 300.946C126.359 302.05 126.679 302.922 127.319 303.562C127.959 304.202 128.767 304.522 129.743 304.522C131.023 304.522 131.991 303.93 132.647 302.746L135.551 304.33C135.087 305.354 134.343 306.154 133.319 306.73C132.311 307.306 131.127 307.594 129.767 307.594ZM150.287 307.594C148.911 307.594 147.671 307.314 146.567 306.754C145.479 306.178 144.623 305.386 143.999 304.378C143.391 303.37 143.087 302.226 143.087 300.946C143.087 299.666 143.391 298.522 143.999 297.514C144.623 296.506 145.479 295.722 146.567 295.162C147.671 294.586 148.911 294.298 150.287 294.298C151.647 294.298 152.831 294.586 153.839 295.162C154.863 295.722 155.607 296.53 156.071 297.586L153.167 299.146C152.495 297.962 151.527 297.37 150.263 297.37C149.287 297.37 148.479 297.69 147.839 298.33C147.199 298.97 146.879 299.842 146.879 300.946C146.879 302.05 147.199 302.922 147.839 303.562C148.479 304.202 149.287 304.522 150.263 304.522C151.543 304.522 152.511 303.93 153.167 302.746L156.071 304.33C155.607 305.354 154.863 306.154 153.839 306.73C152.831 307.306 151.647 307.594 150.287 307.594ZM170.495 300.994C170.495 301.042 170.471 301.378 170.423 302.002H160.655C160.831 302.802 161.247 303.434 161.903 303.898C162.559 304.362 163.375 304.594 164.351 304.594C165.023 304.594 165.615 304.498 166.127 304.306C166.655 304.098 167.143 303.778 167.591 303.346L169.583 305.506C168.367 306.898 166.591 307.594 164.255 307.594C162.799 307.594 161.511 307.314 160.391 306.754C159.271 306.178 158.407 305.386 157.799 304.378C157.191 303.37 156.887 302.226 156.887 300.946C156.887 299.682 157.183 298.546 157.775 297.538C158.383 296.514 159.207 295.722 160.247 295.162C161.303 294.586 162.479 294.298 163.775 294.298C165.039 294.298 166.183 294.57 167.207 295.114C168.231 295.658 169.031 296.442 169.607 297.466C170.199 298.474 170.495 299.65 170.495 300.994ZM163.799 297.13C162.951 297.13 162.239 297.37 161.663 297.85C161.087 298.33 160.735 298.986 160.607 299.818H166.967C166.839 299.002 166.487 298.354 165.911 297.874C165.335 297.378 164.631 297.13 163.799 297.13ZM180.732 294.298C181.932 294.298 183.02 294.578 183.996 295.138C184.988 295.682 185.764 296.458 186.324 297.466C186.884 298.458 187.164 299.618 187.164 300.946C187.164 302.274 186.884 303.442 186.324 304.45C185.764 305.442 184.988 306.218 183.996 306.778C183.02 307.322 181.932 307.594 180.732 307.594C179.084 307.594 177.788 307.074 176.844 306.034V312.058H173.1V294.49H176.676V295.978C177.604 294.858 178.956 294.298 180.732 294.298ZM180.084 304.522C181.044 304.522 181.828 304.202 182.436 303.562C183.06 302.906 183.372 302.034 183.372 300.946C183.372 299.858 183.06 298.994 182.436 298.354C181.828 297.698 181.044 297.37 180.084 297.37C179.124 297.37 178.332 297.698 177.708 298.354C177.1 298.994 176.796 299.858 176.796 300.946C176.796 302.034 177.1 302.906 177.708 303.562C178.332 304.202 179.124 304.522 180.084 304.522ZM199.928 297.562H195.56V307.402H191.84V297.562H187.472V294.49H199.928V297.562ZM201.683 294.49H205.403V302.17L211.691 294.49H215.123V307.402H211.403V299.722L205.139 307.402H201.683V294.49ZM236.314 300.898C236.314 302.898 235.642 304.482 234.298 305.65C232.97 306.802 231.066 307.466 228.586 307.642V312.058H225.154V307.642C222.674 307.466 220.762 306.81 219.418 305.674C218.09 304.522 217.426 302.93 217.426 300.898C217.426 298.898 218.082 297.346 219.394 296.242C220.722 295.138 222.642 294.498 225.154 294.322V289.594H228.586V294.322C231.066 294.498 232.97 295.146 234.298 296.266C235.642 297.386 236.314 298.93 236.314 300.898ZM221.05 300.898C221.05 302.05 221.378 302.938 222.034 303.562C222.69 304.186 223.73 304.578 225.154 304.738V297.226C223.73 297.37 222.69 297.746 222.034 298.354C221.378 298.946 221.05 299.794 221.05 300.898ZM228.586 304.738C230.01 304.578 231.05 304.186 231.706 303.562C232.378 302.938 232.714 302.05 232.714 300.898C232.714 299.794 232.378 298.946 231.706 298.354C231.05 297.746 230.01 297.37 228.586 297.226V304.738ZM238.61 294.49H242.33V302.17L248.618 294.49H252.05V307.402H248.33V299.722L242.066 307.402H238.61V294.49ZM261.097 302.506H259.153V307.402H255.409V294.49H259.153V299.506H261.169L264.673 294.49H268.657L264.145 300.682L268.969 307.402H264.553L261.097 302.506ZM275.349 294.298C277.349 294.298 278.885 294.778 279.957 295.738C281.029 296.682 281.565 298.114 281.565 300.034V307.402H278.061V305.794C277.357 306.994 276.045 307.594 274.125 307.594C273.133 307.594 272.269 307.426 271.533 307.09C270.813 306.754 270.261 306.29 269.877 305.698C269.493 305.106 269.301 304.434 269.301 303.682C269.301 302.482 269.749 301.538 270.645 300.85C271.557 300.162 272.957 299.818 274.845 299.818H277.821C277.821 299.002 277.573 298.378 277.077 297.946C276.581 297.498 275.837 297.274 274.845 297.274C274.157 297.274 273.477 297.386 272.805 297.61C272.149 297.818 271.589 298.106 271.125 298.474L269.781 295.858C270.485 295.362 271.325 294.978 272.301 294.706C273.293 294.434 274.309 294.298 275.349 294.298ZM275.061 305.074C275.701 305.074 276.269 304.93 276.765 304.642C277.261 304.338 277.613 303.898 277.821 303.322V302.002H275.253C273.717 302.002 272.949 302.506 272.949 303.514C272.949 303.994 273.133 304.378 273.501 304.666C273.885 304.938 274.405 305.074 275.061 305.074ZM295.425 297.562H291.057V307.402H287.337V297.562H282.969V294.49H295.425V297.562ZM296.629 290.602H301.093L300.349 301.57H297.373L296.629 290.602ZM298.861 307.594C298.205 307.594 297.653 307.386 297.205 306.97C296.773 306.538 296.557 306.018 296.557 305.41C296.557 304.802 296.773 304.298 297.205 303.898C297.637 303.482 298.189 303.274 298.861 303.274C299.533 303.274 300.085 303.482 300.517 303.898C300.949 304.298 301.165 304.802 301.165 305.41C301.165 306.018 300.941 306.538 300.493 306.97C300.061 307.386 299.517 307.594 298.861 307.594Z" fill="white"/>
</g>
<defs>
<filter id="filter0_d" x="0" y="0.402344" width="483" height="378" filterUnits="userSpaceOnUse" color-interpolation-filters="sRGB">
<feFlood flood-opacity="0" result="BackgroundImageFix"/>
<feColorMatrix in="SourceAlpha" type="matrix" values="0 0 0 0 0 0 0 0 0 0 0 0 0 0 0 0 0 0 127 0"/>
<feOffset dy="8"/>
<feGaussianBlur stdDeviation="7.5"/>
<feColorMatrix type="matrix" values="0 0 0 0 0 0 0 0 0 0 0 0 0 0 0 0 0 0 0.1 0"/>
<feBlend mode="normal" in2="BackgroundImageFix" result="effect1_dropShadow"/>
<feBlend mode="normal" in="SourceGraphic" in2="effect1_dropShadow" result="shape"/>
</filter>
<linearGradient id="paint0_linear" x1="468" y1="355.402" x2="24.5" y2="7.40233" gradientUnits="userSpaceOnUse">
<stop stop-color="#FEB447"/>
<stop offset="1" stop-color="#FE840E"/>
</linearGradient>
<linearGradient id="paint1_linear" x1="366.436" y1="264.761" x2="530.887" y2="475.491" gradientUnits="userSpaceOnUse">
<stop stop-color="#FEB447"/>
<stop offset="1" stop-color="#FE840E"/>
</linearGradient>
<linearGradient id="paint2_linear" x1="333.354" y1="113.683" x2="450.246" y2="325.412" gradientUnits="userSpaceOnUse">
<stop stop-color="#FEB447"/>
<stop offset="1" stop-color="#FE840E"/>
</linearGradient>
<linearGradient id="paint3_linear" x1="388.219" y1="336.11" x2="393.463" y2="421.997" gradientUnits="userSpaceOnUse">
<stop stop-color="#FEB447"/>
<stop offset="1" stop-color="#FE840E"/>
</linearGradient>
<linearGradient id="paint4_linear" x1="349.805" y1="301.675" x2="407.728" y2="359.598" gradientUnits="userSpaceOnUse">
<stop stop-color="#FEB447"/>
<stop offset="1" stop-color="#FE840E"/>
</linearGradient>
<linearGradient id="paint5_linear" x1="312.402" y1="76.7407" x2="481.123" y2="201.806" gradientUnits="userSpaceOnUse">
<stop stop-color="#FEB447"/>
<stop offset="1" stop-color="#FE840E"/>
</linearGradient>
<linearGradient id="paint6_linear" x1="292.169" y1="207.238" x2="435.812" y2="386.977" gradientUnits="userSpaceOnUse">
<stop stop-color="#FEB447"/>
<stop offset="1" stop-color="#FE840E"/>
</linearGradient>
<linearGradient id="paint7_linear" x1="408.015" y1="207.238" x2="551.66" y2="386.974" gradientUnits="userSpaceOnUse">
<stop stop-color="#FEB447"/>
<stop offset="1" stop-color="#FE840E"/>
</linearGradient>
</defs>
</svg>
