<svg width="483" height="379" viewBox="0 0 483 379" fill="none" xmlns="http://www.w3.org/2000/svg">
<g filter="url(#filter0_d)">
<mask id="mask0" mask-type="alpha" maskUnits="userSpaceOnUse" x="15" y="7" width="453" height="349">
<rect x="15" y="7.40234" width="453" height="348" rx="20" fill="#FE840E"/>
</mask>
<g mask="url(#mask0)">
<rect x="15" y="7.40234" width="453" height="348" fill="white"/>
<circle cx="110.5" cy="9.90234" r="1.5" fill="#E3E3E3"/>
<circle cx="128.5" cy="9.90234" r="1.5" fill="#E3E3E3"/>
<circle cx="146.5" cy="9.90234" r="1.5" fill="#E3E3E3"/>
<circle cx="164.5" cy="9.90234" r="1.5" fill="#E3E3E3"/>
<circle cx="182.5" cy="9.90234" r="1.5" fill="#E3E3E3"/>
<circle cx="200.5" cy="9.90234" r="1.5" fill="#E3E3E3"/>
<circle cx="218.5" cy="9.90234" r="1.5" fill="#E3E3E3"/>
<circle cx="236.5" cy="9.90234" r="1.5" fill="#E3E3E3"/>
<circle cx="254.5" cy="9.90234" r="1.5" fill="#E3E3E3"/>
<circle cx="272.5" cy="9.90234" r="1.5" fill="#E3E3E3"/>
<circle cx="290.5" cy="9.90234" r="1.5" fill="#E3E3E3"/>
<circle cx="308.5" cy="9.90234" r="1.5" fill="#E3E3E3"/>
<circle cx="326.5" cy="9.90234" r="1.5" fill="#E3E3E3"/>
<circle cx="344.5" cy="9.90234" r="1.5" fill="#E3E3E3"/>
<circle cx="362.5" cy="9.90234" r="1.5" fill="#E3E3E3"/>
<circle cx="380.5" cy="9.90234" r="1.5" fill="#E3E3E3"/>
<circle cx="398.5" cy="9.90234" r="1.5" fill="#E3E3E3"/>
<circle cx="416.5" cy="9.90234" r="1.5" fill="#E3E3E3"/>
<circle cx="434.5" cy="9.90234" r="1.5" fill="#E3E3E3"/>
<circle cx="452.5" cy="9.90234" r="1.5" fill="#E3E3E3"/>
<circle cx="110.5" cy="27.9023" r="1.5" fill="#E3E3E3"/>
<circle cx="128.5" cy="27.9023" r="1.5" fill="#E3E3E3"/>
<circle cx="146.5" cy="27.9023" r="1.5" fill="#E3E3E3"/>
<circle cx="164.5" cy="27.9023" r="1.5" fill="#E3E3E3"/>
<circle cx="182.5" cy="27.9023" r="1.5" fill="#E3E3E3"/>
<circle cx="200.5" cy="27.9023" r="1.5" fill="#E3E3E3"/>
<circle cx="218.5" cy="27.9023" r="1.5" fill="#E3E3E3"/>
<circle cx="236.5" cy="27.9023" r="1.5" fill="#E3E3E3"/>
<circle cx="254.5" cy="27.9023" r="1.5" fill="#E3E3E3"/>
<circle cx="272.5" cy="27.9023" r="1.5" fill="#E3E3E3"/>
<circle cx="290.5" cy="27.9023" r="1.5" fill="#E3E3E3"/>
<circle cx="308.5" cy="27.9023" r="1.5" fill="#E3E3E3"/>
<circle cx="326.5" cy="27.9023" r="1.5" fill="#E3E3E3"/>
<circle cx="344.5" cy="27.9023" r="1.5" fill="#E3E3E3"/>
<circle cx="362.5" cy="27.9023" r="1.5" fill="#E3E3E3"/>
<circle cx="380.5" cy="27.9023" r="1.5" fill="#E3E3E3"/>
<circle cx="398.5" cy="27.9023" r="1.5" fill="#E3E3E3"/>
<circle cx="416.5" cy="27.9023" r="1.5" fill="#E3E3E3"/>
<circle cx="434.5" cy="27.9023" r="1.5" fill="#E3E3E3"/>
<circle cx="452.5" cy="27.9023" r="1.5" fill="#E3E3E3"/>
<circle cx="110.5" cy="45.9023" r="1.5" fill="#E3E3E3"/>
<circle cx="128.5" cy="45.9023" r="1.5" fill="#E3E3E3"/>
<circle cx="146.5" cy="45.9023" r="1.5" fill="#E3E3E3"/>
<circle cx="164.5" cy="45.9023" r="1.5" fill="#E3E3E3"/>
<circle cx="182.5" cy="45.9023" r="1.5" fill="#E3E3E3"/>
<circle cx="200.5" cy="45.9023" r="1.5" fill="#E3E3E3"/>
<circle cx="218.5" cy="45.9023" r="1.5" fill="#E3E3E3"/>
<circle cx="236.5" cy="45.9023" r="1.5" fill="#E3E3E3"/>
<circle cx="254.5" cy="45.9023" r="1.5" fill="#E3E3E3"/>
<circle cx="272.5" cy="45.9023" r="1.5" fill="#E3E3E3"/>
<circle cx="290.5" cy="45.9023" r="1.5" fill="#E3E3E3"/>
<circle cx="308.5" cy="45.9023" r="1.5" fill="#E3E3E3"/>
<circle cx="326.5" cy="45.9023" r="1.5" fill="#E3E3E3"/>
<circle cx="344.5" cy="45.9023" r="1.5" fill="#E3E3E3"/>
<circle cx="362.5" cy="45.9023" r="1.5" fill="#E3E3E3"/>
<circle cx="380.5" cy="45.9023" r="1.5" fill="#E3E3E3"/>
<circle cx="398.5" cy="45.9023" r="1.5" fill="#E3E3E3"/>
<circle cx="416.5" cy="45.9023" r="1.5" fill="#E3E3E3"/>
<circle cx="434.5" cy="45.9023" r="1.5" fill="#E3E3E3"/>
<circle cx="452.5" cy="45.9023" r="1.5" fill="#E3E3E3"/>
<circle cx="110.5" cy="63.9023" r="1.5" fill="#E3E3E3"/>
<circle cx="128.5" cy="63.9023" r="1.5" fill="#E3E3E3"/>
<circle cx="146.5" cy="63.9023" r="1.5" fill="#E3E3E3"/>
<circle cx="164.5" cy="63.9023" r="1.5" fill="#E3E3E3"/>
<circle cx="182.5" cy="63.9023" r="1.5" fill="#E3E3E3"/>
<circle cx="200.5" cy="63.9023" r="1.5" fill="#E3E3E3"/>
<circle cx="218.5" cy="63.9023" r="1.5" fill="#E3E3E3"/>
<circle cx="236.5" cy="63.9023" r="1.5" fill="#E3E3E3"/>
<circle cx="254.5" cy="63.9023" r="1.5" fill="#E3E3E3"/>
<circle cx="272.5" cy="63.9023" r="1.5" fill="#E3E3E3"/>
<circle cx="290.5" cy="63.9023" r="1.5" fill="#E3E3E3"/>
<circle cx="308.5" cy="63.9023" r="1.5" fill="#E3E3E3"/>
<circle cx="326.5" cy="63.9023" r="1.5" fill="#E3E3E3"/>
<circle cx="344.5" cy="63.9023" r="1.5" fill="#E3E3E3"/>
<circle cx="362.5" cy="63.9023" r="1.5" fill="#E3E3E3"/>
<circle cx="380.5" cy="63.9023" r="1.5" fill="#E3E3E3"/>
<circle cx="398.5" cy="63.9023" r="1.5" fill="#E3E3E3"/>
<circle cx="416.5" cy="63.9023" r="1.5" fill="#E3E3E3"/>
<circle cx="434.5" cy="63.9023" r="1.5" fill="#E3E3E3"/>
<circle cx="452.5" cy="63.9023" r="1.5" fill="#E3E3E3"/>
<circle cx="110.5" cy="81.9023" r="1.5" fill="#E3E3E3"/>
<circle cx="128.5" cy="81.9023" r="1.5" fill="#E3E3E3"/>
<circle cx="146.5" cy="81.9023" r="1.5" fill="#E3E3E3"/>
<circle cx="164.5" cy="81.9023" r="1.5" fill="#E3E3E3"/>
<circle cx="182.5" cy="81.9023" r="1.5" fill="#E3E3E3"/>
<circle cx="200.5" cy="81.9023" r="1.5" fill="#E3E3E3"/>
<circle cx="218.5" cy="81.9023" r="1.5" fill="#E3E3E3"/>
<circle cx="236.5" cy="81.9023" r="1.5" fill="#E3E3E3"/>
<circle cx="254.5" cy="81.9023" r="1.5" fill="#E3E3E3"/>
<circle cx="272.5" cy="81.9023" r="1.5" fill="#E3E3E3"/>
<circle cx="290.5" cy="81.9023" r="1.5" fill="#E3E3E3"/>
<circle cx="308.5" cy="81.9023" r="1.5" fill="#E3E3E3"/>
<circle cx="326.5" cy="81.9023" r="1.5" fill="#E3E3E3"/>
<circle cx="344.5" cy="81.9023" r="1.5" fill="#E3E3E3"/>
<circle cx="362.5" cy="81.9023" r="1.5" fill="#E3E3E3"/>
<circle cx="380.5" cy="81.9023" r="1.5" fill="#E3E3E3"/>
<circle cx="398.5" cy="81.9023" r="1.5" fill="#E3E3E3"/>
<circle cx="416.5" cy="81.9023" r="1.5" fill="#E3E3E3"/>
<circle cx="434.5" cy="81.9023" r="1.5" fill="#E3E3E3"/>
<circle cx="452.5" cy="81.9023" r="1.5" fill="#E3E3E3"/>
<circle cx="110.5" cy="99.9023" r="1.5" fill="#E3E3E3"/>
<circle cx="128.5" cy="99.9023" r="1.5" fill="#E3E3E3"/>
<circle cx="146.5" cy="99.9023" r="1.5" fill="#E3E3E3"/>
<circle cx="164.5" cy="99.9023" r="1.5" fill="#E3E3E3"/>
<circle cx="182.5" cy="99.9023" r="1.5" fill="#E3E3E3"/>
<circle cx="200.5" cy="99.9023" r="1.5" fill="#E3E3E3"/>
<circle cx="218.5" cy="99.9023" r="1.5" fill="#E3E3E3"/>
<circle cx="236.5" cy="99.9023" r="1.5" fill="#E3E3E3"/>
<circle cx="254.5" cy="99.9023" r="1.5" fill="#E3E3E3"/>
<circle cx="272.5" cy="99.9023" r="1.5" fill="#E3E3E3"/>
<circle cx="290.5" cy="99.9023" r="1.5" fill="#E3E3E3"/>
<circle cx="308.5" cy="99.9023" r="1.5" fill="#E3E3E3"/>
<circle cx="326.5" cy="99.9023" r="1.5" fill="#E3E3E3"/>
<circle cx="344.5" cy="99.9023" r="1.5" fill="#E3E3E3"/>
<circle cx="362.5" cy="99.9023" r="1.5" fill="#E3E3E3"/>
<circle cx="380.5" cy="99.9023" r="1.5" fill="#E3E3E3"/>
<circle cx="398.5" cy="99.9023" r="1.5" fill="#E3E3E3"/>
<circle cx="416.5" cy="99.9023" r="1.5" fill="#E3E3E3"/>
<circle cx="434.5" cy="99.9023" r="1.5" fill="#E3E3E3"/>
<circle cx="452.5" cy="99.9023" r="1.5" fill="#E3E3E3"/>
<circle cx="110.5" cy="117.902" r="1.5" fill="#E3E3E3"/>
<circle cx="128.5" cy="117.902" r="1.5" fill="#E3E3E3"/>
<circle cx="146.5" cy="117.902" r="1.5" fill="#E3E3E3"/>
<circle cx="164.5" cy="117.902" r="1.5" fill="#E3E3E3"/>
<circle cx="182.5" cy="117.902" r="1.5" fill="#E3E3E3"/>
<circle cx="200.5" cy="117.902" r="1.5" fill="#E3E3E3"/>
<circle cx="218.5" cy="117.902" r="1.5" fill="#E3E3E3"/>
<circle cx="236.5" cy="117.902" r="1.5" fill="#E3E3E3"/>
<circle cx="254.5" cy="117.902" r="1.5" fill="#E3E3E3"/>
<circle cx="272.5" cy="117.902" r="1.5" fill="#E3E3E3"/>
<circle cx="290.5" cy="117.902" r="1.5" fill="#E3E3E3"/>
<circle cx="308.5" cy="117.902" r="1.5" fill="#E3E3E3"/>
<circle cx="326.5" cy="117.902" r="1.5" fill="#E3E3E3"/>
<circle cx="344.5" cy="117.902" r="1.5" fill="#E3E3E3"/>
<circle cx="362.5" cy="117.902" r="1.5" fill="#E3E3E3"/>
<circle cx="380.5" cy="117.902" r="1.5" fill="#E3E3E3"/>
<circle cx="398.5" cy="117.902" r="1.5" fill="#E3E3E3"/>
<circle cx="416.5" cy="117.902" r="1.5" fill="#E3E3E3"/>
<circle cx="434.5" cy="117.902" r="1.5" fill="#E3E3E3"/>
<circle cx="452.5" cy="117.902" r="1.5" fill="#E3E3E3"/>
<circle cx="110.5" cy="135.902" r="1.5" fill="#E3E3E3"/>
<circle cx="128.5" cy="135.902" r="1.5" fill="#E3E3E3"/>
<circle cx="146.5" cy="135.902" r="1.5" fill="#E3E3E3"/>
<circle cx="164.5" cy="135.902" r="1.5" fill="#E3E3E3"/>
<circle cx="182.5" cy="135.902" r="1.5" fill="#E3E3E3"/>
<circle cx="200.5" cy="135.902" r="1.5" fill="#E3E3E3"/>
<circle cx="218.5" cy="135.902" r="1.5" fill="#E3E3E3"/>
<circle cx="236.5" cy="135.902" r="1.5" fill="#E3E3E3"/>
<circle cx="254.5" cy="135.902" r="1.5" fill="#E3E3E3"/>
<circle cx="272.5" cy="135.902" r="1.5" fill="#E3E3E3"/>
<circle cx="290.5" cy="135.902" r="1.5" fill="#E3E3E3"/>
<circle cx="308.5" cy="135.902" r="1.5" fill="#E3E3E3"/>
<circle cx="326.5" cy="135.902" r="1.5" fill="#E3E3E3"/>
<circle cx="344.5" cy="135.902" r="1.5" fill="#E3E3E3"/>
<circle cx="362.5" cy="135.902" r="1.5" fill="#E3E3E3"/>
<circle cx="380.5" cy="135.902" r="1.5" fill="#E3E3E3"/>
<circle cx="398.5" cy="135.902" r="1.5" fill="#E3E3E3"/>
<circle cx="416.5" cy="135.902" r="1.5" fill="#E3E3E3"/>
<circle cx="434.5" cy="135.902" r="1.5" fill="#E3E3E3"/>
<circle cx="452.5" cy="135.902" r="1.5" fill="#E3E3E3"/>
<circle cx="110.5" cy="153.902" r="1.5" fill="#E3E3E3"/>
<circle cx="128.5" cy="153.902" r="1.5" fill="#E3E3E3"/>
<circle cx="146.5" cy="153.902" r="1.5" fill="#E3E3E3"/>
<circle cx="164.5" cy="153.902" r="1.5" fill="#E3E3E3"/>
<circle cx="182.5" cy="153.902" r="1.5" fill="#E3E3E3"/>
<circle cx="200.5" cy="153.902" r="1.5" fill="#E3E3E3"/>
<circle cx="218.5" cy="153.902" r="1.5" fill="#E3E3E3"/>
<circle cx="236.5" cy="153.902" r="1.5" fill="#E3E3E3"/>
<circle cx="254.5" cy="153.902" r="1.5" fill="#E3E3E3"/>
<circle cx="272.5" cy="153.902" r="1.5" fill="#E3E3E3"/>
<circle cx="290.5" cy="153.902" r="1.5" fill="#E3E3E3"/>
<circle cx="308.5" cy="153.902" r="1.5" fill="#E3E3E3"/>
<circle cx="326.5" cy="153.902" r="1.5" fill="#E3E3E3"/>
<circle cx="344.5" cy="153.902" r="1.5" fill="#E3E3E3"/>
<circle cx="362.5" cy="153.902" r="1.5" fill="#E3E3E3"/>
<circle cx="380.5" cy="153.902" r="1.5" fill="#E3E3E3"/>
<circle cx="398.5" cy="153.902" r="1.5" fill="#E3E3E3"/>
<circle cx="416.5" cy="153.902" r="1.5" fill="#E3E3E3"/>
<circle cx="434.5" cy="153.902" r="1.5" fill="#E3E3E3"/>
<circle cx="452.5" cy="153.902" r="1.5" fill="#E3E3E3"/>
<circle cx="110.5" cy="171.902" r="1.5" fill="#E3E3E3"/>
<circle cx="128.5" cy="171.902" r="1.5" fill="#E3E3E3"/>
<circle cx="146.5" cy="171.902" r="1.5" fill="#E3E3E3"/>
<circle cx="164.5" cy="171.902" r="1.5" fill="#E3E3E3"/>
<circle cx="182.5" cy="171.902" r="1.5" fill="#E3E3E3"/>
<circle cx="200.5" cy="171.902" r="1.5" fill="#E3E3E3"/>
<circle cx="218.5" cy="171.902" r="1.5" fill="#E3E3E3"/>
<circle cx="236.5" cy="171.902" r="1.5" fill="#E3E3E3"/>
<circle cx="254.5" cy="171.902" r="1.5" fill="#E3E3E3"/>
<circle cx="272.5" cy="171.902" r="1.5" fill="#E3E3E3"/>
<circle cx="290.5" cy="171.902" r="1.5" fill="#E3E3E3"/>
<circle cx="308.5" cy="171.902" r="1.5" fill="#E3E3E3"/>
<circle cx="326.5" cy="171.902" r="1.5" fill="#E3E3E3"/>
<circle cx="344.5" cy="171.902" r="1.5" fill="#E3E3E3"/>
<circle cx="362.5" cy="171.902" r="1.5" fill="#E3E3E3"/>
<circle cx="380.5" cy="171.902" r="1.5" fill="#E3E3E3"/>
<circle cx="398.5" cy="171.902" r="1.5" fill="#E3E3E3"/>
<circle cx="416.5" cy="171.902" r="1.5" fill="#E3E3E3"/>
<circle cx="434.5" cy="171.902" r="1.5" fill="#E3E3E3"/>
<circle cx="452.5" cy="171.902" r="1.5" fill="#E3E3E3"/>
<circle cx="110.5" cy="189.902" r="1.5" fill="#E3E3E3"/>
<circle cx="128.5" cy="189.902" r="1.5" fill="#E3E3E3"/>
<circle cx="146.5" cy="189.902" r="1.5" fill="#E3E3E3"/>
<circle cx="164.5" cy="189.902" r="1.5" fill="#E3E3E3"/>
<circle cx="182.5" cy="189.902" r="1.5" fill="#E3E3E3"/>
<circle cx="200.5" cy="189.902" r="1.5" fill="#E3E3E3"/>
<circle cx="218.5" cy="189.902" r="1.5" fill="#E3E3E3"/>
<circle cx="236.5" cy="189.902" r="1.5" fill="#E3E3E3"/>
<circle cx="254.5" cy="189.902" r="1.5" fill="#E3E3E3"/>
<circle cx="272.5" cy="189.902" r="1.5" fill="#E3E3E3"/>
<circle cx="290.5" cy="189.902" r="1.5" fill="#E3E3E3"/>
<circle cx="308.5" cy="189.902" r="1.5" fill="#E3E3E3"/>
<circle cx="326.5" cy="189.902" r="1.5" fill="#E3E3E3"/>
<circle cx="344.5" cy="189.902" r="1.5" fill="#E3E3E3"/>
<circle cx="362.5" cy="189.902" r="1.5" fill="#E3E3E3"/>
<circle cx="380.5" cy="189.902" r="1.5" fill="#E3E3E3"/>
<circle cx="398.5" cy="189.902" r="1.5" fill="#E3E3E3"/>
<circle cx="416.5" cy="189.902" r="1.5" fill="#E3E3E3"/>
<circle cx="434.5" cy="189.902" r="1.5" fill="#E3E3E3"/>
<circle cx="452.5" cy="189.902" r="1.5" fill="#E3E3E3"/>
<circle cx="110.5" cy="207.902" r="1.5" fill="#E3E3E3"/>
<circle cx="128.5" cy="207.902" r="1.5" fill="#E3E3E3"/>
<circle cx="146.5" cy="207.902" r="1.5" fill="#E3E3E3"/>
<circle cx="164.5" cy="207.902" r="1.5" fill="#E3E3E3"/>
<circle cx="182.5" cy="207.902" r="1.5" fill="#E3E3E3"/>
<circle cx="200.5" cy="207.902" r="1.5" fill="#E3E3E3"/>
<circle cx="218.5" cy="207.902" r="1.5" fill="#E3E3E3"/>
<circle cx="236.5" cy="207.902" r="1.5" fill="#E3E3E3"/>
<circle cx="254.5" cy="207.902" r="1.5" fill="#E3E3E3"/>
<circle cx="272.5" cy="207.902" r="1.5" fill="#E3E3E3"/>
<circle cx="290.5" cy="207.902" r="1.5" fill="#E3E3E3"/>
<circle cx="308.5" cy="207.902" r="1.5" fill="#E3E3E3"/>
<circle cx="326.5" cy="207.902" r="1.5" fill="#E3E3E3"/>
<circle cx="344.5" cy="207.902" r="1.5" fill="#E3E3E3"/>
<circle cx="362.5" cy="207.902" r="1.5" fill="#E3E3E3"/>
<circle cx="380.5" cy="207.902" r="1.5" fill="#E3E3E3"/>
<circle cx="398.5" cy="207.902" r="1.5" fill="#E3E3E3"/>
<circle cx="416.5" cy="207.902" r="1.5" fill="#E3E3E3"/>
<circle cx="434.5" cy="207.902" r="1.5" fill="#E3E3E3"/>
<circle cx="452.5" cy="207.902" r="1.5" fill="#E3E3E3"/>
<circle cx="110.5" cy="225.902" r="1.5" fill="#E3E3E3"/>
<circle cx="128.5" cy="225.902" r="1.5" fill="#E3E3E3"/>
<circle cx="146.5" cy="225.902" r="1.5" fill="#E3E3E3"/>
<circle cx="164.5" cy="225.902" r="1.5" fill="#E3E3E3"/>
<circle cx="182.5" cy="225.902" r="1.5" fill="#E3E3E3"/>
<circle cx="200.5" cy="225.902" r="1.5" fill="#E3E3E3"/>
<circle cx="218.5" cy="225.902" r="1.5" fill="#E3E3E3"/>
<circle cx="236.5" cy="225.902" r="1.5" fill="#E3E3E3"/>
<circle cx="254.5" cy="225.902" r="1.5" fill="#E3E3E3"/>
<circle cx="272.5" cy="225.902" r="1.5" fill="#E3E3E3"/>
<circle cx="290.5" cy="225.902" r="1.5" fill="#E3E3E3"/>
<circle cx="308.5" cy="225.902" r="1.5" fill="#E3E3E3"/>
<circle cx="326.5" cy="225.902" r="1.5" fill="#E3E3E3"/>
<circle cx="344.5" cy="225.902" r="1.5" fill="#E3E3E3"/>
<circle cx="362.5" cy="225.902" r="1.5" fill="#E3E3E3"/>
<circle cx="380.5" cy="225.902" r="1.5" fill="#E3E3E3"/>
<circle cx="398.5" cy="225.902" r="1.5" fill="#E3E3E3"/>
<circle cx="416.5" cy="225.902" r="1.5" fill="#E3E3E3"/>
<circle cx="434.5" cy="225.902" r="1.5" fill="#E3E3E3"/>
<circle cx="452.5" cy="225.902" r="1.5" fill="#E3E3E3"/>
<circle cx="110.5" cy="243.902" r="1.5" fill="#E3E3E3"/>
<circle cx="128.5" cy="243.902" r="1.5" fill="#E3E3E3"/>
<circle cx="146.5" cy="243.902" r="1.5" fill="#E3E3E3"/>
<circle cx="164.5" cy="243.902" r="1.5" fill="#E3E3E3"/>
<circle cx="182.5" cy="243.902" r="1.5" fill="#E3E3E3"/>
<circle cx="200.5" cy="243.902" r="1.5" fill="#E3E3E3"/>
<circle cx="218.5" cy="243.902" r="1.5" fill="#E3E3E3"/>
<circle cx="236.5" cy="243.902" r="1.5" fill="#E3E3E3"/>
<circle cx="254.5" cy="243.902" r="1.5" fill="#E3E3E3"/>
<circle cx="272.5" cy="243.902" r="1.5" fill="#E3E3E3"/>
<circle cx="290.5" cy="243.902" r="1.5" fill="#E3E3E3"/>
<circle cx="308.5" cy="243.902" r="1.5" fill="#E3E3E3"/>
<circle cx="326.5" cy="243.902" r="1.5" fill="#E3E3E3"/>
<circle cx="344.5" cy="243.902" r="1.5" fill="#E3E3E3"/>
<circle cx="362.5" cy="243.902" r="1.5" fill="#E3E3E3"/>
<circle cx="380.5" cy="243.902" r="1.5" fill="#E3E3E3"/>
<circle cx="398.5" cy="243.902" r="1.5" fill="#E3E3E3"/>
<circle cx="416.5" cy="243.902" r="1.5" fill="#E3E3E3"/>
<circle cx="434.5" cy="243.902" r="1.5" fill="#E3E3E3"/>
<circle cx="452.5" cy="243.902" r="1.5" fill="#E3E3E3"/>
<circle cx="110.5" cy="261.902" r="1.5" fill="#E3E3E3"/>
<circle cx="128.5" cy="261.902" r="1.5" fill="#E3E3E3"/>
<circle cx="146.5" cy="261.902" r="1.5" fill="#E3E3E3"/>
<circle cx="164.5" cy="261.902" r="1.5" fill="#E3E3E3"/>
<circle cx="182.5" cy="261.902" r="1.5" fill="#E3E3E3"/>
<circle cx="200.5" cy="261.902" r="1.5" fill="#E3E3E3"/>
<circle cx="218.5" cy="261.902" r="1.5" fill="#E3E3E3"/>
<circle cx="236.5" cy="261.902" r="1.5" fill="#E3E3E3"/>
<circle cx="254.5" cy="261.902" r="1.5" fill="#E3E3E3"/>
<circle cx="272.5" cy="261.902" r="1.5" fill="#E3E3E3"/>
<circle cx="290.5" cy="261.902" r="1.5" fill="#E3E3E3"/>
<circle cx="308.5" cy="261.902" r="1.5" fill="#E3E3E3"/>
<circle cx="326.5" cy="261.902" r="1.5" fill="#E3E3E3"/>
<circle cx="344.5" cy="261.902" r="1.5" fill="#E3E3E3"/>
<circle cx="362.5" cy="261.902" r="1.5" fill="#E3E3E3"/>
<circle cx="380.5" cy="261.902" r="1.5" fill="#E3E3E3"/>
<circle cx="398.5" cy="261.902" r="1.5" fill="#E3E3E3"/>
<circle cx="416.5" cy="261.902" r="1.5" fill="#E3E3E3"/>
<circle cx="434.5" cy="261.902" r="1.5" fill="#E3E3E3"/>
<circle cx="452.5" cy="261.902" r="1.5" fill="#E3E3E3"/>
<circle cx="110.5" cy="279.902" r="1.5" fill="#E3E3E3"/>
<circle cx="128.5" cy="279.902" r="1.5" fill="#E3E3E3"/>
<circle cx="146.5" cy="279.902" r="1.5" fill="#E3E3E3"/>
<circle cx="164.5" cy="279.902" r="1.5" fill="#E3E3E3"/>
<circle cx="182.5" cy="279.902" r="1.5" fill="#E3E3E3"/>
<circle cx="200.5" cy="279.902" r="1.5" fill="#E3E3E3"/>
<circle cx="218.5" cy="279.902" r="1.5" fill="#E3E3E3"/>
<circle cx="236.5" cy="279.902" r="1.5" fill="#E3E3E3"/>
<circle cx="254.5" cy="279.902" r="1.5" fill="#E3E3E3"/>
<circle cx="272.5" cy="279.902" r="1.5" fill="#E3E3E3"/>
<circle cx="290.5" cy="279.902" r="1.5" fill="#E3E3E3"/>
<circle cx="308.5" cy="279.902" r="1.5" fill="#E3E3E3"/>
<circle cx="326.5" cy="279.902" r="1.5" fill="#E3E3E3"/>
<circle cx="344.5" cy="279.902" r="1.5" fill="#E3E3E3"/>
<circle cx="362.5" cy="279.902" r="1.5" fill="#E3E3E3"/>
<circle cx="380.5" cy="279.902" r="1.5" fill="#E3E3E3"/>
<circle cx="398.5" cy="279.902" r="1.5" fill="#E3E3E3"/>
<circle cx="416.5" cy="279.902" r="1.5" fill="#E3E3E3"/>
<circle cx="434.5" cy="279.902" r="1.5" fill="#E3E3E3"/>
<circle cx="452.5" cy="279.902" r="1.5" fill="#E3E3E3"/>
<circle cx="110.5" cy="297.902" r="1.5" fill="#E3E3E3"/>
<circle cx="128.5" cy="297.902" r="1.5" fill="#E3E3E3"/>
<circle cx="146.5" cy="297.902" r="1.5" fill="#E3E3E3"/>
<circle cx="164.5" cy="297.902" r="1.5" fill="#E3E3E3"/>
<circle cx="182.5" cy="297.902" r="1.5" fill="#E3E3E3"/>
<circle cx="200.5" cy="297.902" r="1.5" fill="#E3E3E3"/>
<circle cx="218.5" cy="297.902" r="1.5" fill="#E3E3E3"/>
<circle cx="236.5" cy="297.902" r="1.5" fill="#E3E3E3"/>
<circle cx="254.5" cy="297.902" r="1.5" fill="#E3E3E3"/>
<circle cx="272.5" cy="297.902" r="1.5" fill="#E3E3E3"/>
<circle cx="290.5" cy="297.902" r="1.5" fill="#E3E3E3"/>
<circle cx="308.5" cy="297.902" r="1.5" fill="#E3E3E3"/>
<circle cx="326.5" cy="297.902" r="1.5" fill="#E3E3E3"/>
<circle cx="344.5" cy="297.902" r="1.5" fill="#E3E3E3"/>
<circle cx="362.5" cy="297.902" r="1.5" fill="#E3E3E3"/>
<circle cx="380.5" cy="297.902" r="1.5" fill="#E3E3E3"/>
<circle cx="398.5" cy="297.902" r="1.5" fill="#E3E3E3"/>
<circle cx="416.5" cy="297.902" r="1.5" fill="#E3E3E3"/>
<circle cx="434.5" cy="297.902" r="1.5" fill="#E3E3E3"/>
<circle cx="452.5" cy="297.902" r="1.5" fill="#E3E3E3"/>
<circle cx="110.5" cy="315.902" r="1.5" fill="#E3E3E3"/>
<circle cx="128.5" cy="315.902" r="1.5" fill="#E3E3E3"/>
<circle cx="146.5" cy="315.902" r="1.5" fill="#E3E3E3"/>
<circle cx="164.5" cy="315.902" r="1.5" fill="#E3E3E3"/>
<circle cx="182.5" cy="315.902" r="1.5" fill="#E3E3E3"/>
<circle cx="200.5" cy="315.902" r="1.5" fill="#E3E3E3"/>
<circle cx="218.5" cy="315.902" r="1.5" fill="#E3E3E3"/>
<circle cx="236.5" cy="315.902" r="1.5" fill="#E3E3E3"/>
<circle cx="254.5" cy="315.902" r="1.5" fill="#E3E3E3"/>
<circle cx="272.5" cy="315.902" r="1.5" fill="#E3E3E3"/>
<circle cx="290.5" cy="315.902" r="1.5" fill="#E3E3E3"/>
<circle cx="308.5" cy="315.902" r="1.5" fill="#E3E3E3"/>
<circle cx="326.5" cy="315.902" r="1.5" fill="#E3E3E3"/>
<circle cx="344.5" cy="315.902" r="1.5" fill="#E3E3E3"/>
<circle cx="362.5" cy="315.902" r="1.5" fill="#E3E3E3"/>
<circle cx="380.5" cy="315.902" r="1.5" fill="#E3E3E3"/>
<circle cx="398.5" cy="315.902" r="1.5" fill="#E3E3E3"/>
<circle cx="416.5" cy="315.902" r="1.5" fill="#E3E3E3"/>
<circle cx="434.5" cy="315.902" r="1.5" fill="#E3E3E3"/>
<circle cx="452.5" cy="315.902" r="1.5" fill="#E3E3E3"/>
<circle cx="110.5" cy="333.902" r="1.5" fill="#E3E3E3"/>
<circle cx="128.5" cy="333.902" r="1.5" fill="#E3E3E3"/>
<circle cx="146.5" cy="333.902" r="1.5" fill="#E3E3E3"/>
<circle cx="164.5" cy="333.902" r="1.5" fill="#E3E3E3"/>
<circle cx="182.5" cy="333.902" r="1.5" fill="#E3E3E3"/>
<circle cx="200.5" cy="333.902" r="1.5" fill="#E3E3E3"/>
<circle cx="218.5" cy="333.902" r="1.5" fill="#E3E3E3"/>
<circle cx="236.5" cy="333.902" r="1.5" fill="#E3E3E3"/>
<circle cx="254.5" cy="333.902" r="1.5" fill="#E3E3E3"/>
<circle cx="272.5" cy="333.902" r="1.5" fill="#E3E3E3"/>
<circle cx="290.5" cy="333.902" r="1.5" fill="#E3E3E3"/>
<circle cx="308.5" cy="333.902" r="1.5" fill="#E3E3E3"/>
<circle cx="326.5" cy="333.902" r="1.5" fill="#E3E3E3"/>
<circle cx="344.5" cy="333.902" r="1.5" fill="#E3E3E3"/>
<circle cx="362.5" cy="333.902" r="1.5" fill="#E3E3E3"/>
<circle cx="380.5" cy="333.902" r="1.5" fill="#E3E3E3"/>
<circle cx="398.5" cy="333.902" r="1.5" fill="#E3E3E3"/>
<circle cx="416.5" cy="333.902" r="1.5" fill="#E3E3E3"/>
<circle cx="434.5" cy="333.902" r="1.5" fill="#E3E3E3"/>
<circle cx="452.5" cy="333.902" r="1.5" fill="#E3E3E3"/>
<circle cx="110.5" cy="351.902" r="1.5" fill="#E3E3E3"/>
<circle cx="128.5" cy="351.902" r="1.5" fill="#E3E3E3"/>
<circle cx="146.5" cy="351.902" r="1.5" fill="#E3E3E3"/>
<circle cx="164.5" cy="351.902" r="1.5" fill="#E3E3E3"/>
<circle cx="182.5" cy="351.902" r="1.5" fill="#E3E3E3"/>
<circle cx="200.5" cy="351.902" r="1.5" fill="#E3E3E3"/>
<circle cx="218.5" cy="351.902" r="1.5" fill="#E3E3E3"/>
<circle cx="236.5" cy="351.902" r="1.5" fill="#E3E3E3"/>
<circle cx="254.5" cy="351.902" r="1.5" fill="#E3E3E3"/>
<circle cx="272.5" cy="351.902" r="1.5" fill="#E3E3E3"/>
<circle cx="290.5" cy="351.902" r="1.5" fill="#E3E3E3"/>
<circle cx="308.5" cy="351.902" r="1.5" fill="#E3E3E3"/>
<circle cx="326.5" cy="351.902" r="1.5" fill="#E3E3E3"/>
<circle cx="344.5" cy="351.902" r="1.5" fill="#E3E3E3"/>
<circle cx="362.5" cy="351.902" r="1.5" fill="#E3E3E3"/>
<circle cx="380.5" cy="351.902" r="1.5" fill="#E3E3E3"/>
<circle cx="398.5" cy="351.902" r="1.5" fill="#E3E3E3"/>
<circle cx="416.5" cy="351.902" r="1.5" fill="#E3E3E3"/>
<circle cx="434.5" cy="351.902" r="1.5" fill="#E3E3E3"/>
<circle cx="452.5" cy="351.902" r="1.5" fill="#E3E3E3"/>
<rect x="15" y="7.40234" width="453" height="348" fill="url(#paint0_radial)"/>
<path d="M3.43037 299.32C-11.6742 296.608 -24.6847 283.351 -35.2744 268.541C-45.8466 253.756 -53.9739 237.401 -52.1171 222.079C-50.2603 206.757 -38.4063 192.385 -24.1707 183.692C-9.91745 175.024 6.70639 171.968 22.6948 174.217C38.7009 176.49 54.0298 184.06 64.9116 196.588C75.7934 209.115 82.2039 226.617 79.4633 242.401C76.7161 258.227 64.7761 272.33 50.2484 283.305C35.679 294.274 18.5285 302.073 3.43037 299.32Z" fill="#FE840E"/>
<path d="M41.52 125.322C34.08 125.322 27.48 123.602 21.72 120.162C16.04 116.642 11.56 111.602 8.28 105.042C5.08 98.4023 3.48 90.5223 3.48 81.4023C3.48 72.2823 5.08 64.4423 8.28 57.8823C11.56 51.2423 16.04 46.2023 21.72 42.7623C27.48 39.2423 34.08 37.4823 41.52 37.4823C48.96 37.4823 55.52 39.2423 61.2 42.7623C66.96 46.2023 71.44 51.2423 74.64 57.8823C77.92 64.4423 79.56 72.2823 79.56 81.4023C79.56 90.5223 77.92 98.4023 74.64 105.042C71.44 111.602 66.96 116.642 61.2 120.162C55.52 123.602 48.96 125.322 41.52 125.322ZM41.52 102.642C47.92 102.642 51.12 95.5623 51.12 81.4023C51.12 67.2423 47.92 60.1623 41.52 60.1623C35.12 60.1623 31.92 67.2423 31.92 81.4023C31.92 95.5623 35.12 102.642 41.52 102.642ZM118.486 69.0423C130.246 69.0423 138.886 71.5223 144.406 76.4823C150.006 81.3623 152.806 87.8023 152.806 95.8023C152.806 101.082 151.406 105.962 148.606 110.442C145.886 114.842 141.646 118.442 135.886 121.242C130.126 123.962 122.966 125.322 114.406 125.322C108.486 125.322 102.566 124.682 96.6459 123.402C90.8059 122.122 85.6859 120.242 81.2859 117.762L90.8859 96.8823C94.4059 98.8823 98.0859 100.402 101.926 101.442C105.846 102.482 109.646 103.002 113.326 103.002C116.606 103.002 119.246 102.442 121.246 101.322C123.326 100.122 124.366 98.4823 124.366 96.4023C124.366 94.4023 123.446 92.9223 121.606 91.9623C119.766 90.9223 116.446 90.4023 111.646 90.4023H87.2859L91.4859 39.4023L147.286 39.4023V60.7623H114.766L114.166 69.0423H118.486Z" fill="#E3E3E3"/>
</g>
<path d="M70.26 286.602C72.368 286.602 74.1927 286.954 75.734 287.656C77.298 288.359 78.4993 289.356 79.338 290.648C80.1767 291.94 80.596 293.47 80.596 295.238C80.596 296.984 80.1767 298.514 79.338 299.828C78.4993 301.12 77.298 302.118 75.734 302.82C74.1927 303.5 72.368 303.84 70.26 303.84H65.466V310.402H59.958V286.602H70.26ZM69.954 299.352C71.6087 299.352 72.8667 299.001 73.728 298.298C74.5893 297.573 75.02 296.553 75.02 295.238C75.02 293.901 74.5893 292.881 73.728 292.178C72.8667 291.453 71.6087 291.09 69.954 291.09H65.466V299.352H69.954ZM101.23 301.324C101.23 301.392 101.196 301.868 101.128 302.752H87.2903C87.5396 303.886 88.1289 304.781 89.0583 305.438C89.9876 306.096 91.1436 306.424 92.5263 306.424C93.4783 306.424 94.3169 306.288 95.0423 306.016C95.7903 305.722 96.4816 305.268 97.1163 304.656L99.9383 307.716C98.2156 309.688 95.6996 310.674 92.3903 310.674C90.3276 310.674 88.5029 310.278 86.9163 309.484C85.3296 308.668 84.1056 307.546 83.2443 306.118C82.3829 304.69 81.9523 303.07 81.9523 301.256C81.9523 299.466 82.3716 297.856 83.2103 296.428C84.0716 294.978 85.2389 293.856 86.7123 293.062C88.2083 292.246 89.8743 291.838 91.7103 291.838C93.5009 291.838 95.1216 292.224 96.5723 292.994C98.0229 293.765 99.1563 294.876 99.9723 296.326C100.811 297.754 101.23 299.42 101.23 301.324ZM91.7443 295.85C90.5429 295.85 89.5343 296.19 88.7183 296.87C87.9023 297.55 87.4036 298.48 87.2223 299.658H96.2323C96.0509 298.502 95.5523 297.584 94.7363 296.904C93.9203 296.202 92.9229 295.85 91.7443 295.85ZM119.61 296.462H110.226V310.402H104.956V292.11H119.61V296.462ZM132.859 291.838C134.559 291.838 136.1 292.235 137.483 293.028C138.888 293.799 139.987 294.898 140.781 296.326C141.574 297.732 141.971 299.375 141.971 301.256C141.971 303.138 141.574 304.792 140.781 306.22C139.987 307.626 138.888 308.725 137.483 309.518C136.1 310.289 134.559 310.674 132.859 310.674C130.524 310.674 128.688 309.938 127.351 308.464V316.998H122.047V292.11H127.113V294.218C128.427 292.632 130.343 291.838 132.859 291.838ZM131.941 306.322C133.301 306.322 134.411 305.869 135.273 304.962C136.157 304.033 136.599 302.798 136.599 301.256C136.599 299.715 136.157 298.491 135.273 297.584C134.411 296.655 133.301 296.19 131.941 296.19C130.581 296.19 129.459 296.655 128.575 297.584C127.713 298.491 127.283 299.715 127.283 301.256C127.283 302.798 127.713 304.033 128.575 304.962C129.459 305.869 130.581 306.322 131.941 306.322ZM163.13 301.324C163.13 301.392 163.096 301.868 163.028 302.752H149.19C149.44 303.886 150.029 304.781 150.958 305.438C151.888 306.096 153.044 306.424 154.426 306.424C155.378 306.424 156.217 306.288 156.942 306.016C157.69 305.722 158.382 305.268 159.016 304.656L161.838 307.716C160.116 309.688 157.6 310.674 154.29 310.674C152.228 310.674 150.403 310.278 148.816 309.484C147.23 308.668 146.006 307.546 145.144 306.118C144.283 304.69 143.852 303.07 143.852 301.256C143.852 299.466 144.272 297.856 145.11 296.428C145.972 294.978 147.139 293.856 148.612 293.062C150.108 292.246 151.774 291.838 153.61 291.838C155.401 291.838 157.022 292.224 158.472 292.994C159.923 293.765 161.056 294.876 161.872 296.326C162.711 297.754 163.13 299.42 163.13 301.324ZM153.644 295.85C152.443 295.85 151.434 296.19 150.618 296.87C149.802 297.55 149.304 298.48 149.122 299.658H158.132C157.951 298.502 157.452 297.584 156.636 296.904C155.82 296.202 154.823 295.85 153.644 295.85ZM175.56 310.674C173.611 310.674 171.854 310.278 170.29 309.484C168.749 308.668 167.536 307.546 166.652 306.118C165.791 304.69 165.36 303.07 165.36 301.256C165.36 299.443 165.791 297.822 166.652 296.394C167.536 294.966 168.749 293.856 170.29 293.062C171.854 292.246 173.611 291.838 175.56 291.838C177.487 291.838 179.164 292.246 180.592 293.062C182.043 293.856 183.097 295 183.754 296.496L179.64 298.706C178.688 297.029 177.317 296.19 175.526 296.19C174.143 296.19 172.999 296.644 172.092 297.55C171.185 298.457 170.732 299.692 170.732 301.256C170.732 302.82 171.185 304.056 172.092 304.962C172.999 305.869 174.143 306.322 175.526 306.322C177.339 306.322 178.711 305.484 179.64 303.806L183.754 306.05C183.097 307.501 182.043 308.634 180.592 309.45C179.164 310.266 177.487 310.674 175.56 310.674ZM195.109 310.674C193.159 310.674 191.403 310.278 189.839 309.484C188.297 308.668 187.085 307.546 186.201 306.118C185.339 304.69 184.909 303.07 184.909 301.256C184.909 299.443 185.339 297.822 186.201 296.394C187.085 294.966 188.297 293.856 189.839 293.062C191.403 292.246 193.159 291.838 195.109 291.838C197.035 291.838 198.713 292.246 200.141 293.062C201.591 293.856 202.645 295 203.303 296.496L199.189 298.706C198.237 297.029 196.865 296.19 195.075 296.19C193.692 296.19 192.547 296.644 191.641 297.55C190.734 298.457 190.281 299.692 190.281 301.256C190.281 302.82 190.734 304.056 191.641 304.962C192.547 305.869 193.692 306.322 195.075 306.322C196.888 306.322 198.259 305.484 199.189 303.806L203.303 306.05C202.645 307.501 201.591 308.634 200.141 309.45C198.713 310.266 197.035 310.674 195.109 310.674ZM206.186 292.11H211.456V302.99L220.364 292.11H225.226V310.402H219.956V299.522L211.082 310.402H206.186V292.11ZM246.236 292.11V310.402H241.51V305.166H237.6L234.132 310.402H228.488L232.67 304.418C231.401 303.92 230.426 303.206 229.746 302.276C229.089 301.324 228.76 300.18 228.76 298.842C228.76 296.689 229.531 295.034 231.072 293.878C232.636 292.7 234.778 292.11 237.498 292.11H246.236ZM237.6 296.428C236.467 296.428 235.606 296.632 235.016 297.04C234.45 297.448 234.166 298.106 234.166 299.012C234.166 299.919 234.438 300.588 234.982 301.018C235.549 301.426 236.399 301.63 237.532 301.63H241.51V296.428H237.6Z" fill="black"/>
</g>
<rect x="402.161" y="45.4023" width="2.64828" height="128" rx="1.32414" fill="#E3E3E3"/>
<rect x="338.603" y="45.4023" width="2.64828" height="128" rx="1.32414" fill="#E3E3E3"/>
<rect x="275.044" y="45.4023" width="2.64828" height="128" rx="1.32414" fill="#E3E3E3"/>
<rect x="211.485" y="45.4023" width="2.64828" height="128" rx="1.32414" fill="#E3E3E3"/>
<path d="M189.417 116.698C195.211 116.698 199.421 108.787 203.49 101.134C208.041 92.5763 212.721 83.7621 220.616 84.6979C230.699 85.9399 234.56 102.258 238.648 119.533C241.818 132.932 245.413 148.117 251.524 148.721C257.098 149.22 261.548 136.926 265.414 126.028C269.945 113.256 274.225 101.191 282.156 100.695C289.527 100.234 293.781 108.648 297.908 116.783C302.037 124.923 306.267 133.375 313.051 132.711C319.867 132.078 323.744 115.73 327.162 101.307C331.14 84.5245 334.899 68.6755 344.192 68.6755C354.212 68.6755 357.273 87.3683 360.818 109.012C363.866 127.619 367.32 148.71 375.147 148.71C380.622 148.71 385.757 135.418 389.884 124.737C394.868 111.834 399.173 100.69 406.104 100.69C410.989 100.69 413.681 105.68 416.058 110.083C417.812 113.336 419.628 116.698 421.583 116.698" stroke="url(#paint1_linear)" stroke-width="3" stroke-linecap="round" stroke-linejoin="round"/>
<defs>
<filter id="filter0_d" x="0" y="0.402344" width="483" height="378" filterUnits="userSpaceOnUse" color-interpolation-filters="sRGB">
<feFlood flood-opacity="0" result="BackgroundImageFix"/>
<feColorMatrix in="SourceAlpha" type="matrix" values="0 0 0 0 0 0 0 0 0 0 0 0 0 0 0 0 0 0 127 0"/>
<feOffset dy="8"/>
<feGaussianBlur stdDeviation="7.5"/>
<feColorMatrix type="matrix" values="0 0 0 0 0 0 0 0 0 0 0 0 0 0 0 0 0 0 0.1 0"/>
<feBlend mode="normal" in2="BackgroundImageFix" result="effect1_dropShadow"/>
<feBlend mode="normal" in="SourceGraphic" in2="effect1_dropShadow" result="shape"/>
</filter>
<radialGradient id="paint0_radial" cx="0" cy="0" r="1" gradientUnits="userSpaceOnUse" gradientTransform="translate(332.5 169.402) rotate(180) scale(218 283.776)">
<stop stop-color="white" stop-opacity="0"/>
<stop offset="1" stop-color="white"/>
</radialGradient>
<linearGradient id="paint1_linear" x1="324.336" y1="68.6755" x2="324.336" y2="148.736" gradientUnits="userSpaceOnUse">
<stop stop-color="#FE840E"/>
<stop offset="1" stop-color="#C81F56"/>
</linearGradient>
</defs>
</svg>
