<svg width="483" height="379" viewBox="0 0 483 379" fill="none" xmlns="http://www.w3.org/2000/svg">
<g filter="url(#filter0_d)">
<mask id="mask0" mask-type="alpha" maskUnits="userSpaceOnUse" x="15" y="7" width="453" height="349">
<rect x="15" y="7.40234" width="453" height="348" rx="20" fill="#FE840E"/>
</mask>
<g mask="url(#mask0)">
<rect x="15" y="7.40234" width="453" height="348" fill="white"/>
<circle cx="110.5" cy="9.90234" r="1.5" fill="#E3E3E3"/>
<circle cx="128.5" cy="9.90234" r="1.5" fill="#E3E3E3"/>
<circle cx="146.5" cy="9.90234" r="1.5" fill="#E3E3E3"/>
<circle cx="164.5" cy="9.90234" r="1.5" fill="#E3E3E3"/>
<circle cx="182.5" cy="9.90234" r="1.5" fill="#E3E3E3"/>
<circle cx="200.5" cy="9.90234" r="1.5" fill="#E3E3E3"/>
<circle cx="218.5" cy="9.90234" r="1.5" fill="#E3E3E3"/>
<circle cx="236.5" cy="9.90234" r="1.5" fill="#E3E3E3"/>
<circle cx="254.5" cy="9.90234" r="1.5" fill="#E3E3E3"/>
<circle cx="272.5" cy="9.90234" r="1.5" fill="#E3E3E3"/>
<circle cx="290.5" cy="9.90234" r="1.5" fill="#E3E3E3"/>
<circle cx="308.5" cy="9.90234" r="1.5" fill="#E3E3E3"/>
<circle cx="326.5" cy="9.90234" r="1.5" fill="#E3E3E3"/>
<circle cx="344.5" cy="9.90234" r="1.5" fill="#E3E3E3"/>
<circle cx="362.5" cy="9.90234" r="1.5" fill="#E3E3E3"/>
<circle cx="380.5" cy="9.90234" r="1.5" fill="#E3E3E3"/>
<circle cx="398.5" cy="9.90234" r="1.5" fill="#E3E3E3"/>
<circle cx="416.5" cy="9.90234" r="1.5" fill="#E3E3E3"/>
<circle cx="434.5" cy="9.90234" r="1.5" fill="#E3E3E3"/>
<circle cx="452.5" cy="9.90234" r="1.5" fill="#E3E3E3"/>
<circle cx="110.5" cy="27.9023" r="1.5" fill="#E3E3E3"/>
<circle cx="128.5" cy="27.9023" r="1.5" fill="#E3E3E3"/>
<circle cx="146.5" cy="27.9023" r="1.5" fill="#E3E3E3"/>
<circle cx="164.5" cy="27.9023" r="1.5" fill="#E3E3E3"/>
<circle cx="182.5" cy="27.9023" r="1.5" fill="#E3E3E3"/>
<circle cx="200.5" cy="27.9023" r="1.5" fill="#E3E3E3"/>
<circle cx="218.5" cy="27.9023" r="1.5" fill="#E3E3E3"/>
<circle cx="236.5" cy="27.9023" r="1.5" fill="#E3E3E3"/>
<circle cx="254.5" cy="27.9023" r="1.5" fill="#E3E3E3"/>
<circle cx="272.5" cy="27.9023" r="1.5" fill="#E3E3E3"/>
<circle cx="290.5" cy="27.9023" r="1.5" fill="#E3E3E3"/>
<circle cx="308.5" cy="27.9023" r="1.5" fill="#E3E3E3"/>
<circle cx="326.5" cy="27.9023" r="1.5" fill="#E3E3E3"/>
<circle cx="344.5" cy="27.9023" r="1.5" fill="#E3E3E3"/>
<circle cx="362.5" cy="27.9023" r="1.5" fill="#E3E3E3"/>
<circle cx="380.5" cy="27.9023" r="1.5" fill="#E3E3E3"/>
<circle cx="398.5" cy="27.9023" r="1.5" fill="#E3E3E3"/>
<circle cx="416.5" cy="27.9023" r="1.5" fill="#E3E3E3"/>
<circle cx="434.5" cy="27.9023" r="1.5" fill="#E3E3E3"/>
<circle cx="452.5" cy="27.9023" r="1.5" fill="#E3E3E3"/>
<circle cx="110.5" cy="45.9023" r="1.5" fill="#E3E3E3"/>
<circle cx="128.5" cy="45.9023" r="1.5" fill="#E3E3E3"/>
<circle cx="146.5" cy="45.9023" r="1.5" fill="#E3E3E3"/>
<circle cx="164.5" cy="45.9023" r="1.5" fill="#E3E3E3"/>
<circle cx="182.5" cy="45.9023" r="1.5" fill="#E3E3E3"/>
<circle cx="200.5" cy="45.9023" r="1.5" fill="#E3E3E3"/>
<circle cx="218.5" cy="45.9023" r="1.5" fill="#E3E3E3"/>
<circle cx="236.5" cy="45.9023" r="1.5" fill="#E3E3E3"/>
<circle cx="254.5" cy="45.9023" r="1.5" fill="#E3E3E3"/>
<circle cx="272.5" cy="45.9023" r="1.5" fill="#E3E3E3"/>
<circle cx="290.5" cy="45.9023" r="1.5" fill="#E3E3E3"/>
<circle cx="308.5" cy="45.9023" r="1.5" fill="#E3E3E3"/>
<circle cx="326.5" cy="45.9023" r="1.5" fill="#E3E3E3"/>
<circle cx="344.5" cy="45.9023" r="1.5" fill="#E3E3E3"/>
<circle cx="362.5" cy="45.9023" r="1.5" fill="#E3E3E3"/>
<circle cx="380.5" cy="45.9023" r="1.5" fill="#E3E3E3"/>
<circle cx="398.5" cy="45.9023" r="1.5" fill="#E3E3E3"/>
<circle cx="416.5" cy="45.9023" r="1.5" fill="#E3E3E3"/>
<circle cx="434.5" cy="45.9023" r="1.5" fill="#E3E3E3"/>
<circle cx="452.5" cy="45.9023" r="1.5" fill="#E3E3E3"/>
<circle cx="110.5" cy="63.9023" r="1.5" fill="#E3E3E3"/>
<circle cx="128.5" cy="63.9023" r="1.5" fill="#E3E3E3"/>
<circle cx="146.5" cy="63.9023" r="1.5" fill="#E3E3E3"/>
<circle cx="164.5" cy="63.9023" r="1.5" fill="#E3E3E3"/>
<circle cx="182.5" cy="63.9023" r="1.5" fill="#E3E3E3"/>
<circle cx="200.5" cy="63.9023" r="1.5" fill="#E3E3E3"/>
<circle cx="218.5" cy="63.9023" r="1.5" fill="#E3E3E3"/>
<circle cx="236.5" cy="63.9023" r="1.5" fill="#E3E3E3"/>
<circle cx="254.5" cy="63.9023" r="1.5" fill="#E3E3E3"/>
<circle cx="272.5" cy="63.9023" r="1.5" fill="#E3E3E3"/>
<circle cx="290.5" cy="63.9023" r="1.5" fill="#E3E3E3"/>
<circle cx="308.5" cy="63.9023" r="1.5" fill="#E3E3E3"/>
<circle cx="326.5" cy="63.9023" r="1.5" fill="#E3E3E3"/>
<circle cx="344.5" cy="63.9023" r="1.5" fill="#E3E3E3"/>
<circle cx="362.5" cy="63.9023" r="1.5" fill="#E3E3E3"/>
<circle cx="380.5" cy="63.9023" r="1.5" fill="#E3E3E3"/>
<circle cx="398.5" cy="63.9023" r="1.5" fill="#E3E3E3"/>
<circle cx="416.5" cy="63.9023" r="1.5" fill="#E3E3E3"/>
<circle cx="434.5" cy="63.9023" r="1.5" fill="#E3E3E3"/>
<circle cx="452.5" cy="63.9023" r="1.5" fill="#E3E3E3"/>
<circle cx="110.5" cy="81.9023" r="1.5" fill="#E3E3E3"/>
<circle cx="128.5" cy="81.9023" r="1.5" fill="#E3E3E3"/>
<circle cx="146.5" cy="81.9023" r="1.5" fill="#E3E3E3"/>
<circle cx="164.5" cy="81.9023" r="1.5" fill="#E3E3E3"/>
<circle cx="182.5" cy="81.9023" r="1.5" fill="#E3E3E3"/>
<circle cx="200.5" cy="81.9023" r="1.5" fill="#E3E3E3"/>
<circle cx="218.5" cy="81.9023" r="1.5" fill="#E3E3E3"/>
<circle cx="236.5" cy="81.9023" r="1.5" fill="#E3E3E3"/>
<circle cx="254.5" cy="81.9023" r="1.5" fill="#E3E3E3"/>
<circle cx="272.5" cy="81.9023" r="1.5" fill="#E3E3E3"/>
<circle cx="290.5" cy="81.9023" r="1.5" fill="#E3E3E3"/>
<circle cx="308.5" cy="81.9023" r="1.5" fill="#E3E3E3"/>
<circle cx="326.5" cy="81.9023" r="1.5" fill="#E3E3E3"/>
<circle cx="344.5" cy="81.9023" r="1.5" fill="#E3E3E3"/>
<circle cx="362.5" cy="81.9023" r="1.5" fill="#E3E3E3"/>
<circle cx="380.5" cy="81.9023" r="1.5" fill="#E3E3E3"/>
<circle cx="398.5" cy="81.9023" r="1.5" fill="#E3E3E3"/>
<circle cx="416.5" cy="81.9023" r="1.5" fill="#E3E3E3"/>
<circle cx="434.5" cy="81.9023" r="1.5" fill="#E3E3E3"/>
<circle cx="452.5" cy="81.9023" r="1.5" fill="#E3E3E3"/>
<circle cx="110.5" cy="99.9023" r="1.5" fill="#E3E3E3"/>
<circle cx="128.5" cy="99.9023" r="1.5" fill="#E3E3E3"/>
<circle cx="146.5" cy="99.9023" r="1.5" fill="#E3E3E3"/>
<circle cx="164.5" cy="99.9023" r="1.5" fill="#E3E3E3"/>
<circle cx="182.5" cy="99.9023" r="1.5" fill="#E3E3E3"/>
<circle cx="200.5" cy="99.9023" r="1.5" fill="#E3E3E3"/>
<circle cx="218.5" cy="99.9023" r="1.5" fill="#E3E3E3"/>
<circle cx="236.5" cy="99.9023" r="1.5" fill="#E3E3E3"/>
<circle cx="254.5" cy="99.9023" r="1.5" fill="#E3E3E3"/>
<circle cx="272.5" cy="99.9023" r="1.5" fill="#E3E3E3"/>
<circle cx="290.5" cy="99.9023" r="1.5" fill="#E3E3E3"/>
<circle cx="308.5" cy="99.9023" r="1.5" fill="#E3E3E3"/>
<circle cx="326.5" cy="99.9023" r="1.5" fill="#E3E3E3"/>
<circle cx="344.5" cy="99.9023" r="1.5" fill="#E3E3E3"/>
<circle cx="362.5" cy="99.9023" r="1.5" fill="#E3E3E3"/>
<circle cx="380.5" cy="99.9023" r="1.5" fill="#E3E3E3"/>
<circle cx="398.5" cy="99.9023" r="1.5" fill="#E3E3E3"/>
<circle cx="416.5" cy="99.9023" r="1.5" fill="#E3E3E3"/>
<circle cx="434.5" cy="99.9023" r="1.5" fill="#E3E3E3"/>
<circle cx="452.5" cy="99.9023" r="1.5" fill="#E3E3E3"/>
<circle cx="110.5" cy="117.902" r="1.5" fill="#E3E3E3"/>
<circle cx="128.5" cy="117.902" r="1.5" fill="#E3E3E3"/>
<circle cx="146.5" cy="117.902" r="1.5" fill="#E3E3E3"/>
<circle cx="164.5" cy="117.902" r="1.5" fill="#E3E3E3"/>
<circle cx="182.5" cy="117.902" r="1.5" fill="#E3E3E3"/>
<circle cx="200.5" cy="117.902" r="1.5" fill="#E3E3E3"/>
<circle cx="218.5" cy="117.902" r="1.5" fill="#E3E3E3"/>
<circle cx="236.5" cy="117.902" r="1.5" fill="#E3E3E3"/>
<circle cx="254.5" cy="117.902" r="1.5" fill="#E3E3E3"/>
<circle cx="272.5" cy="117.902" r="1.5" fill="#E3E3E3"/>
<circle cx="290.5" cy="117.902" r="1.5" fill="#E3E3E3"/>
<circle cx="308.5" cy="117.902" r="1.5" fill="#E3E3E3"/>
<circle cx="326.5" cy="117.902" r="1.5" fill="#E3E3E3"/>
<circle cx="344.5" cy="117.902" r="1.5" fill="#E3E3E3"/>
<circle cx="362.5" cy="117.902" r="1.5" fill="#E3E3E3"/>
<circle cx="380.5" cy="117.902" r="1.5" fill="#E3E3E3"/>
<circle cx="398.5" cy="117.902" r="1.5" fill="#E3E3E3"/>
<circle cx="416.5" cy="117.902" r="1.5" fill="#E3E3E3"/>
<circle cx="434.5" cy="117.902" r="1.5" fill="#E3E3E3"/>
<circle cx="452.5" cy="117.902" r="1.5" fill="#E3E3E3"/>
<circle cx="110.5" cy="135.902" r="1.5" fill="#E3E3E3"/>
<circle cx="128.5" cy="135.902" r="1.5" fill="#E3E3E3"/>
<circle cx="146.5" cy="135.902" r="1.5" fill="#E3E3E3"/>
<circle cx="164.5" cy="135.902" r="1.5" fill="#E3E3E3"/>
<circle cx="182.5" cy="135.902" r="1.5" fill="#E3E3E3"/>
<circle cx="200.5" cy="135.902" r="1.5" fill="#E3E3E3"/>
<circle cx="218.5" cy="135.902" r="1.5" fill="#E3E3E3"/>
<circle cx="236.5" cy="135.902" r="1.5" fill="#E3E3E3"/>
<circle cx="254.5" cy="135.902" r="1.5" fill="#E3E3E3"/>
<circle cx="272.5" cy="135.902" r="1.5" fill="#E3E3E3"/>
<circle cx="290.5" cy="135.902" r="1.5" fill="#E3E3E3"/>
<circle cx="308.5" cy="135.902" r="1.5" fill="#E3E3E3"/>
<circle cx="326.5" cy="135.902" r="1.5" fill="#E3E3E3"/>
<circle cx="344.5" cy="135.902" r="1.5" fill="#E3E3E3"/>
<circle cx="362.5" cy="135.902" r="1.5" fill="#E3E3E3"/>
<circle cx="380.5" cy="135.902" r="1.5" fill="#E3E3E3"/>
<circle cx="398.5" cy="135.902" r="1.5" fill="#E3E3E3"/>
<circle cx="416.5" cy="135.902" r="1.5" fill="#E3E3E3"/>
<circle cx="434.5" cy="135.902" r="1.5" fill="#E3E3E3"/>
<circle cx="452.5" cy="135.902" r="1.5" fill="#E3E3E3"/>
<circle cx="110.5" cy="153.902" r="1.5" fill="#E3E3E3"/>
<circle cx="128.5" cy="153.902" r="1.5" fill="#E3E3E3"/>
<circle cx="146.5" cy="153.902" r="1.5" fill="#E3E3E3"/>
<circle cx="164.5" cy="153.902" r="1.5" fill="#E3E3E3"/>
<circle cx="182.5" cy="153.902" r="1.5" fill="#E3E3E3"/>
<circle cx="200.5" cy="153.902" r="1.5" fill="#E3E3E3"/>
<circle cx="218.5" cy="153.902" r="1.5" fill="#E3E3E3"/>
<circle cx="236.5" cy="153.902" r="1.5" fill="#E3E3E3"/>
<circle cx="254.5" cy="153.902" r="1.5" fill="#E3E3E3"/>
<circle cx="272.5" cy="153.902" r="1.5" fill="#E3E3E3"/>
<circle cx="290.5" cy="153.902" r="1.5" fill="#E3E3E3"/>
<circle cx="308.5" cy="153.902" r="1.5" fill="#E3E3E3"/>
<circle cx="326.5" cy="153.902" r="1.5" fill="#E3E3E3"/>
<circle cx="344.5" cy="153.902" r="1.5" fill="#E3E3E3"/>
<circle cx="362.5" cy="153.902" r="1.5" fill="#E3E3E3"/>
<circle cx="380.5" cy="153.902" r="1.5" fill="#E3E3E3"/>
<circle cx="398.5" cy="153.902" r="1.5" fill="#E3E3E3"/>
<circle cx="416.5" cy="153.902" r="1.5" fill="#E3E3E3"/>
<circle cx="434.5" cy="153.902" r="1.5" fill="#E3E3E3"/>
<circle cx="452.5" cy="153.902" r="1.5" fill="#E3E3E3"/>
<circle cx="110.5" cy="171.902" r="1.5" fill="#E3E3E3"/>
<circle cx="128.5" cy="171.902" r="1.5" fill="#E3E3E3"/>
<circle cx="146.5" cy="171.902" r="1.5" fill="#E3E3E3"/>
<circle cx="164.5" cy="171.902" r="1.5" fill="#E3E3E3"/>
<circle cx="182.5" cy="171.902" r="1.5" fill="#E3E3E3"/>
<circle cx="200.5" cy="171.902" r="1.5" fill="#E3E3E3"/>
<circle cx="218.5" cy="171.902" r="1.5" fill="#E3E3E3"/>
<circle cx="236.5" cy="171.902" r="1.5" fill="#E3E3E3"/>
<circle cx="254.5" cy="171.902" r="1.5" fill="#E3E3E3"/>
<circle cx="272.5" cy="171.902" r="1.5" fill="#E3E3E3"/>
<circle cx="290.5" cy="171.902" r="1.5" fill="#E3E3E3"/>
<circle cx="308.5" cy="171.902" r="1.5" fill="#E3E3E3"/>
<circle cx="326.5" cy="171.902" r="1.5" fill="#E3E3E3"/>
<circle cx="344.5" cy="171.902" r="1.5" fill="#E3E3E3"/>
<circle cx="362.5" cy="171.902" r="1.5" fill="#E3E3E3"/>
<circle cx="380.5" cy="171.902" r="1.5" fill="#E3E3E3"/>
<circle cx="398.5" cy="171.902" r="1.5" fill="#E3E3E3"/>
<circle cx="416.5" cy="171.902" r="1.5" fill="#E3E3E3"/>
<circle cx="434.5" cy="171.902" r="1.5" fill="#E3E3E3"/>
<circle cx="452.5" cy="171.902" r="1.5" fill="#E3E3E3"/>
<circle cx="110.5" cy="189.902" r="1.5" fill="#E3E3E3"/>
<circle cx="128.5" cy="189.902" r="1.5" fill="#E3E3E3"/>
<circle cx="146.5" cy="189.902" r="1.5" fill="#E3E3E3"/>
<circle cx="164.5" cy="189.902" r="1.5" fill="#E3E3E3"/>
<circle cx="182.5" cy="189.902" r="1.5" fill="#E3E3E3"/>
<circle cx="200.5" cy="189.902" r="1.5" fill="#E3E3E3"/>
<circle cx="218.5" cy="189.902" r="1.5" fill="#E3E3E3"/>
<circle cx="236.5" cy="189.902" r="1.5" fill="#E3E3E3"/>
<circle cx="254.5" cy="189.902" r="1.5" fill="#E3E3E3"/>
<circle cx="272.5" cy="189.902" r="1.5" fill="#E3E3E3"/>
<circle cx="290.5" cy="189.902" r="1.5" fill="#E3E3E3"/>
<circle cx="308.5" cy="189.902" r="1.5" fill="#E3E3E3"/>
<circle cx="326.5" cy="189.902" r="1.5" fill="#E3E3E3"/>
<circle cx="344.5" cy="189.902" r="1.5" fill="#E3E3E3"/>
<circle cx="362.5" cy="189.902" r="1.5" fill="#E3E3E3"/>
<circle cx="380.5" cy="189.902" r="1.5" fill="#E3E3E3"/>
<circle cx="398.5" cy="189.902" r="1.5" fill="#E3E3E3"/>
<circle cx="416.5" cy="189.902" r="1.5" fill="#E3E3E3"/>
<circle cx="434.5" cy="189.902" r="1.5" fill="#E3E3E3"/>
<circle cx="452.5" cy="189.902" r="1.5" fill="#E3E3E3"/>
<circle cx="110.5" cy="207.902" r="1.5" fill="#E3E3E3"/>
<circle cx="128.5" cy="207.902" r="1.5" fill="#E3E3E3"/>
<circle cx="146.5" cy="207.902" r="1.5" fill="#E3E3E3"/>
<circle cx="164.5" cy="207.902" r="1.5" fill="#E3E3E3"/>
<circle cx="182.5" cy="207.902" r="1.5" fill="#E3E3E3"/>
<circle cx="200.5" cy="207.902" r="1.5" fill="#E3E3E3"/>
<circle cx="218.5" cy="207.902" r="1.5" fill="#E3E3E3"/>
<circle cx="236.5" cy="207.902" r="1.5" fill="#E3E3E3"/>
<circle cx="254.5" cy="207.902" r="1.5" fill="#E3E3E3"/>
<circle cx="272.5" cy="207.902" r="1.5" fill="#E3E3E3"/>
<circle cx="290.5" cy="207.902" r="1.5" fill="#E3E3E3"/>
<circle cx="308.5" cy="207.902" r="1.5" fill="#E3E3E3"/>
<circle cx="326.5" cy="207.902" r="1.5" fill="#E3E3E3"/>
<circle cx="344.5" cy="207.902" r="1.5" fill="#E3E3E3"/>
<circle cx="362.5" cy="207.902" r="1.5" fill="#E3E3E3"/>
<circle cx="380.5" cy="207.902" r="1.5" fill="#E3E3E3"/>
<circle cx="398.5" cy="207.902" r="1.5" fill="#E3E3E3"/>
<circle cx="416.5" cy="207.902" r="1.5" fill="#E3E3E3"/>
<circle cx="434.5" cy="207.902" r="1.5" fill="#E3E3E3"/>
<circle cx="452.5" cy="207.902" r="1.5" fill="#E3E3E3"/>
<circle cx="110.5" cy="225.902" r="1.5" fill="#E3E3E3"/>
<circle cx="128.5" cy="225.902" r="1.5" fill="#E3E3E3"/>
<circle cx="146.5" cy="225.902" r="1.5" fill="#E3E3E3"/>
<circle cx="164.5" cy="225.902" r="1.5" fill="#E3E3E3"/>
<circle cx="182.5" cy="225.902" r="1.5" fill="#E3E3E3"/>
<circle cx="200.5" cy="225.902" r="1.5" fill="#E3E3E3"/>
<circle cx="218.5" cy="225.902" r="1.5" fill="#E3E3E3"/>
<circle cx="236.5" cy="225.902" r="1.5" fill="#E3E3E3"/>
<circle cx="254.5" cy="225.902" r="1.5" fill="#E3E3E3"/>
<circle cx="272.5" cy="225.902" r="1.5" fill="#E3E3E3"/>
<circle cx="290.5" cy="225.902" r="1.5" fill="#E3E3E3"/>
<circle cx="308.5" cy="225.902" r="1.5" fill="#E3E3E3"/>
<circle cx="326.5" cy="225.902" r="1.5" fill="#E3E3E3"/>
<circle cx="344.5" cy="225.902" r="1.5" fill="#E3E3E3"/>
<circle cx="362.5" cy="225.902" r="1.5" fill="#E3E3E3"/>
<circle cx="380.5" cy="225.902" r="1.5" fill="#E3E3E3"/>
<circle cx="398.5" cy="225.902" r="1.5" fill="#E3E3E3"/>
<circle cx="416.5" cy="225.902" r="1.5" fill="#E3E3E3"/>
<circle cx="434.5" cy="225.902" r="1.5" fill="#E3E3E3"/>
<circle cx="452.5" cy="225.902" r="1.5" fill="#E3E3E3"/>
<circle cx="110.5" cy="243.902" r="1.5" fill="#E3E3E3"/>
<circle cx="128.5" cy="243.902" r="1.5" fill="#E3E3E3"/>
<circle cx="146.5" cy="243.902" r="1.5" fill="#E3E3E3"/>
<circle cx="164.5" cy="243.902" r="1.5" fill="#E3E3E3"/>
<circle cx="182.5" cy="243.902" r="1.5" fill="#E3E3E3"/>
<circle cx="200.5" cy="243.902" r="1.5" fill="#E3E3E3"/>
<circle cx="218.5" cy="243.902" r="1.5" fill="#E3E3E3"/>
<circle cx="236.5" cy="243.902" r="1.5" fill="#E3E3E3"/>
<circle cx="254.5" cy="243.902" r="1.5" fill="#E3E3E3"/>
<circle cx="272.5" cy="243.902" r="1.5" fill="#E3E3E3"/>
<circle cx="290.5" cy="243.902" r="1.5" fill="#E3E3E3"/>
<circle cx="308.5" cy="243.902" r="1.5" fill="#E3E3E3"/>
<circle cx="326.5" cy="243.902" r="1.5" fill="#E3E3E3"/>
<circle cx="344.5" cy="243.902" r="1.5" fill="#E3E3E3"/>
<circle cx="362.5" cy="243.902" r="1.5" fill="#E3E3E3"/>
<circle cx="380.5" cy="243.902" r="1.5" fill="#E3E3E3"/>
<circle cx="398.5" cy="243.902" r="1.5" fill="#E3E3E3"/>
<circle cx="416.5" cy="243.902" r="1.5" fill="#E3E3E3"/>
<circle cx="434.5" cy="243.902" r="1.5" fill="#E3E3E3"/>
<circle cx="452.5" cy="243.902" r="1.5" fill="#E3E3E3"/>
<circle cx="110.5" cy="261.902" r="1.5" fill="#E3E3E3"/>
<circle cx="128.5" cy="261.902" r="1.5" fill="#E3E3E3"/>
<circle cx="146.5" cy="261.902" r="1.5" fill="#E3E3E3"/>
<circle cx="164.5" cy="261.902" r="1.5" fill="#E3E3E3"/>
<circle cx="182.5" cy="261.902" r="1.5" fill="#E3E3E3"/>
<circle cx="200.5" cy="261.902" r="1.5" fill="#E3E3E3"/>
<circle cx="218.5" cy="261.902" r="1.5" fill="#E3E3E3"/>
<circle cx="236.5" cy="261.902" r="1.5" fill="#E3E3E3"/>
<circle cx="254.5" cy="261.902" r="1.5" fill="#E3E3E3"/>
<circle cx="272.5" cy="261.902" r="1.5" fill="#E3E3E3"/>
<circle cx="290.5" cy="261.902" r="1.5" fill="#E3E3E3"/>
<circle cx="308.5" cy="261.902" r="1.5" fill="#E3E3E3"/>
<circle cx="326.5" cy="261.902" r="1.5" fill="#E3E3E3"/>
<circle cx="344.5" cy="261.902" r="1.5" fill="#E3E3E3"/>
<circle cx="362.5" cy="261.902" r="1.5" fill="#E3E3E3"/>
<circle cx="380.5" cy="261.902" r="1.5" fill="#E3E3E3"/>
<circle cx="398.5" cy="261.902" r="1.5" fill="#E3E3E3"/>
<circle cx="416.5" cy="261.902" r="1.5" fill="#E3E3E3"/>
<circle cx="434.5" cy="261.902" r="1.5" fill="#E3E3E3"/>
<circle cx="452.5" cy="261.902" r="1.5" fill="#E3E3E3"/>
<circle cx="110.5" cy="279.902" r="1.5" fill="#E3E3E3"/>
<circle cx="128.5" cy="279.902" r="1.5" fill="#E3E3E3"/>
<circle cx="146.5" cy="279.902" r="1.5" fill="#E3E3E3"/>
<circle cx="164.5" cy="279.902" r="1.5" fill="#E3E3E3"/>
<circle cx="182.5" cy="279.902" r="1.5" fill="#E3E3E3"/>
<circle cx="200.5" cy="279.902" r="1.5" fill="#E3E3E3"/>
<circle cx="218.5" cy="279.902" r="1.5" fill="#E3E3E3"/>
<circle cx="236.5" cy="279.902" r="1.5" fill="#E3E3E3"/>
<circle cx="254.5" cy="279.902" r="1.5" fill="#E3E3E3"/>
<circle cx="272.5" cy="279.902" r="1.5" fill="#E3E3E3"/>
<circle cx="290.5" cy="279.902" r="1.5" fill="#E3E3E3"/>
<circle cx="308.5" cy="279.902" r="1.5" fill="#E3E3E3"/>
<circle cx="326.5" cy="279.902" r="1.5" fill="#E3E3E3"/>
<circle cx="344.5" cy="279.902" r="1.5" fill="#E3E3E3"/>
<circle cx="362.5" cy="279.902" r="1.5" fill="#E3E3E3"/>
<circle cx="380.5" cy="279.902" r="1.5" fill="#E3E3E3"/>
<circle cx="398.5" cy="279.902" r="1.5" fill="#E3E3E3"/>
<circle cx="416.5" cy="279.902" r="1.5" fill="#E3E3E3"/>
<circle cx="434.5" cy="279.902" r="1.5" fill="#E3E3E3"/>
<circle cx="452.5" cy="279.902" r="1.5" fill="#E3E3E3"/>
<circle cx="110.5" cy="297.902" r="1.5" fill="#E3E3E3"/>
<circle cx="128.5" cy="297.902" r="1.5" fill="#E3E3E3"/>
<circle cx="146.5" cy="297.902" r="1.5" fill="#E3E3E3"/>
<circle cx="164.5" cy="297.902" r="1.5" fill="#E3E3E3"/>
<circle cx="182.5" cy="297.902" r="1.5" fill="#E3E3E3"/>
<circle cx="200.5" cy="297.902" r="1.5" fill="#E3E3E3"/>
<circle cx="218.5" cy="297.902" r="1.5" fill="#E3E3E3"/>
<circle cx="236.5" cy="297.902" r="1.5" fill="#E3E3E3"/>
<circle cx="254.5" cy="297.902" r="1.5" fill="#E3E3E3"/>
<circle cx="272.5" cy="297.902" r="1.5" fill="#E3E3E3"/>
<circle cx="290.5" cy="297.902" r="1.5" fill="#E3E3E3"/>
<circle cx="308.5" cy="297.902" r="1.5" fill="#E3E3E3"/>
<circle cx="326.5" cy="297.902" r="1.5" fill="#E3E3E3"/>
<circle cx="344.5" cy="297.902" r="1.5" fill="#E3E3E3"/>
<circle cx="362.5" cy="297.902" r="1.5" fill="#E3E3E3"/>
<circle cx="380.5" cy="297.902" r="1.5" fill="#E3E3E3"/>
<circle cx="398.5" cy="297.902" r="1.5" fill="#E3E3E3"/>
<circle cx="416.5" cy="297.902" r="1.5" fill="#E3E3E3"/>
<circle cx="434.5" cy="297.902" r="1.5" fill="#E3E3E3"/>
<circle cx="452.5" cy="297.902" r="1.5" fill="#E3E3E3"/>
<circle cx="110.5" cy="315.902" r="1.5" fill="#E3E3E3"/>
<circle cx="128.5" cy="315.902" r="1.5" fill="#E3E3E3"/>
<circle cx="146.5" cy="315.902" r="1.5" fill="#E3E3E3"/>
<circle cx="164.5" cy="315.902" r="1.5" fill="#E3E3E3"/>
<circle cx="182.5" cy="315.902" r="1.5" fill="#E3E3E3"/>
<circle cx="200.5" cy="315.902" r="1.5" fill="#E3E3E3"/>
<circle cx="218.5" cy="315.902" r="1.5" fill="#E3E3E3"/>
<circle cx="236.5" cy="315.902" r="1.5" fill="#E3E3E3"/>
<circle cx="254.5" cy="315.902" r="1.5" fill="#E3E3E3"/>
<circle cx="272.5" cy="315.902" r="1.5" fill="#E3E3E3"/>
<circle cx="290.5" cy="315.902" r="1.5" fill="#E3E3E3"/>
<circle cx="308.5" cy="315.902" r="1.5" fill="#E3E3E3"/>
<circle cx="326.5" cy="315.902" r="1.5" fill="#E3E3E3"/>
<circle cx="344.5" cy="315.902" r="1.5" fill="#E3E3E3"/>
<circle cx="362.5" cy="315.902" r="1.5" fill="#E3E3E3"/>
<circle cx="380.5" cy="315.902" r="1.5" fill="#E3E3E3"/>
<circle cx="398.5" cy="315.902" r="1.5" fill="#E3E3E3"/>
<circle cx="416.5" cy="315.902" r="1.5" fill="#E3E3E3"/>
<circle cx="434.5" cy="315.902" r="1.5" fill="#E3E3E3"/>
<circle cx="452.5" cy="315.902" r="1.5" fill="#E3E3E3"/>
<circle cx="110.5" cy="333.902" r="1.5" fill="#E3E3E3"/>
<circle cx="128.5" cy="333.902" r="1.5" fill="#E3E3E3"/>
<circle cx="146.5" cy="333.902" r="1.5" fill="#E3E3E3"/>
<circle cx="164.5" cy="333.902" r="1.5" fill="#E3E3E3"/>
<circle cx="182.5" cy="333.902" r="1.5" fill="#E3E3E3"/>
<circle cx="200.5" cy="333.902" r="1.5" fill="#E3E3E3"/>
<circle cx="218.5" cy="333.902" r="1.5" fill="#E3E3E3"/>
<circle cx="236.5" cy="333.902" r="1.5" fill="#E3E3E3"/>
<circle cx="254.5" cy="333.902" r="1.5" fill="#E3E3E3"/>
<circle cx="272.5" cy="333.902" r="1.5" fill="#E3E3E3"/>
<circle cx="290.5" cy="333.902" r="1.5" fill="#E3E3E3"/>
<circle cx="308.5" cy="333.902" r="1.5" fill="#E3E3E3"/>
<circle cx="326.5" cy="333.902" r="1.5" fill="#E3E3E3"/>
<circle cx="344.5" cy="333.902" r="1.5" fill="#E3E3E3"/>
<circle cx="362.5" cy="333.902" r="1.5" fill="#E3E3E3"/>
<circle cx="380.5" cy="333.902" r="1.5" fill="#E3E3E3"/>
<circle cx="398.5" cy="333.902" r="1.5" fill="#E3E3E3"/>
<circle cx="416.5" cy="333.902" r="1.5" fill="#E3E3E3"/>
<circle cx="434.5" cy="333.902" r="1.5" fill="#E3E3E3"/>
<circle cx="452.5" cy="333.902" r="1.5" fill="#E3E3E3"/>
<circle cx="110.5" cy="351.902" r="1.5" fill="#E3E3E3"/>
<circle cx="128.5" cy="351.902" r="1.5" fill="#E3E3E3"/>
<circle cx="146.5" cy="351.902" r="1.5" fill="#E3E3E3"/>
<circle cx="164.5" cy="351.902" r="1.5" fill="#E3E3E3"/>
<circle cx="182.5" cy="351.902" r="1.5" fill="#E3E3E3"/>
<circle cx="200.5" cy="351.902" r="1.5" fill="#E3E3E3"/>
<circle cx="218.5" cy="351.902" r="1.5" fill="#E3E3E3"/>
<circle cx="236.5" cy="351.902" r="1.5" fill="#E3E3E3"/>
<circle cx="254.5" cy="351.902" r="1.5" fill="#E3E3E3"/>
<circle cx="272.5" cy="351.902" r="1.5" fill="#E3E3E3"/>
<circle cx="290.5" cy="351.902" r="1.5" fill="#E3E3E3"/>
<circle cx="308.5" cy="351.902" r="1.5" fill="#E3E3E3"/>
<circle cx="326.5" cy="351.902" r="1.5" fill="#E3E3E3"/>
<circle cx="344.5" cy="351.902" r="1.5" fill="#E3E3E3"/>
<circle cx="362.5" cy="351.902" r="1.5" fill="#E3E3E3"/>
<circle cx="380.5" cy="351.902" r="1.5" fill="#E3E3E3"/>
<circle cx="398.5" cy="351.902" r="1.5" fill="#E3E3E3"/>
<circle cx="416.5" cy="351.902" r="1.5" fill="#E3E3E3"/>
<circle cx="434.5" cy="351.902" r="1.5" fill="#E3E3E3"/>
<circle cx="452.5" cy="351.902" r="1.5" fill="#E3E3E3"/>
<rect x="15" y="7.40234" width="453" height="348" fill="url(#paint0_radial)"/>
<path d="M3.43037 299.32C-11.6742 296.608 -24.6847 283.351 -35.2744 268.541C-45.8466 253.756 -53.9739 237.401 -52.1171 222.079C-50.2603 206.757 -38.4063 192.385 -24.1707 183.692C-9.91745 175.024 6.70639 171.968 22.6948 174.217C38.7009 176.49 54.0298 184.06 64.9116 196.588C75.7934 209.115 82.2039 226.617 79.4633 242.401C76.7161 258.227 64.7761 272.33 50.2484 283.305C35.679 294.274 18.5285 302.073 3.43037 299.32Z" fill="#F06C46"/>
<path d="M41.52 125.322C34.08 125.322 27.48 123.602 21.72 120.162C16.04 116.642 11.56 111.602 8.28 105.042C5.08 98.4023 3.48 90.5223 3.48 81.4023C3.48 72.2823 5.08 64.4423 8.28 57.8823C11.56 51.2423 16.04 46.2023 21.72 42.7623C27.48 39.2423 34.08 37.4823 41.52 37.4823C48.96 37.4823 55.52 39.2423 61.2 42.7623C66.96 46.2023 71.44 51.2423 74.64 57.8823C77.92 64.4423 79.56 72.2823 79.56 81.4023C79.56 90.5223 77.92 98.4023 74.64 105.042C71.44 111.602 66.96 116.642 61.2 120.162C55.52 123.602 48.96 125.322 41.52 125.322ZM41.52 102.642C47.92 102.642 51.12 95.5623 51.12 81.4023C51.12 67.2423 47.92 60.1623 41.52 60.1623C35.12 60.1623 31.92 67.2423 31.92 81.4023C31.92 95.5623 35.12 102.642 41.52 102.642ZM155.086 39.4023V56.8023L127.126 123.402H96.1659L122.806 61.3623L106.606 61.3623V73.6023H83.2059L83.2059 39.4023L155.086 39.4023Z" fill="#E3E3E3"/>
</g>
<path d="M78.386 305.982V310.402H59.958V286.602H77.944V291.022H65.432V296.19H76.482V300.474H65.432V305.982H78.386ZM110.001 292.11V310.402H82.087V292.11H87.357V306.05H93.443V292.11H98.713V306.05H104.731V292.11H110.001ZM112.551 306.05V314.04H107.621V310.402H104.595V306.05H112.551ZM132.533 301.324C132.533 301.392 132.499 301.868 132.431 302.752H118.593C118.842 303.886 119.432 304.781 120.361 305.438C121.29 306.096 122.446 306.424 123.829 306.424C124.781 306.424 125.62 306.288 126.345 306.016C127.093 305.722 127.784 305.268 128.419 304.656L131.241 307.716C129.518 309.688 127.002 310.674 123.693 310.674C121.63 310.674 119.806 310.278 118.219 309.484C116.632 308.668 115.408 307.546 114.547 306.118C113.686 304.69 113.255 303.07 113.255 301.256C113.255 299.466 113.674 297.856 114.513 296.428C115.374 294.978 116.542 293.856 118.015 293.062C119.511 292.246 121.177 291.838 123.013 291.838C124.804 291.838 126.424 292.224 127.875 292.994C129.326 293.765 130.459 294.876 131.275 296.326C132.114 297.754 132.533 299.42 132.533 301.324ZM123.047 295.85C121.846 295.85 120.837 296.19 120.021 296.87C119.205 297.55 118.706 298.48 118.525 299.658H127.535C127.354 298.502 126.855 297.584 126.039 296.904C125.223 296.202 124.226 295.85 123.047 295.85ZM119.477 289.594C118.797 289.594 118.23 289.379 117.777 288.948C117.324 288.495 117.097 287.928 117.097 287.248C117.097 286.568 117.324 286.013 117.777 285.582C118.23 285.129 118.797 284.902 119.477 284.902C120.157 284.902 120.712 285.129 121.143 285.582C121.596 286.013 121.823 286.568 121.823 287.248C121.823 287.928 121.596 288.495 121.143 288.948C120.712 289.379 120.157 289.594 119.477 289.594ZM126.345 289.594C125.665 289.594 125.098 289.379 124.645 288.948C124.214 288.495 123.999 287.928 123.999 287.248C123.999 286.568 124.214 286.013 124.645 285.582C125.098 285.129 125.665 284.902 126.345 284.902C127.025 284.902 127.592 285.129 128.045 285.582C128.498 286.013 128.725 286.568 128.725 287.248C128.725 287.928 128.498 288.495 128.045 288.948C127.592 289.379 127.025 289.594 126.345 289.594ZM156.121 293.368C157.867 293.368 159.397 293.731 160.711 294.456C162.026 295.159 163.035 296.156 163.737 297.448C164.463 298.74 164.825 300.236 164.825 301.936C164.825 303.682 164.395 305.234 163.533 306.594C162.695 307.932 161.516 308.974 159.997 309.722C158.479 310.448 156.756 310.81 154.829 310.81C151.633 310.81 149.117 309.79 147.281 307.75C145.468 305.688 144.561 302.673 144.561 298.706C144.561 295.034 145.355 292.11 146.941 289.934C148.551 287.736 151.01 286.296 154.319 285.616L163.023 283.882L163.737 288.438L156.053 289.968C153.968 290.376 152.415 291.056 151.395 292.008C150.398 292.96 149.809 294.309 149.627 296.054C150.421 295.193 151.373 294.536 152.483 294.082C153.594 293.606 154.807 293.368 156.121 293.368ZM154.863 306.696C156.223 306.696 157.311 306.254 158.127 305.37C158.966 304.486 159.385 303.364 159.385 302.004C159.385 300.622 158.966 299.522 158.127 298.706C157.311 297.89 156.223 297.482 154.863 297.482C153.481 297.482 152.37 297.89 151.531 298.706C150.693 299.522 150.273 300.622 150.273 302.004C150.273 303.387 150.704 304.52 151.565 305.404C152.427 306.266 153.526 306.696 154.863 306.696ZM185.363 292.11V310.402H180.059V296.462H174.279L174.109 299.692C174.018 302.095 173.791 304.09 173.429 305.676C173.066 307.263 172.477 308.51 171.661 309.416C170.845 310.323 169.711 310.776 168.261 310.776C167.49 310.776 166.572 310.64 165.507 310.368L165.779 306.016C166.141 306.062 166.402 306.084 166.561 306.084C167.354 306.084 167.943 305.801 168.329 305.234C168.737 304.645 169.009 303.908 169.145 303.024C169.281 302.118 169.383 300.928 169.451 299.454L169.723 292.11H185.363ZM190.123 292.11H195.393V302.99L204.301 292.11H209.163V310.402H203.893V299.522L195.019 310.402H190.123V292.11ZM232.044 303.466H229.494V310.402H224.258V303.466H221.708L217.832 310.402H211.576L217.322 300.95L211.984 292.11H217.594L221.64 299.216H224.258V292.11H229.494V299.216H232.078L236.158 292.11H241.768L236.43 300.95L242.21 310.402H235.92L232.044 303.466ZM261.844 301.324C261.844 301.392 261.81 301.868 261.742 302.752H247.904C248.154 303.886 248.743 304.781 249.672 305.438C250.602 306.096 251.758 306.424 253.14 306.424C254.092 306.424 254.931 306.288 255.656 306.016C256.404 305.722 257.096 305.268 257.73 304.656L260.552 307.716C258.83 309.688 256.314 310.674 253.004 310.674C250.942 310.674 249.117 310.278 247.53 309.484C245.944 308.668 244.72 307.546 243.858 306.118C242.997 304.69 242.566 303.07 242.566 301.256C242.566 299.466 242.986 297.856 243.824 296.428C244.686 294.978 245.853 293.856 247.326 293.062C248.822 292.246 250.488 291.838 252.324 291.838C254.115 291.838 255.736 292.224 257.186 292.994C258.637 293.765 259.77 294.876 260.586 296.326C261.425 297.754 261.844 299.42 261.844 301.324ZM252.358 295.85C251.157 295.85 250.148 296.19 249.332 296.87C248.516 297.55 248.018 298.48 247.836 299.658H256.846C256.665 298.502 256.166 297.584 255.35 296.904C254.534 296.202 253.537 295.85 252.358 295.85ZM282.917 303.466H280.163V310.402H274.859V292.11H280.163V299.216H283.019L287.983 292.11H293.627L287.235 300.882L294.069 310.402H287.813L282.917 303.466ZM317.488 300.882C318.576 301.222 319.415 301.744 320.004 302.446C320.616 303.149 320.922 303.988 320.922 304.962C320.922 306.118 320.526 307.138 319.732 308.022C318.939 308.884 317.851 309.552 316.468 310.028C315.086 310.504 313.522 310.742 311.776 310.742C310.348 310.742 308.943 310.595 307.56 310.3C306.178 310.006 304.897 309.564 303.718 308.974L305.146 305.268C307.073 306.198 309.204 306.662 311.538 306.662C312.785 306.662 313.76 306.481 314.462 306.118C315.188 305.733 315.55 305.2 315.55 304.52C315.55 303.931 315.301 303.489 314.802 303.194C314.304 302.877 313.578 302.718 312.626 302.718H308.886V299.42H312.15C313.08 299.42 313.794 299.273 314.292 298.978C314.791 298.684 315.04 298.253 315.04 297.686C315.04 297.097 314.723 296.644 314.088 296.326C313.476 296.009 312.592 295.85 311.436 295.85C309.668 295.85 307.742 296.27 305.656 297.108L304.364 293.436C306.903 292.326 309.374 291.77 311.776 291.77C313.431 291.77 314.904 291.974 316.196 292.382C317.511 292.79 318.542 293.391 319.29 294.184C320.038 294.955 320.412 295.862 320.412 296.904C320.412 297.766 320.152 298.548 319.63 299.25C319.109 299.93 318.395 300.474 317.488 300.882ZM342.223 301.324C342.223 301.392 342.189 301.868 342.121 302.752H328.283C328.532 303.886 329.121 304.781 330.051 305.438C330.98 306.096 332.136 306.424 333.519 306.424C334.471 306.424 335.309 306.288 336.035 306.016C336.783 305.722 337.474 305.268 338.109 304.656L340.931 307.716C339.208 309.688 336.692 310.674 333.383 310.674C331.32 310.674 329.495 310.278 327.909 309.484C326.322 308.668 325.098 307.546 324.237 306.118C323.375 304.69 322.945 303.07 322.945 301.256C322.945 299.466 323.364 297.856 324.203 296.428C325.064 294.978 326.231 293.856 327.705 293.062C329.201 292.246 330.867 291.838 332.703 291.838C334.493 291.838 336.114 292.224 337.565 292.994C339.015 293.765 340.149 294.876 340.965 296.326C341.803 297.754 342.223 299.42 342.223 301.324ZM332.737 295.85C331.535 295.85 330.527 296.19 329.711 296.87C328.895 297.55 328.396 298.48 328.215 299.658H337.225C337.043 298.502 336.545 297.584 335.729 296.904C334.913 296.202 333.915 295.85 332.737 295.85ZM363.798 310.402V299.454L358.324 308.634H356.08L350.742 299.42V310.402H345.948V292.11H351.49L357.338 302.684L363.56 292.11H368.524L368.592 310.402H363.798ZM390.877 292.11V310.402H385.573V296.462H379.793L379.623 299.692C379.532 302.095 379.305 304.09 378.943 305.676C378.58 307.263 377.991 308.51 377.175 309.416C376.359 310.323 375.225 310.776 373.775 310.776C373.004 310.776 372.086 310.64 371.021 310.368L371.293 306.016C371.655 306.062 371.916 306.084 372.075 306.084C372.868 306.084 373.457 305.801 373.843 305.234C374.251 304.645 374.523 303.908 374.659 303.024C374.795 302.118 374.897 300.928 374.965 299.454L375.237 292.11H390.877ZM413.419 301.324C413.419 301.392 413.385 301.868 413.317 302.752H399.479C399.729 303.886 400.318 304.781 401.247 305.438C402.177 306.096 403.333 306.424 404.715 306.424C405.667 306.424 406.506 306.288 407.231 306.016C407.979 305.722 408.671 305.268 409.305 304.656L412.127 307.716C410.405 309.688 407.889 310.674 404.579 310.674C402.517 310.674 400.692 310.278 399.105 309.484C397.519 308.668 396.295 307.546 395.433 306.118C394.572 304.69 394.141 303.07 394.141 301.256C394.141 299.466 394.561 297.856 395.399 296.428C396.261 294.978 397.428 293.856 398.901 293.062C400.397 292.246 402.063 291.838 403.899 291.838C405.69 291.838 407.311 292.224 408.761 292.994C410.212 293.765 411.345 294.876 412.161 296.326C413 297.754 413.419 299.42 413.419 301.324ZM403.933 295.85C402.732 295.85 401.723 296.19 400.907 296.87C400.091 297.55 399.593 298.48 399.411 299.658H408.421C408.24 298.502 407.741 297.584 406.925 296.904C406.109 296.202 405.112 295.85 403.933 295.85Z" fill="black"/>
</g>
<g clip-path="url(#clip0)">
<path d="M298.403 73.4818V61.6646H350.294L377.739 89.0911V174.89H355.712" stroke="#C81F56" stroke-width="3" stroke-miterlimit="10" stroke-linecap="round" stroke-linejoin="round"/>
<path d="M350.314 89.0911H377.739L350.314 61.6646V89.0911Z" stroke="#C81F56" stroke-width="3" stroke-miterlimit="10" stroke-linecap="round" stroke-linejoin="round"/>
<path d="M328.853 138.782H364.018" stroke="#C81F56" stroke-width="3" stroke-miterlimit="10" stroke-linecap="round" stroke-linejoin="round"/>
<path d="M323.407 126.743H364.018" stroke="#C81F56" stroke-width="3" stroke-miterlimit="10" stroke-linecap="round" stroke-linejoin="round"/>
<path d="M328.853 114.707H364.018" stroke="#C81F56" stroke-width="3" stroke-miterlimit="10" stroke-linecap="round" stroke-linejoin="round"/>
<path d="M345.543 186.135C345.543 186.135 345.543 157.909 331.577 150.382L308.879 139.095" stroke="#FE840E" stroke-width="3" stroke-miterlimit="10" stroke-linecap="round" stroke-linejoin="round"/>
<path d="M251.263 186.135C251.263 186.135 251.263 157.909 265.229 150.382L287.926 139.095" stroke="#FE840E" stroke-width="3" stroke-miterlimit="10" stroke-linecap="round" stroke-linejoin="round"/>
<path d="M315.86 142.855L317.613 157.909C306.258 154.902 301.892 146.622 301.892 146.622" stroke="#FE840E" stroke-width="3" stroke-miterlimit="10" stroke-linecap="round" stroke-linejoin="round"/>
<path d="M280.944 142.855L279.194 157.909C290.548 154.902 294.914 146.622 294.914 146.622" stroke="#FE840E" stroke-width="3" stroke-miterlimit="10" stroke-linecap="round" stroke-linejoin="round"/>
<path d="M301.893 146.622C301.893 146.622 306.089 153.399 301.893 157.909C301.893 157.909 305.39 180.117 305.39 186.14" stroke="#FE840E" stroke-width="3" stroke-miterlimit="10" stroke-linecap="round" stroke-linejoin="round"/>
<path d="M291.416 186.14C291.416 180.116 294.913 157.909 294.913 157.909C290.716 153.399 294.913 146.622 294.913 146.622" stroke="#FE840E" stroke-width="3" stroke-miterlimit="10" stroke-linecap="round" stroke-linejoin="round"/>
<path d="M305.39 133.448C315.162 128.937 316.387 119.337 317.435 109.931C317.963 104.848 318.139 99.3921 315.862 94.6879C313.769 90.3564 309.926 87.3451 305.738 85.8416C303.467 84.8992 301.025 84.5273 298.405 84.5273C295.783 84.5273 293.341 84.8992 291.069 85.8416C286.88 87.346 283.04 90.3564 280.945 94.6879C278.669 99.3921 278.847 104.849 279.371 109.931C280.421 119.337 281.467 128.937 291.417 133.448" stroke="#FE840E" stroke-width="3" stroke-miterlimit="10" stroke-linecap="round" stroke-linejoin="round"/>
<path d="M308.88 131.567V135.329C308.88 141.542 304.164 146.622 298.404 146.622C292.642 146.622 287.927 141.542 287.927 135.329V131.567" stroke="#FE840E" stroke-width="3" stroke-miterlimit="10" stroke-linecap="round" stroke-linejoin="round"/>
</g>
<defs>
<filter id="filter0_d" x="0" y="0.402344" width="483" height="378" filterUnits="userSpaceOnUse" color-interpolation-filters="sRGB">
<feFlood flood-opacity="0" result="BackgroundImageFix"/>
<feColorMatrix in="SourceAlpha" type="matrix" values="0 0 0 0 0 0 0 0 0 0 0 0 0 0 0 0 0 0 127 0"/>
<feOffset dy="8"/>
<feGaussianBlur stdDeviation="7.5"/>
<feColorMatrix type="matrix" values="0 0 0 0 0 0 0 0 0 0 0 0 0 0 0 0 0 0 0.1 0"/>
<feBlend mode="normal" in2="BackgroundImageFix" result="effect1_dropShadow"/>
<feBlend mode="normal" in="SourceGraphic" in2="effect1_dropShadow" result="shape"/>
</filter>
<radialGradient id="paint0_radial" cx="0" cy="0" r="1" gradientUnits="userSpaceOnUse" gradientTransform="translate(332.5 169.402) rotate(180) scale(218 283.776)">
<stop stop-color="white" stop-opacity="0"/>
<stop offset="1" stop-color="white"/>
</radialGradient>
<clipPath id="clip0">
<rect width="129" height="127" fill="white" transform="translate(250 60.4023)"/>
</clipPath>
</defs>
</svg>
