<svg width="8" height="16" viewBox="0 0 8 16" fill="none" xmlns="http://www.w3.org/2000/svg">
<path d="M0.448426 8.40634H2.12622V15.3908C2.12622 15.5298 2.23688 15.6416 2.37445 15.6416H5.22163C5.3592 15.6416 5.46986 15.5298 5.46986 15.3908V8.43958H7.39887C7.52449 8.43958 7.62916 8.34589 7.64411 8.21896L7.93721 5.64702C7.94618 5.57751 7.92225 5.50497 7.87739 5.45359C7.82954 5.39919 7.76374 5.36897 7.69197 5.36897H5.46986V3.75811C5.46986 3.27152 5.73005 3.02672 6.23847 3.02672C6.31025 3.02672 7.69197 3.02672 7.69197 3.02672C7.82954 3.02672 7.9402 2.9149 7.9402 2.77587V0.415491C7.9402 0.276467 7.82954 0.164643 7.69197 0.164643H5.68818C5.67323 0.164643 5.64332 0.161621 5.59547 0.161621C5.24854 0.161621 4.04029 0.231133 3.08625 1.11665C2.02753 2.10493 2.17407 3.28059 2.20996 3.48308V5.36897H0.448426C0.310852 5.36897 0.200195 5.48079 0.200195 5.61982V8.15851C0.200195 8.29451 0.310852 8.40634 0.448426 8.40634Z" fill="#385C8E"/>
<path d="M0.448426 8.40634H2.12622V15.3908C2.12622 15.5298 2.23688 15.6416 2.37445 15.6416H5.22163C5.3592 15.6416 5.46986 15.5298 5.46986 15.3908V8.43958H7.39887C7.52449 8.43958 7.62916 8.34589 7.64411 8.21896L7.93721 5.64702C7.94618 5.57751 7.92225 5.50497 7.87739 5.45359C7.82954 5.39919 7.76374 5.36897 7.69197 5.36897H5.46986V3.75811C5.46986 3.27152 5.73005 3.02672 6.23847 3.02672C6.31025 3.02672 7.69197 3.02672 7.69197 3.02672C7.82954 3.02672 7.9402 2.9149 7.9402 2.77587V0.415491C7.9402 0.276467 7.82954 0.164643 7.69197 0.164643H5.68818C5.67323 0.164643 5.64332 0.161621 5.59547 0.161621C5.24854 0.161621 4.04029 0.231133 3.08625 1.11665C2.02753 2.10493 2.17407 3.28059 2.20996 3.48308V5.36897H0.448426C0.310852 5.36897 0.200195 5.48079 0.200195 5.61982V8.15851C0.200195 8.29451 0.310852 8.40634 0.448426 8.40634Z" fill="#FEB447"/>
</svg>
