<svg width="18" height="15" viewBox="0 0 18 15" fill="none" xmlns="http://www.w3.org/2000/svg">
<path d="M17.5677 2.47054C17.2989 2.58871 17.0201 2.68718 16.7346 2.76596C17.0705 2.39504 17.3258 1.95848 17.4837 1.47924C17.5173 1.37092 17.4837 1.25603 17.393 1.18382C17.3023 1.11489 17.178 1.10504 17.0772 1.16413C16.476 1.51206 15.8243 1.76481 15.1425 1.91252C14.4572 1.25603 13.5234 0.881836 12.5594 0.881836C10.5238 0.881836 8.86783 2.50008 8.86783 4.48924C8.86783 4.6468 8.87791 4.80107 8.89806 4.95535C6.37209 4.73871 4.02414 3.5242 2.41182 1.59084C2.35472 1.52191 2.26738 1.48581 2.17669 1.49237C2.086 1.49894 2.00538 1.54817 1.95835 1.62695C1.62917 2.17512 1.4545 2.80206 1.4545 3.44214C1.4545 4.31199 1.77361 5.13588 2.33456 5.77924C2.16325 5.72016 1.99866 5.64794 1.84079 5.5626C1.75681 5.51665 1.65268 5.51664 1.56871 5.56588C1.48473 5.61184 1.43099 5.70046 1.42763 5.79565C1.42763 5.81206 1.42763 5.82848 1.42763 5.84489C1.42763 7.14145 2.1431 8.31 3.23478 8.9468C3.14072 8.93695 3.04667 8.92382 2.95262 8.90741C2.85521 8.891 2.7578 8.92382 2.69398 8.99275C2.63016 9.06497 2.60664 9.16344 2.63687 9.25535C3.03995 10.4895 4.08125 11.3955 5.34087 11.6745C4.29622 12.3146 3.10378 12.6494 1.85087 12.6494C1.58886 12.6494 1.32686 12.633 1.06822 12.6034C0.940575 12.587 0.819651 12.6625 0.775984 12.7807C0.732317 12.8989 0.779343 13.0334 0.886831 13.0991C2.4958 14.1068 4.36004 14.6418 6.27132 14.6418C10.03 14.6418 12.3814 12.9087 13.6914 11.4579C15.3272 9.64596 16.2644 7.24649 16.2644 4.87657C16.2644 4.7781 16.2644 4.67634 16.261 4.57787C16.9059 4.10191 17.4602 3.52748 17.9136 2.86771C17.9808 2.76596 17.9741 2.63466 17.8968 2.54275C17.8129 2.45084 17.6819 2.4213 17.5677 2.47054Z" fill="#73A1FB"/>
<path d="M17.5677 2.47054C17.2989 2.58871 17.0201 2.68718 16.7346 2.76596C17.0705 2.39504 17.3258 1.95848 17.4837 1.47924C17.5173 1.37092 17.4837 1.25603 17.393 1.18382C17.3023 1.11489 17.178 1.10504 17.0772 1.16413C16.476 1.51206 15.8243 1.76481 15.1425 1.91252C14.4572 1.25603 13.5234 0.881836 12.5594 0.881836C10.5238 0.881836 8.86783 2.50008 8.86783 4.48924C8.86783 4.6468 8.87791 4.80107 8.89806 4.95535C6.37209 4.73871 4.02414 3.5242 2.41182 1.59084C2.35472 1.52191 2.26738 1.48581 2.17669 1.49237C2.086 1.49894 2.00538 1.54817 1.95835 1.62695C1.62917 2.17512 1.4545 2.80206 1.4545 3.44214C1.4545 4.31199 1.77361 5.13588 2.33456 5.77924C2.16325 5.72016 1.99866 5.64794 1.84079 5.5626C1.75681 5.51665 1.65268 5.51664 1.56871 5.56588C1.48473 5.61184 1.43099 5.70046 1.42763 5.79565C1.42763 5.81206 1.42763 5.82848 1.42763 5.84489C1.42763 7.14145 2.1431 8.31 3.23478 8.9468C3.14072 8.93695 3.04667 8.92382 2.95262 8.90741C2.85521 8.891 2.7578 8.92382 2.69398 8.99275C2.63016 9.06497 2.60664 9.16344 2.63687 9.25535C3.03995 10.4895 4.08125 11.3955 5.34087 11.6745C4.29622 12.3146 3.10378 12.6494 1.85087 12.6494C1.58886 12.6494 1.32686 12.633 1.06822 12.6034C0.940575 12.587 0.819651 12.6625 0.775984 12.7807C0.732317 12.8989 0.779343 13.0334 0.886831 13.0991C2.4958 14.1068 4.36004 14.6418 6.27132 14.6418C10.03 14.6418 12.3814 12.9087 13.6914 11.4579C15.3272 9.64596 16.2644 7.24649 16.2644 4.87657C16.2644 4.7781 16.2644 4.67634 16.261 4.57787C16.9059 4.10191 17.4602 3.52748 17.9136 2.86771C17.9808 2.76596 17.9741 2.63466 17.8968 2.54275C17.8129 2.45084 17.6819 2.4213 17.5677 2.47054Z" fill="#FEB447"/>
</svg>
