<svg width="19" height="12" viewBox="0 0 19 12" fill="none" xmlns="http://www.w3.org/2000/svg">
<path d="M15.5804 7.30411C16.18 7.89542 16.8113 8.45112 17.3475 9.09942C17.5838 9.38796 17.8095 9.68717 17.9823 10.022C18.2257 10.4993 18.007 11.023 17.5838 11.0515H14.9526C14.2754 11.1085 13.7322 10.8342 13.2772 10.364C12.9139 9.98995 12.5753 9.591 12.2261 9.20272C12.0815 9.04599 11.9334 8.89638 11.7535 8.77883C11.3937 8.54373 11.0833 8.61497 10.8788 8.99256C10.6707 9.37727 10.6213 9.80472 10.6001 10.2322C10.5719 10.8591 10.385 11.023 9.76067 11.0515C8.43095 11.1156 7.16825 10.9125 5.99726 10.2357C4.96382 9.6373 4.16317 8.79664 3.4648 7.84199C2.10687 5.98256 1.06637 3.9379 0.131693 1.83981C-0.0799331 1.36605 0.0752592 1.11314 0.593743 1.10245C1.45083 1.08464 2.31144 1.0882 3.16852 1.10245C3.51771 1.10601 3.74697 1.30905 3.88452 1.64389C4.3501 2.79802 4.91796 3.89516 5.63044 4.91036C5.8209 5.18108 6.01489 5.45181 6.29001 5.6406C6.59334 5.85076 6.82612 5.78308 6.97074 5.43756C7.06244 5.22027 7.10124 4.98517 7.1224 4.75363C7.18942 3.95215 7.2 3.15067 7.08008 2.35276C7.00601 1.85406 6.72737 1.52991 6.2371 1.43729C5.98668 1.38742 6.02195 1.29481 6.14539 1.14876C6.35702 0.899409 6.55454 0.742676 6.9531 0.742676H9.92644C10.3955 0.835291 10.4978 1.04902 10.5613 1.52278L10.5648 4.85693C10.5613 5.04216 10.6566 5.58717 10.9846 5.70828C11.2491 5.79377 11.4219 5.58361 11.5771 5.41262C12.2896 4.65033 12.7975 3.74911 13.2525 2.81227C13.4535 2.40263 13.6264 1.97517 13.7957 1.54772C13.9191 1.23069 14.1166 1.07752 14.4693 1.08464L17.3228 1.09533C17.4074 1.09533 17.4921 1.09533 17.5767 1.10957C18.0599 1.1915 18.1904 1.40167 18.0423 1.87899C17.806 2.62348 17.351 3.24685 16.903 3.87022C16.4269 4.53634 15.9155 5.18108 15.4428 5.85076C15.009 6.46345 15.0407 6.77336 15.5804 7.30411Z" fill="#436EAB"/>
<path d="M15.5804 7.30411C16.18 7.89542 16.8113 8.45112 17.3475 9.09942C17.5838 9.38796 17.8095 9.68717 17.9823 10.022C18.2257 10.4993 18.007 11.023 17.5838 11.0515H14.9526C14.2754 11.1085 13.7322 10.8342 13.2772 10.364C12.9139 9.98995 12.5753 9.591 12.2261 9.20272C12.0815 9.04599 11.9334 8.89638 11.7535 8.77883C11.3937 8.54373 11.0833 8.61497 10.8788 8.99256C10.6707 9.37727 10.6213 9.80472 10.6001 10.2322C10.5719 10.8591 10.385 11.023 9.76067 11.0515C8.43095 11.1156 7.16825 10.9125 5.99726 10.2357C4.96382 9.6373 4.16317 8.79664 3.4648 7.84199C2.10687 5.98256 1.06637 3.9379 0.131693 1.83981C-0.0799331 1.36605 0.0752592 1.11314 0.593743 1.10245C1.45083 1.08464 2.31144 1.0882 3.16852 1.10245C3.51771 1.10601 3.74697 1.30905 3.88452 1.64389C4.3501 2.79802 4.91796 3.89516 5.63044 4.91036C5.8209 5.18108 6.01489 5.45181 6.29001 5.6406C6.59334 5.85076 6.82612 5.78308 6.97074 5.43756C7.06244 5.22027 7.10124 4.98517 7.1224 4.75363C7.18942 3.95215 7.2 3.15067 7.08008 2.35276C7.00601 1.85406 6.72737 1.52991 6.2371 1.43729C5.98668 1.38742 6.02195 1.29481 6.14539 1.14876C6.35702 0.899409 6.55454 0.742676 6.9531 0.742676H9.92644C10.3955 0.835291 10.4978 1.04902 10.5613 1.52278L10.5648 4.85693C10.5613 5.04216 10.6566 5.58717 10.9846 5.70828C11.2491 5.79377 11.4219 5.58361 11.5771 5.41262C12.2896 4.65033 12.7975 3.74911 13.2525 2.81227C13.4535 2.40263 13.6264 1.97517 13.7957 1.54772C13.9191 1.23069 14.1166 1.07752 14.4693 1.08464L17.3228 1.09533C17.4074 1.09533 17.4921 1.09533 17.5767 1.10957C18.0599 1.1915 18.1904 1.40167 18.0423 1.87899C17.806 2.62348 17.351 3.24685 16.903 3.87022C16.4269 4.53634 15.9155 5.18108 15.4428 5.85076C15.009 6.46345 15.0407 6.77336 15.5804 7.30411Z" fill="#FEB447"/>
</svg>
